<svg width="36" height="50" viewBox="0 0 36 50" fill="none" xmlns="http://www.w3.org/2000/svg">
<path d="M18 36C27.9411 36 36 27.9411 36 18C36 8.05887 27.9411 0 18 0C8.05887 0 0 8.05887 0 18C0 27.9411 8.05887 36 18 36Z" fill="#EAEAFF"/>
<path d="M18 36C14.4399 36 10.9598 34.9443 7.99974 32.9665C5.03966 30.9886 2.73255 28.1774 1.37018 24.8883C0.00779915 21.5992 -0.348661 17.98 0.345873 14.4884C1.04041 10.9967 2.75474 7.78943 5.27209 5.27209C7.78943 2.75474 10.9967 1.04041 14.4884 0.345873C17.98 -0.348661 21.5992 0.00779915 24.8883 1.37018C28.1774 2.73255 30.9886 5.03966 32.9665 7.99974C34.9443 10.9598 36 14.4399 36 18C36 22.7739 34.1036 27.3523 30.7279 30.7279C27.3523 34.1036 22.7739 36 18 36Z" fill="#FFEBF0"/>
<path d="M20.2002 14.0103C20.5169 13.8494 20.8764 13.7931 21.2272 13.8493C21.5566 13.873 21.8737 13.9838 22.1462 14.1703" fill="white"/>
<path d="M17.0759 14.0103C16.7592 13.8494 16.3996 13.7931 16.0489 13.8493C15.7194 13.8733 15.4023 13.9844 15.1299 14.1713" fill="white"/>
<path d="M27.0381 40.2969L29.6711 47.3309C31.9597 46.2485 34.0892 44.8575 36.0001 43.1969C35.5381 41.8409 35.1381 40.8149 35.1381 40.8149L27.0381 40.2969Z" fill="#DA5742"/>
<path d="M6.356 47.4663L9.1 40.1113L1 40.6293C1 40.6383 0.518 41.8783 0 43.4323C1.92373 45.062 4.06243 46.4194 6.356 47.4663Z" fill="#DA5742"/>
<path d="M27.0381 40.2969L27.9481 42.6889L35.9821 43.1889C35.5451 41.9309 35.1381 40.8149 35.1381 40.8149L27.0381 40.2969Z" fill="#C43D28"/>
<path d="M9.18521 39.8516L8.27521 42.2436L0.116211 43.0386C0.553211 41.7886 1.08921 40.3696 1.08921 40.3696L9.18521 39.8516Z" fill="#C43D28"/>
<path d="M8.84677 29.2788C5.30977 30.8898 1.43777 35.8528 0.00976562 41.6728H6.32977L5.28477 46.9568C9.17858 48.947 13.4898 49.9829 17.8628 49.9788C22.2528 49.9862 26.5807 48.9424 30.4848 46.9348L29.3778 42.3558L35.7688 41.7848C35.7598 41.7848 34.2868 33.5728 27.5478 29.6848C22.1468 26.5788 13.8278 27.0428 8.84677 29.2788Z" fill="#3D5CFF"/>
<path d="M8.05195 35.6836L4.29395 41.6736L6.42695 41.6646L8.05195 35.6836Z" fill="#224BF4"/>
<path d="M29.3771 42.3516L31.2771 42.1906L27.0381 34.9336L29.3771 42.3516Z" fill="#224BF4"/>
<path d="M6.40871 41.7637C6.38656 41.7572 6.36768 41.7426 6.35582 41.7227C6.34396 41.7029 6.34 41.6793 6.34471 41.6567L8.13171 35.0327C8.13825 35.0106 8.15289 34.9917 8.17271 34.9798C8.19254 34.968 8.2161 34.964 8.23871 34.9687C8.26049 34.9757 8.27891 34.9905 8.29037 35.0103C8.30183 35.03 8.30552 35.0534 8.30071 35.0757L6.51571 41.7007C6.51064 41.7182 6.50017 41.7336 6.4858 41.7447C6.47142 41.7559 6.45389 41.7622 6.43571 41.7627L6.40871 41.7637Z" fill="#1F1F39"/>
<path d="M29.2068 42.3511L26.9218 34.9341C26.9181 34.9236 26.9165 34.9125 26.9171 34.9013C26.9178 34.8902 26.9207 34.8793 26.9256 34.8694C26.9306 34.8594 26.9375 34.8505 26.9459 34.8432C26.9544 34.836 26.9642 34.8305 26.9748 34.8271C26.9853 34.8234 26.9965 34.8218 27.0076 34.8224C27.0187 34.8231 27.0296 34.8259 27.0396 34.8309C27.0496 34.8358 27.0584 34.8427 27.0657 34.8512C27.073 34.8597 27.0784 34.8695 27.0818 34.8801L29.3758 42.2981C29.3796 42.3087 29.3811 42.3199 29.3804 42.331C29.3797 42.3422 29.3767 42.3531 29.3717 42.3631C29.3666 42.3731 29.3596 42.382 29.351 42.3892C29.3425 42.3964 29.3325 42.4018 29.3218 42.4051C29.3038 42.4051 29.2948 42.4141 29.2858 42.4141C29.2677 42.4133 29.2503 42.4067 29.2361 42.3954C29.2219 42.3841 29.2117 42.3686 29.2068 42.3511Z" fill="#1F1F39"/>
<path d="M11.6073 14.7147C11.6073 14.7147 9.51826 14.7147 8.95626 13.8047C8.80025 13.5575 8.74063 13.2617 8.78877 12.9734C8.8369 12.6851 8.98943 12.4247 9.21726 12.2417C8.90894 11.8381 8.69978 11.3678 8.60668 10.8686C8.51357 10.3693 8.53912 9.8552 8.68126 9.36766C8.87009 8.9183 9.2066 8.54682 9.63517 8.31462C10.0637 8.08243 10.5587 8.00342 11.0383 8.09066C11.0383 8.09066 9.83326 5.95766 11.3073 4.35966C13.1073 2.39566 16.1273 4.35966 16.1273 4.35966C16.1854 4.00237 16.3691 3.67754 16.6453 3.44362C16.9216 3.20971 17.2723 3.08206 17.6343 3.08366C18.9343 3.08366 18.9343 3.86966 18.9343 3.86966C19.3109 3.40309 19.8186 3.06007 20.392 2.88486C20.9654 2.70964 21.5782 2.71027 22.1513 2.88666C25.1593 3.77066 24.6413 7.10866 24.6413 7.10866C24.8179 7.07168 25.0001 7.07043 25.1772 7.10498C25.3543 7.13953 25.5227 7.20918 25.6725 7.30983C25.8222 7.41048 25.9503 7.5401 26.0492 7.69103C26.1481 7.84196 26.2158 8.01116 26.2483 8.18866C26.367 8.55575 26.3398 8.95448 26.1721 9.30199C26.0045 9.6495 25.7095 9.91906 25.3483 10.0547C25.3483 10.0547 26.5623 9.85466 26.8653 10.8407C26.9947 11.2529 26.9867 11.696 26.8424 12.1033C26.6981 12.5105 26.4253 12.8599 26.0653 13.0987L25.3603 16.5357L11.8993 17.0887L11.6073 14.7147Z" fill="#1F1F39"/>
<path d="M9.27872 14.41C7.82372 15.08 7.67172 17.097 8.76972 18.365C9.86772 19.633 12.6347 19.338 12.6347 19.338L12.2327 14.803C11.807 14.5074 11.317 14.3175 10.8032 14.2492C10.2895 14.1808 9.76689 14.236 9.27872 14.41Z" fill="#C43D28"/>
<path d="M26.7193 14.4098C28.1743 15.0788 28.3263 17.0968 27.2283 18.3638C26.1303 19.6308 23.3633 19.3368 23.3633 19.3368L24.1043 14.7398C24.4677 14.4498 24.9041 14.2656 25.3654 14.2074C25.8267 14.1492 26.2952 14.2192 26.7193 14.4098Z" fill="#C43D28"/>
<path d="M24.1494 18.4001C24.2161 17.8648 24.4231 17.3567 24.7494 16.9271C25.1777 16.3335 25.7885 15.8963 26.4884 15.6821C26.5025 15.678 26.5172 15.6767 26.5318 15.6786C26.5464 15.6804 26.5604 15.6852 26.573 15.6927C26.5856 15.7002 26.5965 15.7103 26.605 15.7222C26.6135 15.7342 26.6194 15.7478 26.6224 15.7621C26.6266 15.7762 26.6278 15.791 26.626 15.8055C26.6242 15.8201 26.6193 15.8341 26.6118 15.8467C26.6043 15.8593 26.5943 15.8702 26.5823 15.8787C26.5704 15.8872 26.5568 15.8931 26.5424 15.8961C25.8951 16.0961 25.3288 16.4981 24.9264 17.0431C24.6247 17.4393 24.4307 17.9068 24.3634 18.4001C24.3629 18.4284 24.3515 18.4553 24.3315 18.4752C24.3116 18.4952 24.2846 18.5066 24.2564 18.5071C24.2282 18.5066 24.2013 18.4952 24.1813 18.4752C24.1614 18.4553 24.1499 18.4284 24.1494 18.4001V18.4001Z" fill="#1F1F39"/>
<path d="M12.1253 18.4005C12.0573 17.9079 11.8646 17.4408 11.5653 17.0435C11.1648 16.4968 10.5967 16.0958 9.94732 15.9015C9.91946 15.8934 9.89564 15.8751 9.88048 15.8504C9.86533 15.8256 9.85992 15.7961 9.86532 15.7675C9.8741 15.7397 9.89277 15.7159 9.91781 15.7008C9.94286 15.6857 9.97255 15.6803 10.0013 15.6855C10.7031 15.895 11.3152 16.3319 11.7413 16.9275C12.0713 17.355 12.2787 17.8642 12.3413 18.4005C12.3413 18.4146 12.3386 18.4285 12.3332 18.4415C12.3278 18.4545 12.3199 18.4663 12.31 18.4762C12.3 18.4861 12.2882 18.494 12.2753 18.4994C12.2623 18.5048 12.2484 18.5075 12.2343 18.5075C12.2203 18.5075 12.2064 18.5048 12.1934 18.4994C12.1804 18.494 12.1686 18.4861 12.1587 18.4762C12.1487 18.4663 12.1408 18.4545 12.1355 18.4415C12.1301 18.4285 12.1273 18.4146 12.1273 18.4005H12.1253Z" fill="#1F1F39"/>
<path d="M14.9646 23.4253L14.5986 28.4953C14.5986 28.4953 15.1076 29.6113 17.7986 29.6113C20.7176 29.6113 21.5206 28.4953 21.5206 28.4953L21.3826 23.5013C21.3826 23.5013 23.2036 23.2063 24.0826 19.9223C24.6084 17.9049 24.7565 15.8077 24.5196 13.7363C24.5196 13.7363 20.2196 14.4053 18.7626 12.6203C17.3056 10.8353 15.8366 9.04535 13.7236 9.93835C11.6106 10.8313 11.8756 16.5883 12.4296 19.3283C12.7784 20.9448 13.6737 22.3917 14.9646 23.4253Z" fill="#DA5742"/>
<path d="M15.9104 16.5886C15.7192 16.5708 15.5427 16.4785 15.419 16.3316C15.2953 16.1847 15.2344 15.995 15.2494 15.8036C15.2341 15.612 15.2949 15.4221 15.4186 15.2749C15.5423 15.1278 15.719 15.0354 15.9104 15.0176C16.1018 15.0354 16.2785 15.1278 16.4022 15.2749C16.5259 15.4221 16.5867 15.612 16.5714 15.8036C16.5864 15.995 16.5255 16.1847 16.4018 16.3316C16.2781 16.4785 16.1016 16.5708 15.9104 16.5886Z" fill="#1F1F39"/>
<path d="M20.7219 16.5886C20.5307 16.5708 20.3542 16.4785 20.2305 16.3316C20.1068 16.1847 20.0459 15.995 20.0609 15.8036C20.0456 15.612 20.1064 15.4221 20.2301 15.2749C20.3538 15.1278 20.5305 15.0354 20.7219 15.0176C20.9133 15.0354 21.09 15.1278 21.2137 15.2749C21.3374 15.4221 21.3982 15.612 21.3829 15.8036C21.3979 15.995 21.337 16.1847 21.2133 16.3316C21.0896 16.4785 20.9131 16.5708 20.7219 16.5886Z" fill="#1F1F39"/>
<path d="M17.8101 16.8832C18.0331 17.3292 18.6101 17.1062 18.6101 17.1062C18.6101 17.1062 18.0301 16.9542 18.0301 16.5062C18.0301 16.0582 17.9891 14.5352 17.9891 14.5352C17.7995 15.3025 17.739 16.096 17.8101 16.8832Z" fill="#1F1F39"/>
<path d="M14.7588 27.1258C14.8038 27.1128 19.5878 25.2558 20.4898 24.4078C20.4898 23.8898 20.5078 23.5078 20.5078 23.5078C19.566 23.911 18.5362 24.0646 17.5178 23.9538C16.639 23.9576 15.7691 23.7777 14.9638 23.4258C14.9728 23.8808 14.8038 26.9428 14.7588 27.1258Z" fill="#C43D28"/>
<path d="M21.9258 18.5252C21.1418 18.5252 20.5068 18.1262 20.5068 17.6332C20.5068 17.1402 21.1418 16.7402 21.9258 16.7402C22.7098 16.7402 23.3458 17.1402 23.3458 17.6332C23.3458 18.1262 22.7068 18.5252 21.9258 18.5252Z" fill="#C43D28"/>
<path d="M14.419 18.5252C13.635 18.5252 13 18.1262 13 17.6332C13 17.1402 13.635 16.7402 14.419 16.7402C15.203 16.7402 15.839 17.1402 15.839 17.6332C15.839 18.1262 15.2 18.5252 14.419 18.5252Z" fill="#C43D28"/>
<path d="M18.3014 18.731C18.6844 18.5701 19.0448 18.36 19.3734 18.106C19.3734 18.106 19.5524 18.017 19.6414 18.106C19.5734 18.3711 19.451 18.6191 19.282 18.8343C19.1129 19.0495 18.9009 19.2272 18.6594 19.356C18.4179 19.4359 18.157 19.4356 17.9156 19.355C17.6743 19.2744 17.4655 19.118 17.3204 18.909C17.0524 18.552 17.4094 18.641 17.4094 18.641C17.6961 18.7381 18.0011 18.7688 18.3014 18.731Z" fill="white"/>
<path d="M14.9113 21.5858C16.2503 21.9428 16.0003 22.5678 16.5803 22.2998C17.1603 22.0318 17.3303 21.4998 18.5083 21.6748C19.6863 21.8498 19.4273 22.4748 20.1773 22.3888C21.147 22.0945 22.0339 21.5762 22.7663 20.8758C23.3553 20.3358 24.1853 19.4438 24.1853 19.4438C24.1853 19.4438 23.6493 23.1928 20.6683 24.0858C18.4273 24.7548 15.2503 24.4428 13.8303 22.3858C13.0804 21.4504 12.5635 20.3501 12.3223 19.1758C12.3223 19.1758 13.5723 21.2288 14.9113 21.5858Z" fill="#1F1F39"/>
<path d="M16.2755 21.1412C16.2627 21.134 16.2516 21.124 16.243 21.112C16.2345 21.0999 16.2287 21.0861 16.2262 21.0716C16.2236 21.0571 16.2242 21.0422 16.2281 21.0279C16.232 21.0137 16.2389 21.0005 16.2485 20.9892L16.6055 20.4532C16.6128 20.4404 16.6228 20.4293 16.6348 20.4208C16.6468 20.4122 16.6606 20.4065 16.6751 20.4039C16.6897 20.4013 16.7046 20.402 16.7188 20.4058C16.7331 20.4097 16.7463 20.4167 16.7575 20.4262C16.7704 20.4335 16.7815 20.4435 16.79 20.4555C16.7985 20.4676 16.8043 20.4813 16.8069 20.4959C16.8095 20.5104 16.8088 20.5253 16.8049 20.5396C16.8011 20.5538 16.7941 20.567 16.7845 20.5782L16.4275 21.1142C16.4172 21.128 16.4037 21.1392 16.3883 21.1469C16.3728 21.1545 16.3558 21.1584 16.3385 21.1582C16.3166 21.1568 16.2952 21.1511 16.2755 21.1412Z" fill="#1F1F39"/>
<path d="M14.376 20.7659C14.3602 20.7419 14.3541 20.7128 14.3591 20.6845C14.3642 20.6562 14.3799 20.6309 14.403 20.6139L14.938 20.2569C14.962 20.241 14.9911 20.235 15.0194 20.24C15.0477 20.245 15.073 20.2607 15.09 20.2839C15.1065 20.308 15.1129 20.3376 15.1078 20.3664C15.1028 20.3951 15.0867 20.4208 15.063 20.4379L14.528 20.7929C14.5088 20.8039 14.4871 20.8097 14.465 20.8099C14.4478 20.81 14.4307 20.8061 14.4153 20.7985C14.3998 20.7908 14.3864 20.7797 14.376 20.7659Z" fill="#1F1F39"/>
<path d="M18.1953 21.2288V20.7828C18.1958 20.7546 18.2073 20.7276 18.2272 20.7077C18.2472 20.6877 18.2741 20.6763 18.3023 20.6758C18.3301 20.6777 18.3562 20.6895 18.3759 20.7092C18.3956 20.7289 18.4074 20.755 18.4093 20.7828V21.2288C18.4105 21.2432 18.4086 21.2577 18.4036 21.2712C18.3987 21.2848 18.3909 21.2972 18.3807 21.3074C18.3705 21.3177 18.3583 21.3256 18.3447 21.3307C18.3312 21.3358 18.3167 21.3378 18.3023 21.3368C18.2739 21.3363 18.2469 21.3247 18.2269 21.3045C18.2069 21.2843 18.1956 21.2572 18.1953 21.2288V21.2288Z" fill="#1F1F39"/>
<path d="M19.893 20.999L19.714 20.551C19.7085 20.5375 19.7058 20.523 19.7061 20.5085C19.7063 20.4939 19.7094 20.4795 19.7153 20.4662C19.7212 20.4529 19.7297 20.4408 19.7403 20.4308C19.7509 20.4208 19.7634 20.4131 19.777 20.408C19.7905 20.4027 19.8048 20.4001 19.8193 20.4004C19.8337 20.4007 19.848 20.4039 19.8612 20.4098C19.8744 20.4156 19.8863 20.4241 19.8963 20.4346C19.9062 20.4451 19.9139 20.4575 19.919 20.471L20.098 20.917C20.1035 20.9305 20.1062 20.945 20.1059 20.9595C20.1057 20.9741 20.1026 20.9885 20.0967 21.0018C20.0908 21.0151 20.0823 21.0271 20.0717 21.0371C20.0611 21.0471 20.0487 21.0549 20.035 21.06C20.027 21.069 20.018 21.069 20 21.069C19.9773 21.0691 19.955 21.0625 19.936 21.0501C19.917 21.0376 19.902 21.0199 19.893 20.999Z" fill="#1F1F39"/>
<path d="M21.9095 20.8736L21.2845 20.5166C21.2587 20.502 21.2396 20.478 21.2313 20.4497C21.2229 20.4213 21.2258 20.3908 21.2395 20.3646C21.254 20.3388 21.278 20.3197 21.3064 20.3113C21.3348 20.3029 21.3653 20.3059 21.3915 20.3196L22.0165 20.6766C22.0384 20.689 22.0556 20.7082 22.0655 20.7314C22.0754 20.7545 22.0774 20.7802 22.0713 20.8046C22.0652 20.829 22.0512 20.8507 22.0316 20.8664C22.0119 20.8821 21.9876 20.891 21.9625 20.8916C21.9437 20.8896 21.9256 20.8834 21.9095 20.8736Z" fill="#1F1F39"/>
<g opacity="0.592">
<g opacity="0.592">
<path opacity="0.592" d="M12.9886 33.8878C13.0745 33.9325 13.1685 33.9595 13.2651 33.9671C13.3616 33.9746 13.4587 33.9626 13.5506 33.9318C13.7826 33.8698 14.0236 33.7528 14.2556 33.8778C14.3545 33.9319 14.4327 34.0173 14.4779 34.1206C14.5232 34.224 14.5329 34.3394 14.5056 34.4488C14.4876 34.5288 14.6126 34.5648 14.6306 34.4848C14.6562 34.3841 14.6567 34.2786 14.6321 34.1777C14.6075 34.0768 14.5585 33.9834 14.4894 33.9058C14.4203 33.8282 14.3332 33.7688 14.2358 33.7327C14.1383 33.6966 14.0335 33.6849 13.9306 33.6988C13.7024 33.7689 13.468 33.8168 13.2306 33.8418C12.9796 33.8248 12.9166 33.5928 12.8726 33.3698C12.8708 33.3614 12.8674 33.3535 12.8626 33.3465C12.8577 33.3395 12.8516 33.3335 12.8444 33.3288C12.8373 33.3242 12.8293 33.321 12.8209 33.3194C12.8125 33.3179 12.8039 33.318 12.7956 33.3198C12.7872 33.3216 12.7793 33.3249 12.7723 33.3298C12.7653 33.3346 12.7593 33.3408 12.7546 33.3479C12.75 33.3551 12.7468 33.3631 12.7452 33.3715C12.7437 33.3798 12.7438 33.3884 12.7456 33.3968C12.7608 33.5855 12.8477 33.7612 12.9886 33.8878Z" fill="#BFE3C6"/>
<path opacity="0.592" d="M11.7308 38.3239C11.8351 38.5219 11.9968 38.6836 12.1948 38.7879C12.3998 38.9129 12.6148 39.0739 12.5608 39.3409C12.4978 39.6299 12.2218 39.7879 11.9888 39.9209C11.9751 39.9309 11.9656 39.9457 11.9622 39.9624C11.9589 39.9791 11.9619 39.9964 11.9707 40.011C11.9795 40.0255 11.9934 40.0363 12.0097 40.0411C12.026 40.0459 12.0435 40.0444 12.0588 40.0369C12.3057 39.9231 12.5113 39.7359 12.6478 39.5009C12.6959 39.4012 12.7131 39.2894 12.6973 39.1798C12.6814 39.0702 12.6332 38.9679 12.5588 38.8859C12.3998 38.7159 12.1678 38.6359 12.0068 38.4749C11.9077 38.3749 11.8411 38.2474 11.8156 38.109C11.79 37.9705 11.8069 37.8276 11.8638 37.6989C11.8818 37.6299 11.7478 37.6009 11.7218 37.6719C11.679 37.7755 11.6577 37.8867 11.6593 37.9988C11.6608 38.1109 11.6852 38.2215 11.7308 38.3239Z" fill="#BFE3C6"/>
<path opacity="0.592" d="M4.74938 35.9939C4.73154 35.9115 4.7391 35.8256 4.77106 35.7476C4.80301 35.6696 4.85786 35.6031 4.92838 35.5569C5.26738 35.3429 5.60638 35.6569 5.93738 35.6819C6.23738 35.7089 6.43738 35.4409 6.51738 35.1729C6.55449 35.0396 6.56335 34.9 6.54337 34.7631C6.52339 34.6262 6.47503 34.495 6.40138 34.3779C6.39121 34.3648 6.3766 34.3558 6.3603 34.3528C6.34401 34.3497 6.32714 34.3526 6.31288 34.3611C6.29863 34.3696 6.28796 34.383 6.2829 34.3988C6.27783 34.4146 6.27871 34.4317 6.28538 34.4469C6.36915 34.5767 6.41519 34.7273 6.41837 34.8818C6.42155 35.0363 6.38174 35.1887 6.30338 35.3219C6.26644 35.4062 6.19917 35.4736 6.11489 35.5106C6.03061 35.5477 5.93548 35.5517 5.84838 35.5219C5.69098 35.4589 5.53004 35.4051 5.36638 35.3609C5.2345 35.3245 5.09428 35.3328 4.96763 35.3846C4.84098 35.4363 4.73505 35.5286 4.66638 35.6469C4.6159 35.7836 4.60043 35.9307 4.62138 36.0749C4.62984 36.2528 4.65665 36.4294 4.70138 36.6019C4.71938 36.6819 4.84438 36.6469 4.82638 36.5659C4.77887 36.3788 4.75304 36.1869 4.74938 35.9939Z" fill="#BFE3C6"/>
<path opacity="0.592" d="M9.26633 45.1337C9.30305 45.1205 9.34232 45.1161 9.38102 45.1208C9.41973 45.1255 9.45682 45.1391 9.48933 45.1607C9.61822 45.2464 9.73786 45.3452 9.84633 45.4557C10.0782 45.6501 10.3591 45.7767 10.6583 45.8217C10.7881 45.8421 10.9208 45.8328 11.0464 45.7944C11.1721 45.7561 11.2874 45.6898 11.3836 45.6004C11.4799 45.5111 11.5547 45.4011 11.6023 45.2786C11.6498 45.1562 11.669 45.0246 11.6583 44.8937C11.6413 44.8127 11.5163 44.8477 11.5343 44.9287C11.5482 45.0844 11.5089 45.2403 11.4228 45.3709C11.3367 45.5014 11.209 45.599 11.0603 45.6477C10.9026 45.6929 10.7368 45.7022 10.5751 45.6751C10.4133 45.6479 10.2596 45.5849 10.1253 45.4907C9.98397 45.3996 9.8517 45.2951 9.73033 45.1787C9.63807 45.0843 9.52024 45.0189 9.39133 44.9907C9.17733 44.9647 8.94533 45.1787 9.05233 45.3927C9.08833 45.4647 9.20433 45.4017 9.16833 45.3217C9.13233 45.2417 9.20433 45.1697 9.26633 45.1337Z" fill="#BFE3C6"/>
<path opacity="0.592" d="M18.3447 43.3855C18.353 43.5108 18.3914 43.6322 18.4567 43.7395C18.5219 43.8467 18.6122 43.9366 18.7197 44.0015C18.9427 44.1715 19.2647 44.3225 19.3197 44.6265C19.3737 44.9655 18.9807 45.0375 18.7307 45.0105C18.6417 45.0015 18.6507 45.1355 18.7307 45.1445C18.8516 45.1697 18.9771 45.1615 19.0936 45.1206C19.2101 45.0797 19.3132 45.0077 19.3917 44.9125C19.4493 44.795 19.4647 44.6614 19.4354 44.5339C19.406 44.4065 19.3338 44.293 19.2307 44.2125C19.0257 44.0075 18.7307 43.9125 18.5697 43.6595C18.5012 43.5064 18.484 43.3354 18.5205 43.1718C18.5571 43.0082 18.6456 42.8607 18.7727 42.7515C18.8267 42.6985 18.7287 42.6005 18.6747 42.6625C18.4795 42.8546 18.362 43.1121 18.3447 43.3855V43.3855Z" fill="#BFE3C6"/>
<path opacity="0.592" d="M25.824 44.9558C25.7602 45.07 25.729 45.1995 25.7337 45.3301C25.7385 45.4608 25.779 45.5876 25.851 45.6968C25.9401 45.8263 26.0035 45.9715 26.038 46.1248C26.0553 46.2746 26.0137 46.4252 25.922 46.5448C25.8739 46.6046 25.8138 46.6536 25.7456 46.6886C25.6774 46.7236 25.6026 46.7439 25.526 46.7482C25.4494 46.7524 25.3728 46.7405 25.3011 46.7132C25.2295 46.686 25.1643 46.6439 25.11 46.5898C25.0967 46.5766 25.0787 46.5691 25.06 46.5691C25.0412 46.5691 25.0232 46.5766 25.01 46.5898C24.9967 46.6031 24.9893 46.6211 24.9893 46.6398C24.9893 46.6586 24.9967 46.6766 25.01 46.6898C25.1113 46.7841 25.2378 46.8469 25.3741 46.8707C25.5104 46.8945 25.6507 46.8782 25.778 46.8238C25.9008 46.7641 26.0035 46.6696 26.0734 46.5521C26.1432 46.4347 26.1771 46.2994 26.171 46.1628C26.155 45.8488 25.86 45.6248 25.86 45.3038C25.8627 45.1554 25.921 45.0135 26.0234 44.906C26.1258 44.7986 26.2649 44.7336 26.413 44.7238C26.4307 44.7238 26.4478 44.7168 26.4603 44.7042C26.4729 44.6917 26.48 44.6746 26.48 44.6568C26.48 44.6391 26.4729 44.622 26.4603 44.6095C26.4478 44.5969 26.4307 44.5898 26.413 44.5898C26.2917 44.5956 26.174 44.6322 26.0709 44.6963C25.9678 44.7603 25.8828 44.8497 25.824 44.9558Z" fill="#BFE3C6"/>
<path opacity="0.592" d="M21.8881 32.6552C22.0025 32.8933 22.1598 33.1082 22.3521 33.2892C22.4591 33.4052 22.5521 33.5752 22.3791 33.6822C22.2291 33.7638 22.0581 33.7986 21.8881 33.7822C21.8703 33.7822 21.8533 33.7893 21.8407 33.8019C21.8282 33.8144 21.8211 33.8315 21.8211 33.8492C21.8211 33.867 21.8282 33.884 21.8407 33.8966C21.8533 33.9092 21.8703 33.9162 21.8881 33.9162C22.1111 33.9252 22.5041 33.8802 22.5931 33.6392C22.6821 33.3982 22.4501 33.2002 22.3071 33.0482C22.0876 32.8389 21.9593 32.5515 21.9501 32.2482C21.95 32.1149 21.9911 31.9847 22.0677 31.8756C22.1443 31.7664 22.2527 31.6835 22.3781 31.6382C22.3872 31.6359 22.3957 31.6319 22.4032 31.6263C22.4107 31.6207 22.417 31.6137 22.4218 31.6056C22.4266 31.5976 22.4297 31.5887 22.4311 31.5795C22.4324 31.5702 22.4319 31.5608 22.4296 31.5517C22.4273 31.5427 22.4233 31.5342 22.4177 31.5267C22.4121 31.5192 22.4051 31.5128 22.397 31.5081C22.389 31.5033 22.3801 31.5001 22.3708 31.4988C22.3616 31.4974 22.3522 31.4979 22.3431 31.5002C22.2351 31.5433 22.137 31.608 22.055 31.6904C21.9729 31.7728 21.9086 31.8712 21.8659 31.9794C21.8233 32.0876 21.8033 32.2034 21.8071 32.3196C21.8109 32.4358 21.8385 32.5501 21.8881 32.6552Z" fill="#BFE3C6"/>
<path opacity="0.592" d="M21.781 37.8584C22.049 38.0014 22.102 38.3314 22.192 38.5904C22.2251 38.718 22.2875 38.8361 22.3743 38.9352C22.4612 39.0344 22.57 39.1118 22.692 39.1614C22.9546 39.2551 23.2415 39.2551 23.504 39.1614C23.654 39.0932 23.7888 38.9956 23.9006 38.8746C24.0124 38.7535 24.0989 38.6113 24.155 38.4564C24.191 38.3764 24.055 38.3404 24.03 38.4204C23.9756 38.5676 23.8899 38.7013 23.7789 38.8123C23.668 38.9233 23.5343 39.009 23.387 39.0634C23.2417 39.1068 23.0881 39.1148 22.939 39.0868C22.79 39.0588 22.6497 38.9956 22.53 38.9024C22.316 38.7024 22.298 38.3844 22.191 38.1254C22.1495 38.0146 22.0827 37.9149 21.9959 37.8344C21.9091 37.7538 21.8047 37.6946 21.691 37.6614C21.5602 37.6292 21.4233 37.6312 21.2936 37.6673C21.1638 37.7034 21.0455 37.7723 20.95 37.8674C20.879 37.9474 20.968 38.0374 21.03 37.9744C21.1249 37.875 21.25 37.8096 21.3858 37.7887C21.5216 37.7677 21.6606 37.7922 21.781 37.8584Z" fill="#BFE3C6"/>
<path opacity="0.592" d="M30.0027 35.334C29.9289 35.5605 29.931 35.8049 30.0087 36.03C30.0537 36.262 30.0627 36.53 29.8297 36.664C29.7274 36.7157 29.6096 36.7278 29.499 36.6981C29.3883 36.6684 29.2924 36.599 29.2297 36.503C29.1847 36.432 29.0687 36.503 29.1137 36.574C29.1714 36.6654 29.2522 36.7399 29.3479 36.7901C29.4435 36.8403 29.5507 36.8644 29.6587 36.86C29.7656 36.8514 29.8678 36.8123 29.9532 36.7475C30.0386 36.6826 30.1037 36.5947 30.1407 36.494C30.1823 36.2406 30.1656 35.981 30.0917 35.735C30.0631 35.6038 30.0852 35.4666 30.1537 35.351C30.1826 35.3036 30.226 35.2667 30.2775 35.2458C30.329 35.2249 30.3859 35.2211 30.4397 35.235C30.5197 35.244 30.5557 35.119 30.4757 35.092C30.381 35.0709 30.2819 35.0835 30.1955 35.1277C30.1092 35.1719 30.041 35.2449 30.0027 35.334Z" fill="#BFE3C6"/>
</g>
<path opacity="0.592" d="M35.4345 40.5272L35.4438 40.6157L28.936 41.2936L28.9268 41.2051L35.4345 40.5272Z" fill="#BFE3C6"/>
<path opacity="0.592" d="M6.75699 40.1662L6.7589 40.2552L0.315389 40.3937L0.313477 40.3047L6.75699 40.1662Z" fill="#BFE3C6"/>
</g>
</svg>
