<svg width="59" height="47" viewBox="0 0 59 47" fill="none" xmlns="http://www.w3.org/2000/svg">
<path d="M0.604156 40.2292V6.77083C0.604156 3.425 3.34166 0.6875 6.68749 0.6875H52.3125C55.6583 0.6875 58.3958 3.425 58.3958 6.77083V40.2292C58.3958 43.575 55.6583 46.3125 52.3125 46.3125H6.68749C3.34166 46.3125 0.604156 43.575 0.604156 40.2292Z" fill="white"/>
<path d="M58.3958 18.9375V15.8958H40.1458C38.4729 15.8958 37.1042 14.5271 37.1042 12.8542C37.1042 11.1813 38.4729 9.81251 40.1458 9.81251H41.6667V6.77084H40.1458C36.8 6.77084 34.0625 9.50834 34.0625 12.8542C34.0625 16.2 36.8 18.9375 40.1458 18.9375H44.7083V28.0625H40.1458C35.8875 28.0625 32.5417 31.4083 32.5417 35.6667C32.5417 39.925 35.8875 43.2708 40.1458 43.2708H43.1875V40.2292H40.1458C37.5604 40.2292 35.5833 38.2521 35.5833 35.6667C35.5833 33.0813 37.5604 31.1042 40.1458 31.1042H58.3958V28.0625H47.75V18.9375H58.3958ZM18.8542 28.0625H14.2917V18.9375H18.8542C22.2 18.9375 24.9375 16.2 24.9375 12.8542C24.9375 9.50834 22.2 6.77084 18.8542 6.77084H14.2917V9.81251H18.8542C20.5271 9.81251 21.8958 11.1813 21.8958 12.8542C21.8958 14.5271 20.5271 15.8958 18.8542 15.8958H0.604156V18.9375H11.25V28.0625H0.604156V31.1042H18.8542C21.4396 31.1042 23.4167 33.0813 23.4167 35.6667C23.4167 38.2521 21.4396 40.2292 18.8542 40.2292H15.8125V43.2708H18.8542C23.1125 43.2708 26.4583 39.925 26.4583 35.6667C26.4583 31.4083 23.1125 28.0625 18.8542 28.0625Z" fill="#CCCCCC"/>
</svg>
