<svg width="98" height="97" viewBox="0 0 98 97" fill="none" xmlns="http://www.w3.org/2000/svg">
<path opacity="0.56" d="M48.9299 96.764C75.5815 96.764 97.1869 75.1586 97.1869 48.507C97.1869 21.8554 75.5815 0.25 48.9299 0.25C22.2782 0.25 0.672852 21.8554 0.672852 48.507C0.672852 75.1586 22.2782 96.764 48.9299 96.764Z" fill="#F5ECFF"/>
<path d="M58.6377 54.1777L61.0757 60.6777C63.195 59.6777 65.1673 58.392 66.9377 56.8567C66.5077 55.6037 66.1377 54.6567 66.1377 54.6567L58.6377 54.1777Z" fill="#DA5742"/>
<path d="M39.4871 60.7989L42.0331 54.0059L34.5361 54.4839C34.5281 54.4919 34.0811 55.6379 33.6021 57.0729C35.3839 58.5784 37.3641 59.8321 39.4871 60.7989Z" fill="#DA5742"/>
<path d="M58.6377 54.1777L59.4807 56.3867L66.9197 56.8487C66.5147 55.6867 66.1377 54.6557 66.1377 54.6557L58.6377 54.1777Z" fill="#C43D28"/>
<path d="M42.11 53.7656L41.264 55.9746L33.71 56.7086C34.115 55.5546 34.61 54.2436 34.61 54.2436L42.11 53.7656Z" fill="#C43D28"/>
<path d="M41.7938 44.003C38.5208 45.487 34.9328 50.071 33.6108 55.446H39.4628L38.4958 60.327C42.1028 62.1639 46.0941 63.119 50.1418 63.114C54.2058 63.1208 58.2125 62.1571 61.8288 60.303L60.8038 56.074L66.7218 55.546C66.7138 55.546 65.3498 47.961 59.1098 44.375C54.1108 41.505 46.4058 41.937 41.7938 44.003Z" fill="#3D5CFF"/>
<path opacity="0.467" d="M42.7189 50.5995C42.5739 52.9825 42.4459 55.3566 42.3059 57.7395C42.2309 59.0665 42.1489 60.3935 42.0739 61.7125C42.0659 61.8695 42.3139 61.8695 42.3219 61.7125C42.4629 59.3385 42.6029 56.9725 42.7349 54.5975C42.8669 52.2225 43.0079 49.8485 43.1479 47.4745C43.2219 46.1635 43.3049 44.8525 43.3789 43.5425C43.3869 43.3855 43.1389 43.3855 43.1309 43.5505C42.9909 45.9005 42.8536 48.2502 42.7189 50.5995Z" fill="#CDECFE"/>
<path opacity="0.467" d="M45.9917 50.5173C45.9417 53.0973 45.8917 55.6863 45.8427 58.2663C45.8187 59.7173 45.7857 61.1763 45.7607 62.6273C45.7607 62.6602 45.7738 62.6917 45.7971 62.715C45.8203 62.7383 45.8519 62.7513 45.8847 62.7513C45.9176 62.7513 45.9492 62.7383 45.9724 62.715C45.9957 62.6917 46.0087 62.6602 46.0087 62.6273C46.0581 60.0386 46.1087 57.4503 46.1607 54.8623L46.3147 47.1203C46.3397 45.6783 46.3727 44.2273 46.3967 42.7843C46.3978 42.7514 46.3858 42.7195 46.3633 42.6955C46.3407 42.6715 46.3096 42.6574 46.2767 42.6563C46.2439 42.6553 46.2119 42.6673 46.1879 42.6898C46.1639 42.7123 46.1498 42.7434 46.1487 42.7763C46.0994 45.3563 46.0471 47.9366 45.9917 50.5173Z" fill="#CDECFE"/>
<path opacity="0.467" d="M49.8517 50.4937C49.8937 53.1367 49.9427 55.7857 49.9837 58.4367C50.0087 59.9287 50.0337 61.4297 50.0577 62.9217C50.0577 62.9546 50.0708 62.9861 50.094 63.0094C50.1173 63.0326 50.1488 63.0457 50.1817 63.0457C50.2146 63.0457 50.2462 63.0326 50.2694 63.0094C50.2927 62.9861 50.3057 62.9546 50.3057 62.9217C50.2657 60.2707 50.2197 57.6247 50.1747 54.9777C50.1297 52.3307 50.0837 49.6857 50.0417 47.0367C50.0197 45.5467 49.9927 44.0467 49.9677 42.5537C49.9677 42.5208 49.9547 42.4893 49.9314 42.466C49.9082 42.4428 49.8766 42.4297 49.8437 42.4297C49.8108 42.4297 49.7793 42.4428 49.756 42.466C49.7328 42.4893 49.7197 42.5208 49.7197 42.5537C49.7607 45.2007 49.8107 47.8467 49.8517 50.4937Z" fill="#CDECFE"/>
<path opacity="0.467" d="M53.5719 46.2886C53.6459 47.5886 53.7369 48.8936 53.8199 50.1966C53.9109 51.5156 54.0019 52.8266 54.1089 54.1456C54.2089 55.4456 54.3159 56.7586 54.4309 58.0616C54.5383 59.3149 54.6539 60.5679 54.7779 61.8206C54.7949 61.9686 54.8109 62.1206 54.8189 62.2656C54.8269 62.4106 55.0829 62.4226 55.0669 62.2656C54.9429 61.0206 54.8269 59.7756 54.7199 58.5396C54.6039 57.2396 54.4969 55.9346 54.3979 54.6396C54.2979 53.3206 54.1979 52.0096 54.1089 50.6906C54.0199 49.3716 53.9359 48.0776 53.8529 46.7666C53.7779 45.5136 53.7039 44.2526 53.6379 42.9996L53.6129 42.5546C53.6049 42.3896 53.3569 42.3896 53.3649 42.5456C53.4309 43.7906 53.4969 45.0356 53.5719 46.2886Z" fill="#CDECFE"/>
<path opacity="0.467" d="M57.7949 50.2786C58.1749 52.5786 58.5553 54.8816 58.9359 57.1876C59.1429 58.4406 59.3489 59.7016 59.5559 60.9556C59.5809 61.1126 59.8199 61.0466 59.7959 60.8896C59.4229 58.6216 59.0509 56.3626 58.6759 54.0956C58.2979 51.7956 57.9189 49.4926 57.5389 47.1866C57.3319 45.9296 57.1249 44.6726 56.9189 43.4196C56.8859 43.2626 56.6459 43.3296 56.6759 43.4856C57.0509 45.7526 57.4229 48.0116 57.7949 50.2786Z" fill="#CDECFE"/>
<path opacity="0.467" d="M39.0899 49.1496C38.7899 50.4496 38.5029 51.7626 38.2219 53.0656C38.0569 53.8156 37.8999 54.5666 37.7399 55.3246C37.7069 55.4816 37.9469 55.5476 37.9799 55.3906C38.2559 54.0636 38.5399 52.7446 38.8339 51.4166C39.1229 50.1166 39.4209 48.8036 39.7099 47.5006C39.8839 46.7506 40.0489 46.0006 40.2099 45.2496C40.2117 45.2218 40.2037 45.1943 40.1873 45.1719C40.1709 45.1494 40.1471 45.1334 40.1201 45.1266C40.0932 45.1199 40.0647 45.1227 40.0396 45.1348C40.0145 45.1468 39.9945 45.1673 39.9829 45.1926L39.0899 49.1496Z" fill="#CDECFE"/>
<path opacity="0.467" d="M61.6467 49.4211C62.0687 50.7571 62.4977 52.1001 62.9277 53.4361C63.1677 54.1861 63.4157 54.9361 63.6717 55.6781C63.7217 55.8261 63.9607 55.7601 63.9117 55.6121C63.4657 54.2851 63.0357 52.9491 62.6057 51.6121C62.1757 50.2751 61.7537 48.9351 61.3237 47.5991C61.0847 46.8491 60.8337 46.0991 60.5797 45.3571C60.5337 45.2001 60.2907 45.2671 60.3407 45.4231C60.7867 46.7501 61.2167 48.0851 61.6467 49.4211Z" fill="#CDECFE"/>
<path d="M41.0581 49.916L37.5781 55.448L39.5531 55.44L41.0581 49.916Z" fill="#224BF4"/>
<path d="M60.8037 56.0737L62.5637 55.9227L58.6377 49.2227L60.8037 56.0737Z" fill="#224BF4"/>
<path d="M39.5369 55.5307C39.5164 55.5247 39.499 55.5111 39.4881 55.4928C39.4771 55.4744 39.4735 55.4526 39.4779 55.4317L41.1329 49.3147C41.139 49.2943 41.1525 49.2768 41.1709 49.2659C41.1892 49.255 41.211 49.2513 41.2319 49.2557C41.2524 49.262 41.2698 49.2758 41.2805 49.2944C41.2913 49.3129 41.2946 49.3348 41.2899 49.3557L39.6369 55.4737C39.6324 55.49 39.6228 55.5045 39.6095 55.5149C39.5961 55.5254 39.5798 55.5313 39.5629 55.5317L39.5369 55.5307Z" fill="#1F1F39"/>
<path d="M60.647 56.073L58.531 49.218C58.5274 49.2082 58.5259 49.1977 58.5265 49.1873C58.5271 49.1768 58.5298 49.1666 58.5345 49.1573C58.5392 49.1479 58.5457 49.1396 58.5537 49.1329C58.5617 49.1261 58.571 49.1211 58.581 49.118C58.5908 49.1144 58.6012 49.1128 58.6116 49.1134C58.622 49.1139 58.6321 49.1166 58.6415 49.1211C58.6508 49.1257 58.6592 49.1321 58.6659 49.14C58.6727 49.1479 58.6779 49.1571 58.681 49.167L60.804 56.023C60.8076 56.0329 60.8091 56.0433 60.8085 56.0538C60.8079 56.0642 60.8052 56.0744 60.8005 56.0838C60.7958 56.0931 60.7893 56.1014 60.7813 56.1082C60.7733 56.1149 60.764 56.12 60.754 56.123C60.737 56.123 60.729 56.131 60.721 56.131C60.7041 56.1306 60.6878 56.1247 60.6744 56.1142C60.6611 56.1038 60.6515 56.0893 60.647 56.073Z" fill="#1F1F39"/>
<path d="M46.24 39.9485C45.496 39.7835 45.413 39.3715 45.413 39.3715C45.413 39.3715 45.165 39.8665 43.677 39.7015C43.237 39.6402 42.8212 39.4629 42.4725 39.1877C42.1238 38.9124 41.8547 38.5492 41.693 38.1355C41.693 38.1355 39.875 37.8055 39.544 36.8165C39.356 36.3747 39.2712 35.8959 39.296 35.4165C38.6325 34.8553 38.2171 34.055 38.14 33.1895C38.223 32.0355 38.64 31.7895 38.64 31.7895C38.64 31.7895 37.979 31.2125 38.14 30.7175C38.1699 30.5878 38.2311 30.4674 38.3183 30.3668C38.4054 30.2662 38.5159 30.1885 38.64 30.1405C38.64 30.1405 36.901 28.4065 37.479 26.5105C38.057 24.6145 39.461 24.6145 39.461 24.6145C39.3967 24.4056 39.4123 24.1803 39.5047 23.9822C39.597 23.7842 39.7597 23.6274 39.961 23.5425C40.705 23.1305 41.035 23.2125 41.035 23.2125C41.035 23.2125 40.87 21.1515 41.944 20.6565C42.561 20.3609 43.2574 20.2742 43.928 20.4095C43.928 20.4095 43.845 19.2555 44.589 19.1725C44.7886 19.1403 44.9932 19.1619 45.1817 19.2352C45.3701 19.3086 45.5356 19.4308 45.661 19.5895C45.661 19.5895 45.661 19.2595 46.322 19.1775C46.983 19.0955 47.066 19.3425 47.066 19.3425C47.116 18.8778 47.3398 18.4492 47.6925 18.1426C48.0453 17.836 48.5009 17.6742 48.968 17.6895C49.406 17.6443 49.8482 17.7114 50.253 17.8844C50.6579 18.0575 51.012 18.3307 51.282 18.6785C51.4296 18.4507 51.6432 18.2734 51.8943 18.1703C52.1454 18.0672 52.4219 18.0432 52.687 18.1015C52.9534 18.1315 53.2002 18.2563 53.3823 18.4531C53.5644 18.6499 53.6697 18.9055 53.679 19.1735C54.0275 18.8769 54.4506 18.6817 54.9024 18.609C55.3541 18.5364 55.8172 18.5891 56.241 18.7615C57.977 19.2565 58.473 22.3065 58.473 22.3065C58.8302 22.2143 59.2079 22.2432 59.547 22.3885C60.047 22.6355 59.96 23.5425 59.96 23.5425C60.3802 23.5598 60.7856 23.7023 61.1242 23.9518C61.4627 24.2013 61.719 24.5463 61.86 24.9425C62.191 26.2615 61.86 26.7565 61.86 26.7565C62.2791 27.1858 62.5882 27.7101 62.7609 28.2847C62.9336 28.8593 62.9649 29.4672 62.852 30.0565C62.7313 31.0439 62.2975 31.9667 61.614 32.6895C61.7978 33.2518 61.7978 33.8581 61.614 34.4205C61.5359 34.6254 61.4012 34.8039 61.2256 34.9353C61.05 35.0666 60.8407 35.1454 60.622 35.1625C60.622 35.1625 60.87 36.3165 60.291 36.7285C60.1265 36.8489 59.9384 36.9332 59.7389 36.9758C59.5395 37.0184 59.3334 37.0182 59.134 36.9755C58.9243 37.5882 58.5768 38.1447 58.1183 38.602C57.6597 39.0594 57.1023 39.4054 56.489 39.6135C55.1232 39.983 53.6743 39.8981 52.361 39.3715L47.484 40.1135C47.0649 40.0997 46.6482 40.0444 46.24 39.9485Z" fill="#F99A3D"/>
<path d="M43.777 32.1995C44.0062 32.2895 44.223 32.4085 44.422 32.5535C44.6326 31.1814 45.2091 29.8915 46.091 28.8195C46.5192 28.3664 47.0923 28.0772 47.7112 28.002C48.33 27.9267 48.9557 28.0702 49.48 28.4075C50.637 29.3145 51.133 30.7985 51.88 30.3865C52.627 29.9745 53.45 29.1495 54.28 29.8095C54.9 30.3045 55.007 31.8295 55.024 32.5545C55.225 32.4126 55.4414 32.2938 55.669 32.2005C55.9267 32.0954 56.208 32.0615 56.4833 32.1022C56.7586 32.143 57.018 32.257 57.2342 32.4322C57.4504 32.6075 57.6156 32.8376 57.7125 33.0985C57.8094 33.3594 57.8344 33.6416 57.785 33.9155C57.8131 34.2487 57.7567 34.5836 57.6208 34.8892C57.485 35.1948 57.2742 35.4611 57.008 35.6635C56.2498 35.9642 55.4303 36.0774 54.619 35.9935C54.5094 36.4803 54.3373 36.9508 54.107 37.3935C53.6481 38.1493 53.0606 38.819 52.371 39.3725V41.3265L52.553 43.9895C52.3842 44.072 52.2101 44.1435 52.032 44.2035C51.7942 44.2986 51.5477 44.3703 51.296 44.4175C50.7833 44.5327 50.2595 44.5907 49.734 44.5905C49.2081 44.5989 48.6833 44.5408 48.172 44.4175C47.9194 44.3742 47.6724 44.3024 47.436 44.2035C47.2579 44.1435 47.0838 44.072 46.915 43.9895L47.097 41.3265V39.3715C46.4061 38.8187 45.8172 38.1492 45.357 37.3935C45.0978 36.9754 44.9466 36.4995 44.917 36.0085C44.0772 36.1255 43.2214 36.0057 42.446 35.6625C42.1766 35.4623 41.9628 35.1967 41.8247 34.8909C41.6866 34.585 41.6289 34.2489 41.657 33.9145C41.6065 33.64 41.6309 33.3569 41.7277 33.0951C41.8246 32.8332 41.9902 32.6024 42.2072 32.4268C42.4243 32.2513 42.6846 32.1375 42.9609 32.0975C43.2371 32.0575 43.5191 32.0927 43.777 32.1995Z" fill="#DA5742"/>
<path d="M47.0753 41.3333L47.0093 42.3563C47.9318 42.2803 48.8399 42.0808 49.7093 41.7633C50.6527 41.4135 51.5436 40.9361 52.3573 40.3443V39.3713C50.8693 40.2783 47.7283 39.9483 47.0753 39.3633V41.3333Z" fill="#C43D28"/>
<path d="M47.0169 39.42C46.9997 39.4028 46.9894 39.3798 46.988 39.3555C46.9865 39.3312 46.9939 39.3072 47.0089 39.288C47.0169 39.2786 47.0268 39.271 47.0378 39.2655C47.0489 39.26 47.0609 39.2568 47.0732 39.256C47.0855 39.2553 47.0979 39.257 47.1095 39.2611C47.1211 39.2653 47.1318 39.2717 47.1409 39.28C48.0601 39.7434 49.0933 39.9323 50.1169 39.824C50.1289 39.8223 50.1412 39.8231 50.1528 39.8264C50.1645 39.8296 50.1754 39.8353 50.1847 39.8431C50.1941 39.8508 50.2017 39.8604 50.2071 39.8713C50.2126 39.8821 50.2157 39.894 50.2162 39.9061C50.2168 39.9182 50.2148 39.9303 50.2104 39.9416C50.206 39.9529 50.1993 39.9632 50.1907 39.9718C50.1821 39.9803 50.1718 39.987 50.1605 39.9913C50.1491 39.9957 50.137 39.9976 50.1249 39.997C50.002 40.0176 49.8774 40.026 49.7529 40.022C48.802 40.0879 47.8523 39.8789 47.0169 39.42Z" fill="#1F1F39"/>
<path d="M55.1092 32.4877C55.1154 33.1922 55.0517 33.8956 54.9192 34.5877C54.8612 34.9617 54.6552 35.6617 54.5552 36.0247C55.3886 36.1216 56.2328 35.9963 57.0022 35.6617C57.267 35.458 57.4768 35.1915 57.6125 34.8862C57.7481 34.581 57.8054 34.2467 57.7792 33.9137C57.8277 33.64 57.8021 33.3583 57.7049 33.0978C57.6077 32.8374 57.4425 32.6078 57.2265 32.4328C57.0105 32.2579 56.7516 32.144 56.4766 32.103C56.2017 32.062 55.9208 32.0953 55.6632 32.1997C55.4709 32.2803 55.2857 32.3767 55.1092 32.4877Z" fill="#C43D28"/>
<path d="M45.3398 37.3919C45.3478 37.4079 45.3638 37.4329 45.3728 37.4489C45.2898 37.2849 45.2068 37.1199 45.1328 36.9629C45.1908 37.0949 45.2568 37.2349 45.3398 37.3919Z" fill="#C43D28"/>
<path d="M43.7691 32.1988C43.5111 32.0927 43.2294 32.058 42.9535 32.0983C42.6775 32.1386 42.4175 32.2525 42.2007 32.4279C41.9838 32.6033 41.8182 32.8338 41.7212 33.0952C41.6241 33.3567 41.5992 33.6394 41.6491 33.9138C41.6216 34.2472 41.6787 34.5822 41.8153 34.8876C41.9518 35.193 42.1633 35.459 42.4301 35.6608C43.1828 36.0016 44.0161 36.1243 44.8351 36.0148C44.5999 34.8464 44.4234 33.6669 44.3061 32.4808C44.1363 32.3701 43.9565 32.2757 43.7691 32.1988Z" fill="#C43D28"/>
<path d="M44.5052 35.2713C44.4473 34.8697 44.2849 34.4903 44.0342 34.1713C43.6933 33.733 43.2258 33.41 42.6952 33.2463C42.6732 33.2391 42.6545 33.2244 42.6421 33.2049C42.6297 33.1854 42.6244 33.1622 42.6272 33.1393C42.6345 33.117 42.6494 33.0979 42.6693 33.0855C42.6893 33.073 42.7129 33.068 42.7362 33.0713C43.3172 33.2358 43.8264 33.5904 44.1822 34.0783C44.4567 34.4243 44.6298 34.8397 44.6822 35.2783C44.6838 35.2899 44.6829 35.3018 44.6794 35.313C44.6759 35.3243 44.67 35.3346 44.6621 35.3433C44.6541 35.352 44.6444 35.3588 44.6335 35.3633C44.6227 35.3678 44.6109 35.3698 44.5992 35.3693C44.5864 35.3696 44.5737 35.3672 44.5619 35.3624C44.5501 35.3575 44.5394 35.3502 44.5306 35.341C44.5218 35.3318 44.5149 35.3208 44.5106 35.3088C44.5062 35.2968 44.5044 35.284 44.5052 35.2713Z" fill="#1F1F39"/>
<path d="M54.8609 35.2735C54.9171 34.8359 55.0898 34.4215 55.3609 34.0735C55.7218 33.5929 56.2272 33.2407 56.8029 33.0685C56.8146 33.0647 56.827 33.0636 56.8393 33.0652C56.8515 33.0668 56.8632 33.0711 56.8735 33.0778C56.8839 33.0845 56.8926 33.0934 56.899 33.1039C56.9055 33.1144 56.9096 33.1262 56.9109 33.1385C56.9147 33.1498 56.9159 33.1619 56.9145 33.1738C56.9131 33.1857 56.9092 33.1972 56.9029 33.2074C56.8966 33.2176 56.8881 33.2263 56.8781 33.2328C56.8681 33.2394 56.8567 33.2437 56.8449 33.2455C56.3087 33.4015 55.8384 33.7289 55.5059 34.1775C55.2552 34.4965 55.0927 34.8758 55.0349 35.2775C55.0365 35.2891 55.0356 35.301 55.0321 35.3122C55.0286 35.3234 55.0227 35.3338 55.0148 35.3425C55.0068 35.3512 54.9971 35.358 54.9862 35.3625C54.9754 35.367 54.9636 35.369 54.9519 35.3685C54.9396 35.3683 54.9275 35.3658 54.9163 35.3609C54.905 35.356 54.8949 35.349 54.8864 35.3401C54.8779 35.3313 54.8713 35.3208 54.8669 35.3094C54.8625 35.2979 54.8605 35.2857 54.8609 35.2735Z" fill="#1F1F39"/>
<path d="M47.0669 32.5291C47.0669 32.5291 47.1329 31.8691 47.6129 31.8691C48.0929 31.8691 48.1589 32.5291 48.1589 32.5291" fill="white"/>
<path d="M51.2568 32.5291C51.2568 32.5291 51.3228 31.8691 51.8028 31.8691C52.2828 31.8691 52.3488 32.5291 52.3488 32.5291" fill="white"/>
<path d="M49.7119 33.7065C49.6526 33.8465 49.611 33.9933 49.5879 34.1435C49.5755 34.2059 49.5873 34.2706 49.6209 34.3245C49.6209 34.3325 49.6289 34.3325 49.6289 34.3405L49.6459 34.3565C49.6584 34.3666 49.6722 34.3751 49.6869 34.3815C49.7135 34.4009 49.745 34.4124 49.7779 34.4145C49.9279 34.4242 50.0775 34.3895 50.2079 34.3145C50.1564 34.3797 50.0916 34.4332 50.0179 34.4715C49.9397 34.5164 49.8498 34.537 49.7599 34.5305C49.714 34.5255 49.6695 34.5116 49.6289 34.4895C49.6065 34.4808 49.5866 34.4667 49.5709 34.4485L49.5459 34.4235C49.5356 34.4141 49.5271 34.403 49.5209 34.3905C49.4664 34.3111 49.4445 34.2137 49.4599 34.1185C49.4713 34.0326 49.4949 33.9488 49.5299 33.8695C49.5549 33.7975 49.5959 33.7225 49.6289 33.6485C49.703 33.5128 49.7919 33.3857 49.8939 33.2695C49.8269 33.4175 49.7699 33.5695 49.7119 33.7065Z" fill="#1F1F39"/>
<path d="M49.1328 35.6781C49.2305 35.904 49.4002 36.0913 49.6155 36.2106C49.8307 36.33 50.0794 36.3748 50.3228 36.3381C51.0328 36.2381 51.1168 35.4141 51.1168 35.4141" fill="white"/>
<path d="M47.6861 34.3424C47.5282 34.3245 47.3836 34.2455 47.2832 34.1224C47.1829 33.9992 47.1347 33.8417 47.1491 33.6834C47.1344 33.525 47.1825 33.3672 47.2829 33.2439C47.3833 33.1205 47.528 33.0413 47.6861 33.0234C47.8441 33.0413 47.9889 33.1205 48.0892 33.2439C48.1896 33.3672 48.2377 33.525 48.2231 33.6834C48.2374 33.8417 48.1892 33.9992 48.0889 34.1224C47.9885 34.2455 47.8439 34.3245 47.6861 34.3424Z" fill="#1F1F39"/>
<path d="M51.8189 34.3424C51.661 34.3245 51.5164 34.2455 51.4161 34.1224C51.3157 33.9992 51.2675 33.8417 51.2819 33.6834C51.2673 33.525 51.3153 33.3672 51.4157 33.2439C51.5161 33.1205 51.6608 33.0413 51.8189 33.0234C51.9769 33.0413 52.1217 33.1205 52.2221 33.2439C52.3224 33.3672 52.3705 33.525 52.3559 33.6834C52.3702 33.8417 52.322 33.9992 52.2217 34.1224C52.1213 34.2455 51.9767 34.3245 51.8189 34.3424Z" fill="#1F1F39"/>
<path d="M54.5967 35.1845C54.5587 35.6289 53.9011 35.9359 53.1279 35.8698C52.3547 35.8036 51.7589 35.3893 51.7969 34.9449C51.8349 34.5006 52.4925 34.1935 53.2657 34.2596C54.0388 34.3258 54.6347 34.7401 54.5967 35.1845Z" fill="#C43D28"/>
<path d="M47.9006 35.1841C47.8627 35.6283 47.2055 35.9354 46.4326 35.8694C45.6597 35.8035 45.064 35.3894 45.1019 34.9452C45.1398 34.501 45.797 34.1939 46.5699 34.2599C47.3428 34.3258 47.9386 34.7399 47.9006 35.1841Z" fill="#C43D28"/>
<path d="M23.6692 39.7992C20.8932 41.2352 19.7552 45.2452 18.3632 47.3902C17.6312 48.7598 16.5946 49.9432 15.3332 50.8492C14.6113 51.327 13.7731 51.5994 12.9082 51.6372C12.9082 51.6372 15.3082 57.6612 24.5532 58.7212C33.7982 59.7812 38.7532 56.6552 40.6292 55.3762C41.8366 54.5025 42.8352 53.3721 43.5532 52.0662C43.5532 52.0662 39.2012 51.1032 37.9672 47.1012C36.7332 43.0992 34.9912 40.2722 32.2942 39.8252C30.9436 39.4915 29.5189 39.64 28.2662 40.2452C27.6506 39.6848 26.8703 39.3387 26.0418 39.2583C25.2133 39.1779 24.381 39.3676 23.6692 39.7992Z" fill="#1F1F39"/>
<path d="M36.9702 71.8457L39.5532 78.7457C41.798 77.6843 43.8868 76.3202 45.7612 74.6917C45.3062 73.3607 44.9122 72.3537 44.9122 72.3537L36.9702 71.8457Z" fill="#F9D2DD"/>
<path d="M16.6822 78.8771L19.3792 71.6621L11.4372 72.1701C11.4292 72.1791 10.9562 73.3961 10.4482 74.9191C12.335 76.5179 14.4327 77.8497 16.6822 78.8771Z" fill="#F9D2DD"/>
<path d="M36.9702 71.8457L37.8632 74.1927L45.7432 74.6827C45.3142 73.4457 44.9122 72.3537 44.9122 72.3537L36.9702 71.8457Z" fill="#F9ACC0"/>
<path d="M19.462 71.4082L18.562 73.7552L10.562 74.5342C10.991 73.3082 11.516 71.9162 11.516 71.9162L19.462 71.4082Z" fill="#F9ACC0"/>
<path d="M19.134 61.0404C15.667 62.6074 11.857 67.4714 10.457 73.1844H16.657L15.632 78.3714C19.4479 80.32 23.6724 81.3332 27.957 81.3274C32.262 81.3331 36.5063 80.3126 40.338 78.3504L39.257 73.8584L45.526 73.2984C45.526 73.3074 44.081 65.2514 37.479 61.4424C32.189 58.3874 24.02 58.8424 19.134 61.0404Z" fill="#3D5CFF"/>
<path d="M18.3462 67.3184L14.6602 73.1934L16.7532 73.1844L18.3462 67.3184Z" fill="#224BF4"/>
<path d="M39.2642 73.86L41.1292 73.702L36.9702 66.584L39.2642 73.86Z" fill="#224BF4"/>
<path d="M16.7353 73.2822C16.7135 73.2758 16.6949 73.2615 16.6832 73.242C16.6716 73.2226 16.6677 73.1994 16.6723 73.1772L18.4253 66.6802C18.4317 66.6584 18.446 66.6397 18.4655 66.6281C18.485 66.6164 18.5081 66.6125 18.5303 66.6172C18.5518 66.6239 18.5699 66.6384 18.5812 66.6578C18.5925 66.6773 18.5961 66.7002 18.5913 66.7222L16.8403 73.2172C16.8354 73.2344 16.8251 73.2497 16.8109 73.2607C16.7967 73.2717 16.7793 73.2778 16.7613 73.2782L16.7353 73.2822Z" fill="#1F1F39"/>
<path d="M39.0984 73.8611L36.8564 66.5851C36.8526 66.5747 36.851 66.5636 36.8517 66.5525C36.8524 66.5415 36.8553 66.5307 36.8602 66.5208C36.8652 66.5109 36.8721 66.5021 36.8805 66.4949C36.889 66.4877 36.8988 66.4824 36.9094 66.4791C36.9197 66.4755 36.9307 66.4741 36.9417 66.4748C36.9526 66.4755 36.9633 66.4785 36.9731 66.4834C36.9829 66.4883 36.9916 66.4952 36.9986 66.5036C37.0057 66.5119 37.0111 66.5216 37.0144 66.5321L39.2514 73.8081C39.2549 73.8185 39.2564 73.8294 39.2557 73.8404C39.2549 73.8513 39.252 73.862 39.2471 73.8718C39.2421 73.8816 39.2353 73.8903 39.2269 73.8974C39.2185 73.9045 39.2088 73.9098 39.1984 73.9131C39.1894 73.9131 39.1814 73.9221 39.1724 73.9221C39.1553 73.9207 39.139 73.9141 39.1258 73.9032C39.1126 73.8923 39.103 73.8776 39.0984 73.8611Z" fill="#1F1F39"/>
<path d="M34.6853 48.2399C34.4425 48.3359 34.213 48.4626 34.0023 48.6169C34.0002 48.1342 33.9738 47.652 33.9233 47.1719L32.1893 47.1539L32.0843 46.1119L31.8743 47.1539L29.2213 47.1279L29.1073 46.1119L28.9233 47.1189L24.5483 47.0749L24.3703 45.2539L24.1253 47.0749L22.7943 47.0659C22.7943 47.0659 22.7773 47.7929 22.7773 48.6069C22.5646 48.4562 22.3354 48.3301 22.0943 48.2309C21.8205 48.1183 21.5214 48.0816 21.2285 48.1246C20.9356 48.1676 20.6597 48.2887 20.4299 48.4753C20.2 48.6619 20.0247 48.907 19.9223 49.1848C19.82 49.4626 19.7944 49.7628 19.8483 50.0539C19.8192 50.4077 19.8797 50.7631 20.0242 51.0873C20.1687 51.4116 20.3927 51.6941 20.6753 51.9089C21.4632 52.2806 22.3442 52.4088 23.2053 52.2769C23.2974 52.797 23.4845 53.2956 23.7573 53.7479C24.2434 54.5497 24.8657 55.2603 25.5963 55.8479V57.9239L25.4033 60.7539C25.5822 60.8418 25.7666 60.918 25.9553 60.9819C26.2069 61.0831 26.4678 61.1595 26.7343 61.2099C27.2775 61.3324 27.8325 61.3941 28.3893 61.3939C28.9465 61.4028 29.5027 61.341 30.0443 61.2099C30.3118 61.1637 30.5731 61.0872 30.8233 60.9819C31.0121 60.918 31.1965 60.8418 31.3753 60.7539L31.1823 57.9259V55.8539C31.9129 55.2663 32.5353 54.5557 33.0213 53.7539C33.2702 53.285 33.4529 52.7839 33.5643 52.2649C34.4235 52.3541 35.2916 52.234 36.0943 51.9149C36.3789 51.7013 36.6045 51.419 36.75 51.0944C36.8955 50.7697 36.9562 50.4134 36.9263 50.0589C36.9792 49.7686 36.953 49.4695 36.8507 49.1928C36.7483 48.9161 36.5734 48.672 36.3443 48.486C36.1152 48.3001 35.8404 48.1791 35.5485 48.1358C35.2566 48.0925 34.9585 48.1285 34.6853 48.2399Z" fill="#F9D2DD"/>
<path d="M22.1021 48.2404C21.8285 48.1282 21.5298 48.0917 21.2373 48.1347C20.9447 48.1778 20.6692 48.2988 20.4395 48.4851C20.2099 48.6713 20.0346 48.916 19.9322 49.1934C19.8297 49.4707 19.8038 49.7706 19.8571 50.0614C19.8281 50.415 19.8887 50.7702 20.0332 51.0943C20.1778 51.4183 20.4016 51.7007 20.6841 51.9154C21.4675 52.2823 22.3406 52.4132 23.1971 52.2924C23.1971 52.2924 23.0221 51.3154 22.8911 50.3424C22.8162 49.7698 22.7808 49.1928 22.7851 48.6154C22.5723 48.4651 22.3432 48.3393 22.1021 48.2404Z" fill="#F9ACC0"/>
<path d="M34.0103 48.614C34.0115 49.1613 33.9852 49.7083 33.9313 50.253C33.8183 51.251 33.5903 52.267 33.5903 52.267C34.4472 52.3543 35.3124 52.2332 36.1123 51.914C36.3929 51.6974 36.6151 51.4143 36.7588 51.0902C36.9025 50.7662 36.9632 50.4114 36.9353 50.058C36.9876 49.7675 36.9609 49.4682 36.858 49.1915C36.7551 48.9148 36.5798 48.6708 36.3505 48.485C36.1211 48.2991 35.846 48.1783 35.554 48.135C35.262 48.0917 34.9637 48.1277 34.6903 48.239C34.4487 48.3346 34.2202 48.4606 34.0103 48.614Z" fill="#F9ACC0"/>
<path d="M22.6981 51.5051C22.6306 51.0216 22.4406 50.5634 22.1461 50.1741C21.7537 49.6383 21.1972 49.245 20.5611 49.0541C20.5338 49.046 20.5104 49.0279 20.4957 49.0035C20.4809 48.9791 20.4757 48.9501 20.4811 48.9221C20.4893 48.8946 20.5074 48.8711 20.5321 48.8563C20.5567 48.8415 20.5859 48.8364 20.6141 48.8421C21.3027 49.0475 21.9033 49.4764 22.3211 50.0611C22.6442 50.4806 22.8471 50.9801 22.9081 51.5061C22.9081 51.534 22.897 51.5607 22.8773 51.5804C22.8576 51.6001 22.8309 51.6111 22.8031 51.6111C22.7752 51.6111 22.7485 51.6001 22.7288 51.5804C22.7092 51.5607 22.6981 51.534 22.6981 51.5061V51.5051Z" fill="#1F1F39"/>
<path d="M34.1245 51.3822C34.0979 51.3692 34.0775 51.3463 34.0676 51.3185C34.0577 51.2906 34.0591 51.26 34.0715 51.2332C34.3607 50.663 34.7275 50.1357 35.1615 49.6662C35.4562 49.3059 35.8507 49.0405 36.2955 48.9032C36.3094 48.8998 36.3239 48.8995 36.338 48.9022C36.3521 48.905 36.3654 48.9107 36.3771 48.9191C36.3888 48.9274 36.3985 48.9382 36.4056 48.9506C36.4128 48.9631 36.4172 48.9769 36.4185 48.9912C36.4218 49.0051 36.4222 49.0196 36.4194 49.0337C36.4167 49.0478 36.4109 49.0611 36.4026 49.0728C36.3942 49.0845 36.3835 49.0942 36.371 49.1013C36.3586 49.1085 36.3448 49.1129 36.3305 49.1142C35.9334 49.2487 35.5816 49.491 35.3145 49.8142C34.8951 50.2651 34.5406 50.7723 34.2615 51.3212C34.2534 51.3413 34.2396 51.3586 34.2219 51.371C34.2041 51.3834 34.1831 51.3904 34.1615 51.3912C34.1485 51.3919 34.1357 51.3887 34.1245 51.3822Z" fill="#1F1F39"/>
<path d="M32.0492 52.4151C31.2802 52.4151 30.6572 52.0231 30.6572 51.5401C30.6572 51.0571 31.2802 50.6641 32.0492 50.6641C32.8182 50.6641 33.4412 51.0561 33.4412 51.5401C33.4412 52.0241 32.8182 52.4151 32.0492 52.4151Z" fill="#F9ACC0"/>
<path d="M24.6855 52.4151C23.9165 52.4151 23.2935 52.0231 23.2935 51.5401C23.2935 51.0571 23.9165 50.6641 24.6855 50.6641C25.4545 50.6641 26.0775 51.0561 26.0775 51.5401C26.0775 52.0241 25.4545 52.4151 24.6855 52.4151Z" fill="#F9ACC0"/>
<path d="M26.6553 56.2102C26.2903 56.1587 25.9341 56.0577 25.5963 55.9102V57.9332L25.5083 59.1932C25.7787 59.1725 26.0445 59.1108 26.2963 59.0102C27.846 58.2786 29.2681 57.3028 30.5083 56.1202C29.2292 56.264 27.9398 56.2941 26.6553 56.2102Z" fill="#F9ACC0"/>
<path d="M24.9754 47.9331C25.1251 47.8268 25.3094 47.7811 25.4914 47.8051C25.672 47.8184 25.8453 47.8821 25.9914 47.9891C26.0638 48.0432 26.1219 48.1142 26.1604 48.196C26.1989 48.2778 26.2168 48.3678 26.2124 48.4581C26.1548 48.3129 26.0488 48.1921 25.9124 48.1161C25.7782 48.0492 25.6327 48.0078 25.4834 47.9941C25.3376 47.9785 25.1901 47.9995 25.0544 48.0551C24.9148 48.1283 24.7968 48.2369 24.7124 48.3701C24.7233 48.2829 24.7523 48.199 24.7976 48.1237C24.8429 48.0485 24.9035 47.9835 24.9754 47.9331Z" fill="#1F1F39"/>
<path d="M30.8413 48.055C30.9985 47.9684 31.1814 47.9404 31.3573 47.976C31.4458 47.9875 31.5311 48.0163 31.6083 48.061C31.6864 48.1049 31.7545 48.1644 31.8083 48.236C31.9217 48.369 31.9854 48.5372 31.9883 48.712C31.9197 48.5723 31.8246 48.4473 31.7083 48.344C31.6575 48.295 31.5978 48.2563 31.5323 48.23C31.4973 48.221 31.4713 48.204 31.4363 48.195L31.3313 48.169C31.1883 48.1426 31.0411 48.1516 30.9023 48.195C30.7516 48.2354 30.6151 48.3172 30.5083 48.431C30.5661 48.2671 30.6855 48.1321 30.8413 48.055Z" fill="#1F1F39"/>
<path d="M28.4244 50.0519C28.3311 50.255 28.2661 50.47 28.2314 50.6909C28.224 50.7432 28.221 50.796 28.2224 50.8489C28.226 50.8993 28.2347 50.9492 28.2484 50.9979C28.2723 51.0894 28.3288 51.1691 28.4074 51.2219C28.4987 51.2779 28.601 51.3137 28.7074 51.3269C28.82 51.3459 28.9344 51.352 29.0484 51.3449C28.9372 51.3933 28.8176 51.4195 28.6964 51.4219C28.5692 51.4252 28.443 51.3981 28.3284 51.3429C28.2066 51.2785 28.1153 51.1684 28.0744 51.0369C28.0539 50.9731 28.0421 50.9068 28.0394 50.8399C28.038 50.7754 28.041 50.7109 28.0484 50.6469C28.0891 50.4097 28.1721 50.1817 28.2934 49.9739C28.4067 49.7733 28.5447 49.5879 28.7044 49.4219C28.6084 49.6319 28.5124 49.8419 28.4244 50.0519Z" fill="#1F1F39"/>
<path d="M26.2156 50.0717C26.2104 50.2532 26.1343 50.4253 26.0037 50.5513C25.873 50.6773 25.6982 50.7471 25.5167 50.7458C25.3401 50.7039 25.187 50.5944 25.0901 50.4409C24.9932 50.2874 24.9603 50.1021 24.9985 49.9247C25.0037 49.7432 25.0798 49.5711 25.2105 49.4451C25.3411 49.3191 25.5159 49.2493 25.6974 49.2506C25.874 49.2926 26.0272 49.402 26.124 49.5555C26.2209 49.709 26.2538 49.8943 26.2156 50.0717Z" fill="#1F1F39"/>
<path d="M31.827 50.187C31.8217 50.3684 31.7457 50.5406 31.615 50.6666C31.4844 50.7926 31.3096 50.8624 31.1281 50.861C30.9515 50.8191 30.7983 50.7097 30.7014 50.5562C30.6046 50.4027 30.5717 50.2173 30.6098 50.0399C30.615 49.8585 30.6911 49.6863 30.8218 49.5603C30.9524 49.4343 31.1272 49.3645 31.3087 49.3659C31.4853 49.4078 31.6385 49.5172 31.7354 49.6707C31.8322 49.8242 31.8651 50.0095 31.827 50.187Z" fill="#1F1F39"/>
<path d="M28.2051 52.1798H29.0111C29.1771 52.1798 29.3701 52.1798 29.6331 52.1888C29.626 52.3134 29.5867 52.4339 29.5191 52.5388C29.4574 52.6426 29.3775 52.7345 29.2831 52.8098C29.087 52.9677 28.8429 53.0541 28.5911 53.0548C28.4594 53.0537 28.3288 53.03 28.2051 52.9848C28.0821 52.9405 27.9689 52.8726 27.8721 52.7848C27.7772 52.6966 27.7028 52.5888 27.6541 52.4688C27.61 52.3481 27.601 52.2174 27.6281 52.0918C27.8172 52.1393 28.0104 52.1687 28.2051 52.1798Z" fill="#DA5742"/>
<path d="M25.184 55.8218C25.1657 55.8036 25.1547 55.7793 25.1531 55.7535C25.1514 55.7277 25.1592 55.7022 25.175 55.6818C25.1925 55.6622 25.217 55.6503 25.2432 55.6486C25.2694 55.647 25.2952 55.6556 25.315 55.6728C26.2888 56.164 27.3836 56.3636 28.468 56.2478C28.4924 56.2466 28.5163 56.2552 28.5344 56.2716C28.5525 56.288 28.5633 56.3109 28.5645 56.3353C28.5657 56.3597 28.5572 56.3836 28.5408 56.4017C28.5244 56.4198 28.5014 56.4306 28.477 56.4318C28.3469 56.4535 28.2149 56.4622 28.083 56.4578C27.0756 56.5289 26.0691 56.3081 25.184 55.8218Z" fill="#1F1F39"/>
<path opacity="0.55" d="M35.3063 64.8576C34.8045 64.6128 34.383 64.2298 34.0914 63.7536C33.7998 63.2774 33.6502 62.7279 33.6603 62.1696C33.586 61.4352 33.6007 60.6945 33.7043 59.9636C33.7126 59.9178 33.738 59.8769 33.7753 59.849C33.8126 59.8212 33.859 59.8085 33.9053 59.8136C33.9507 59.8221 33.9913 59.8474 34.0189 59.8845C34.0465 59.9215 34.0591 59.9676 34.0543 60.0136C33.9566 60.7165 33.9435 61.4286 34.0153 62.1346C34.0045 62.6292 34.1335 63.1169 34.3875 63.5415C34.6416 63.9661 35.0103 64.3103 35.4513 64.5346C36.6153 65.0416 38.4943 64.5866 40.0083 63.4216C40.0267 63.4078 40.0476 63.3978 40.0699 63.3921C40.0921 63.3864 40.1153 63.3851 40.1381 63.3883C40.1608 63.3916 40.1827 63.3993 40.2025 63.411C40.2222 63.4227 40.2395 63.4382 40.2533 63.4566C40.2671 63.475 40.2771 63.4959 40.2828 63.5182C40.2885 63.5404 40.2898 63.5636 40.2865 63.5863C40.2833 63.6091 40.2756 63.631 40.2639 63.6507C40.2522 63.6705 40.2367 63.6878 40.2183 63.7016C39.1853 64.5508 37.9035 65.0399 36.5673 65.0946C36.1352 65.1022 35.7061 65.0216 35.3063 64.8576Z" fill="#EAEAFF"/>
<path opacity="0.55" d="M44.1241 70.1206L43.9141 70.0206C40.4461 68.4136 37.1721 66.8896 36.5611 63.1426C36.4366 62.4362 36.4298 61.7141 36.5411 61.0056C36.5445 60.9827 36.5524 60.9607 36.5645 60.941C36.5766 60.9212 36.5926 60.9042 36.6115 60.8908C36.6304 60.8774 36.6518 60.868 36.6744 60.8632C36.697 60.8583 36.7204 60.8581 36.7431 60.8626C36.7655 60.8663 36.787 60.8745 36.8062 60.8866C36.8254 60.8987 36.8421 60.9145 36.8551 60.9332C36.8681 60.9518 36.8773 60.9728 36.8821 60.995C36.8869 61.0173 36.8873 61.0402 36.8831 61.0626C36.7779 61.7349 36.7867 62.4201 36.9091 63.0896C37.4961 66.6536 40.6831 68.1416 44.0711 69.7096L44.2811 69.8096C44.3225 69.8309 44.3545 69.8669 44.3708 69.9105C44.3871 69.9542 44.3865 70.0023 44.3691 70.0456C44.3257 70.1 44.2631 70.1358 44.1941 70.1456C44.1692 70.1427 44.1452 70.1341 44.1241 70.1206Z" fill="#EAEAFF"/>
<path opacity="0.55" d="M39.5002 78.7275L39.1692 78.6275C39.3464 77.9759 39.3747 77.2927 39.2519 76.6287C39.1292 75.9646 38.8586 75.3367 38.4602 74.7915C37.1885 73.1791 35.4269 72.024 33.4412 71.5005C32.3153 71.1259 31.1377 70.9299 29.9512 70.9195C29.1555 70.9149 28.3633 71.0233 27.5982 71.2415C26.9463 71.427 26.3324 71.7266 25.7852 72.1265C26.4162 72.1885 27.0852 72.2345 27.6752 72.2745C31.0752 72.5205 34.2942 72.7515 35.0582 75.0425C35.2271 75.4683 35.2601 75.9359 35.1527 76.3812C35.0452 76.8265 34.8026 77.2276 34.4582 77.5295C33.5625 78.2204 32.4536 78.5766 31.3232 78.5365H31.1752C29.6822 78.5073 28.2119 78.1667 26.8582 77.5365C25.8891 77.1646 25.064 76.493 24.5032 75.6195C24.3058 75.29 24.1874 74.9194 24.157 74.5365C24.1267 74.1537 24.1852 73.769 24.3282 73.4125C24.4776 73.0333 24.6975 72.6859 24.9762 72.3885C23.3352 72.1885 21.3042 71.7935 20.1602 70.5885C19.8013 70.2005 19.5383 69.7338 19.3923 69.2259C19.2462 68.718 19.2212 68.1829 19.3192 67.6635C18.552 67.644 17.7864 67.5856 17.0252 67.4885C15.7656 67.363 14.5472 66.9707 13.4512 66.3375L13.6272 66.0315C14.6788 66.6406 15.8494 67.0158 17.0592 67.1315C17.8291 67.2286 18.6034 67.287 19.3792 67.3065C19.6932 66.0647 20.3273 64.9269 21.2182 64.0065C22.0226 63.1052 23.0531 62.4352 24.2032 62.0655C24.5616 61.9589 24.9332 61.9034 25.3072 61.9005C26.0391 61.894 26.749 62.151 27.3072 62.6245C27.584 62.8397 27.7783 63.1438 27.8572 63.4855C27.936 63.8272 27.8947 64.1857 27.7402 64.5005C27.368 65.1176 26.8766 65.6543 26.2948 66.0795C25.7129 66.5046 25.0522 66.8095 24.3512 66.9765C22.8487 67.455 21.2789 67.6887 19.7022 67.6685H19.6762C19.5775 68.1407 19.5919 68.6296 19.7183 69.0952C19.8446 69.5608 20.0793 69.9899 20.4032 70.3475C21.5212 71.5225 23.6032 71.8905 25.2882 72.0805C26.6185 71.0456 28.272 70.5143 29.9562 70.5805C31.1797 70.5897 32.3943 70.7897 33.5562 71.1735C35.6115 71.727 37.4335 72.9288 38.7512 74.6005C39.173 75.1898 39.4587 75.8655 39.5875 76.5787C39.7164 77.2919 39.6852 78.0248 39.4962 78.7245L39.5002 78.7275ZM25.4002 72.4405C25.0673 72.7434 24.8069 73.1173 24.6382 73.5345C24.1042 74.9265 24.9852 76.3045 26.9942 77.2205C28.3281 77.8327 29.7738 78.1636 31.2412 78.1925C32.3094 78.2606 33.3654 77.9335 34.2082 77.2735C34.5038 77.0175 34.7117 76.6754 34.8028 76.2951C34.8939 75.9149 34.8636 75.5156 34.7162 75.1535C34.0232 73.0815 30.9232 72.8595 27.6412 72.6235C26.8722 72.5785 26.1182 72.5165 25.4002 72.4395V72.4405ZM25.2362 62.2655C24.5012 62.3135 23.7844 62.5153 23.1324 62.858C22.4804 63.2006 21.9076 63.6764 21.4512 64.2545C20.6268 65.1134 20.0342 66.1677 19.7292 67.3185C21.2529 67.3394 22.7697 67.1117 24.2202 66.6445C25.5362 66.3241 26.6761 65.5048 27.3992 64.3595C27.5248 64.1161 27.5604 63.8362 27.4994 63.5691C27.4385 63.3021 27.285 63.0652 27.0662 62.9005C26.5507 62.4787 25.9021 62.2537 25.2362 62.2655Z" fill="#EAEAFF"/>
<path d="M75.0901 48.449C74.8551 48.2958 74.585 48.205 74.3051 48.185C74.0062 48.1405 73.7007 48.1865 73.4281 48.317C73.3993 48.3329 73.3655 48.3374 73.3335 48.3296C73.3015 48.3218 73.2735 48.3024 73.2551 48.275C73.239 48.2478 73.2342 48.2153 73.2419 48.1846C73.2495 48.1539 73.2691 48.1274 73.2961 48.111C73.6157 47.9522 73.976 47.8946 74.3291 47.946C74.658 47.97 74.9745 48.0812 75.2461 48.268C75.2702 48.2894 75.2854 48.3191 75.2885 48.3512C75.2917 48.3833 75.2826 48.4153 75.2631 48.441C75.2381 48.4632 75.2056 48.475 75.1721 48.474C75.143 48.4733 75.1147 48.4647 75.0901 48.449Z" fill="#1F1F39"/>
<path d="M68.5758 48.4323C68.5563 48.4066 68.5473 48.3746 68.5504 48.3425C68.5536 48.3104 68.5687 48.2807 68.5928 48.2593C68.8635 48.0707 69.1806 47.9597 69.5098 47.9383C69.8632 47.8867 70.224 47.9443 70.5438 48.1033C70.5717 48.1212 70.5916 48.1493 70.5992 48.1816C70.6069 48.2138 70.6017 48.2478 70.5848 48.2763C70.5669 48.3045 70.5386 48.3246 70.5061 48.3322C70.4736 48.3399 70.4394 48.3345 70.4108 48.3173C70.1381 48.1883 69.8334 48.1423 69.5348 48.1853C69.255 48.2053 68.9848 48.2961 68.7498 48.4493C68.7282 48.4648 68.7024 48.4735 68.6758 48.4743C68.6384 48.473 68.6029 48.4581 68.5758 48.4323Z" fill="#1F1F39"/>
<path d="M79.7021 72.4805L82.1401 78.9805C84.2594 77.9804 86.2318 76.6948 88.0021 75.1595C87.5721 73.9065 87.2021 72.9595 87.2021 72.9595L79.7021 72.4805Z" fill="#F9D2DD"/>
<path d="M60.551 79.0996L63.097 72.3066L55.6 72.7846C55.592 72.7926 55.145 73.9386 54.666 75.3736C56.4479 76.8792 58.428 78.1329 60.551 79.0996Z" fill="#F9D2DD"/>
<path d="M79.7021 72.4805L80.5451 74.6895L87.9841 75.1515C87.5791 73.9895 87.2021 72.9585 87.2021 72.9585L79.7021 72.4805Z" fill="#F9ACC0"/>
<path d="M63.1729 72.0684L62.3279 74.2774L54.7729 75.0114C55.1779 73.8574 55.6729 72.5464 55.6729 72.5464L63.1729 72.0684Z" fill="#F9ACC0"/>
<path d="M62.8648 62.306C59.5918 63.782 55.9958 68.366 54.6738 73.741H60.5258L59.5588 78.621C63.1629 80.4579 67.1516 81.4131 71.1968 81.408C75.2594 81.4145 79.2653 80.4547 82.8838 78.608L81.8588 74.379L87.7768 73.851C87.7768 73.859 86.4128 66.275 80.1768 62.688C75.1888 59.808 67.4738 60.241 62.8648 62.306Z" fill="#3D5CFF"/>
<path d="M62.1221 68.2188L58.6421 73.7508L60.6171 73.7428L62.1221 68.2188Z" fill="#224BF4"/>
<path d="M81.8681 74.3764L83.6281 74.2254L79.7021 67.5254L81.8681 74.3764Z" fill="#224BF4"/>
<g opacity="0.451">
<g opacity="0.451">
<path opacity="0.451" d="M68.6007 73.3783C68.3726 73.3777 68.1498 73.3095 67.9604 73.1824C67.771 73.0552 67.6236 72.8748 67.5367 72.6639C67.4498 72.4529 67.4274 72.221 67.4722 71.9973C67.5171 71.7737 67.6273 71.5683 67.7888 71.4073C67.9503 71.2462 68.1559 71.1366 68.3797 71.0923C68.6034 71.048 68.8353 71.071 69.046 71.1584C69.2567 71.2459 69.4368 71.3938 69.5634 71.5835C69.6901 71.7732 69.7577 71.9962 69.7577 72.2243C69.7572 72.5307 69.635 72.8244 69.4181 73.0408C69.2011 73.2572 68.9071 73.3786 68.6007 73.3783Z" fill="#F9EDC7"/>
<path opacity="0.451" d="M74.0148 71.1928C73.7867 71.1922 73.5638 71.124 73.3745 70.9968C73.1851 70.8697 73.0376 70.6892 72.9508 70.4783C72.8639 70.2674 72.8414 70.0355 72.8863 69.8118C72.9312 69.5881 73.0413 69.3828 73.2028 69.2217C73.3643 69.0606 73.57 68.951 73.7937 68.9067C74.0175 68.8624 74.2494 68.8855 74.4601 68.9729C74.6708 69.0603 74.8508 69.2082 74.9775 69.3979C75.1042 69.5877 75.1718 69.8107 75.1718 70.0388C75.1712 70.3452 75.0491 70.6389 74.8321 70.8552C74.6152 71.0716 74.3212 71.193 74.0148 71.1928Z" fill="#F9EDC7"/>
<path opacity="0.451" d="M64.5929 67.3178C64.3648 67.3172 64.142 67.249 63.9526 67.1218C63.7632 66.9947 63.6158 66.8142 63.5289 66.6033C63.442 66.3924 63.4196 66.1605 63.4644 65.9368C63.5093 65.7131 63.6194 65.5078 63.781 65.3467C63.9425 65.1856 64.1481 65.076 64.3719 65.0317C64.5956 64.9874 64.8275 65.0105 65.0382 65.0979C65.2489 65.1853 65.4289 65.3332 65.5556 65.5229C65.6823 65.7127 65.7499 65.9357 65.7499 66.1638C65.7494 66.4702 65.6272 66.7639 65.4103 66.9802C65.1933 67.1966 64.8993 67.318 64.5929 67.3178Z" fill="#F9EDC7"/>
<path opacity="0.451" d="M64.5929 78.6967C64.3648 78.6961 64.142 78.6279 63.9526 78.5007C63.7632 78.3736 63.6158 78.1931 63.5289 77.9822C63.442 77.7713 63.4196 77.5394 63.4644 77.3157C63.5093 77.092 63.6194 76.8867 63.781 76.7256C63.9425 76.5645 64.1481 76.4549 64.3719 76.4106C64.5956 76.3663 64.8275 76.3894 65.0382 76.4768C65.2489 76.5642 65.4289 76.7121 65.5556 76.9019C65.6823 77.0916 65.7499 77.3146 65.7499 77.5427C65.7494 77.8491 65.6272 78.1428 65.4103 78.3591C65.1933 78.5755 64.8993 78.6969 64.5929 78.6967Z" fill="#F9EDC7"/>
<path opacity="0.451" d="M74.7589 79.849C74.5308 79.8484 74.308 79.7802 74.1186 79.6531C73.9292 79.5259 73.7818 79.3455 73.6949 79.1346C73.608 78.9236 73.5856 78.6917 73.6305 78.468C73.6753 78.2444 73.7855 78.039 73.947 77.878C74.1085 77.7169 74.3141 77.6073 74.5379 77.563C74.7616 77.5187 74.9935 77.5417 75.2042 77.6291C75.4149 77.7166 75.595 77.8645 75.7216 78.0542C75.8483 78.2439 75.9159 78.4669 75.9159 78.695C75.9154 79.0014 75.7932 79.2951 75.5763 79.5115C75.3593 79.7279 75.0653 79.8493 74.7589 79.849Z" fill="#F9EDC7"/>
<path opacity="0.451" d="M84.0157 74.9857C83.7876 74.9851 83.5648 74.917 83.3754 74.7898C83.1861 74.6626 83.0386 74.4822 82.9517 74.2713C82.8648 74.0604 82.8424 73.8284 82.8873 73.6048C82.9322 73.3811 83.0423 73.1758 83.2038 73.0147C83.3653 72.8536 83.5709 72.744 83.7947 72.6997C84.0185 72.6554 84.2504 72.6784 84.4611 72.7659C84.6717 72.8533 84.8518 73.0012 84.9785 73.1909C85.1051 73.3806 85.1727 73.6036 85.1727 73.8317C85.1722 74.1381 85.0501 74.4318 84.8331 74.6482C84.6162 74.8646 84.3222 74.986 84.0157 74.9857Z" fill="#F9EDC7"/>
<path opacity="0.451" d="M56.9059 70.6166C56.6778 70.616 56.455 70.5478 56.2656 70.4206C56.0762 70.2935 55.9288 70.113 55.8419 69.9021C55.755 69.6912 55.7326 69.4593 55.7774 69.2356C55.8223 69.012 55.9324 68.8066 56.0939 68.6455C56.2555 68.4844 56.4611 68.3748 56.6849 68.3305C56.9086 68.2863 57.1405 68.3093 57.3512 68.3967C57.5619 68.4842 57.7419 68.6321 57.8686 68.8218C57.9953 69.0115 58.0629 69.2345 58.0629 69.4626C58.0624 69.769 57.9402 70.0627 57.7232 70.2791C57.5063 70.4955 57.2123 70.6169 56.9059 70.6166Z" fill="#F9EDC7"/>
<path opacity="0.451" d="M84.4288 68.226C84.2007 68.2254 83.9779 68.1572 83.7885 68.03C83.5991 67.9029 83.4517 67.7224 83.3648 67.5115C83.2779 67.3006 83.2555 67.0687 83.3004 66.845C83.3452 66.6213 83.4554 66.416 83.6169 66.2549C83.7784 66.0938 83.984 65.9842 84.2078 65.9399C84.4316 65.8956 84.6634 65.9187 84.8741 66.0061C85.0848 66.0935 85.2649 66.2414 85.3916 66.4312C85.5182 66.6209 85.5858 66.8439 85.5858 67.072C85.5853 67.3784 85.4631 67.6721 85.2462 67.8884C85.0292 68.1048 84.7352 68.2262 84.4288 68.226Z" fill="#F9EDC7"/>
<path opacity="0.451" d="M77.3209 63.2787C77.0928 63.2781 76.87 63.2099 76.6806 63.0828C76.4912 62.9556 76.3438 62.7752 76.2569 62.5642C76.17 62.3533 76.1476 62.1214 76.1925 61.8977C76.2373 61.6741 76.3475 61.4687 76.509 61.3076C76.6705 61.1466 76.8761 61.0369 77.0999 60.9927C77.3237 60.9484 77.5555 60.9714 77.7662 61.0588C77.9769 61.1463 78.157 61.2942 78.2836 61.4839C78.4103 61.6736 78.4779 61.8966 78.4779 62.1247C78.4774 62.4311 78.3552 62.7248 78.1383 62.9412C77.9213 63.1576 77.6273 63.279 77.3209 63.2787Z" fill="#F9EDC7"/>
</g>
</g>
<path d="M60.5999 73.8315C60.5794 73.8254 60.562 73.8119 60.551 73.7935C60.5401 73.7752 60.5365 73.7534 60.5409 73.7325L62.1959 67.6155C62.202 67.595 62.2155 67.5776 62.2339 67.5667C62.2522 67.5557 62.274 67.5521 62.2949 67.5565C62.3154 67.5628 62.3327 67.5766 62.3435 67.5951C62.3543 67.6137 62.3576 67.6356 62.3529 67.6565L60.6999 73.7745C60.6954 73.7908 60.6858 73.8053 60.6725 73.8157C60.6591 73.8262 60.6428 73.832 60.6259 73.8325L60.5999 73.8315Z" fill="#1F1F39"/>
<path d="M81.71 74.3758L79.594 67.5208C79.5904 67.5109 79.5889 67.5005 79.5895 67.49C79.5901 67.4796 79.5928 67.4694 79.5975 67.46C79.6022 67.4506 79.6087 67.4423 79.6167 67.4356C79.6247 67.4288 79.634 67.4238 79.644 67.4208C79.6538 67.4172 79.6642 67.4156 79.6746 67.4161C79.6849 67.4167 79.6951 67.4193 79.7045 67.4239C79.7138 67.4285 79.7221 67.4349 79.7289 67.4428C79.7357 67.4507 79.7408 67.4598 79.744 67.4698L81.867 74.3258C81.8706 74.3356 81.8721 74.346 81.8715 74.3565C81.8709 74.3669 81.8682 74.3772 81.8635 74.3865C81.8588 74.3959 81.8523 74.4042 81.8443 74.4109C81.8363 74.4177 81.827 74.4227 81.817 74.4258C81.8 74.4258 81.792 74.4338 81.784 74.4338C81.7671 74.4333 81.7507 74.4274 81.7374 74.417C81.7241 74.4065 81.7145 74.3921 81.71 74.3758Z" fill="#1F1F39"/>
<path d="M63.3532 43.4108C64.4272 41.2678 65.9152 41.1028 65.9152 41.1028C66.4698 39.9734 67.3469 39.0337 68.4355 38.4027C69.5242 37.7717 70.7755 37.4777 72.0312 37.5578C76.7422 37.5578 77.8172 42.1748 77.8172 42.1748C78.4144 42.3616 78.9365 42.7336 79.308 43.2371C79.6794 43.7405 79.8809 44.3492 79.8832 44.9748C79.8002 47.1178 77.8002 52.0398 77.8002 52.0398L64.5922 49.4298C64.5922 49.4298 62.2782 45.5578 63.3532 43.4108Z" fill="white"/>
<path d="M63.5931 48.5725C63.2846 48.7506 63.0214 48.9976 62.8239 49.294C62.6263 49.5905 62.4998 49.9285 62.4542 50.2818C62.4085 50.6351 62.4449 50.9941 62.5606 51.331C62.6763 51.668 62.868 51.9737 63.1211 52.2245C64.1381 53.3955 66.7001 53.1245 66.7001 53.1245L66.0141 48.8775C65.6773 48.6095 65.2733 48.4394 64.8463 48.3856C64.4193 48.3318 63.9858 48.3964 63.5931 48.5725Z" fill="#F9ACC0"/>
<path d="M79.7433 48.5708C80.0509 48.7498 80.3132 48.9971 80.51 49.2935C80.7068 49.59 80.8329 49.9278 80.8784 50.2808C80.9239 50.6337 80.8877 50.9924 80.7725 51.3291C80.6574 51.6659 80.4664 51.9716 80.2143 52.2228C79.1973 53.3938 76.6353 53.1218 76.6353 53.1218L77.3213 48.8758C77.6581 48.6077 78.0623 48.4374 78.4895 48.3836C78.9167 48.3298 79.3504 48.3946 79.7433 48.5708Z" fill="#F9ACC0"/>
<path d="M66.2292 52.2564C66.1655 51.8011 65.9861 51.3697 65.7082 51.0034C65.3375 50.4984 64.8123 50.1281 64.2122 49.9484C64.1864 49.9409 64.1643 49.924 64.1502 49.9011C64.1361 49.8782 64.1311 49.8508 64.1362 49.8244C64.1437 49.7981 64.1609 49.7757 64.1843 49.7616C64.2076 49.7475 64.2355 49.7428 64.2622 49.7484C64.9116 49.9414 65.4783 50.3449 65.8732 50.8954C66.178 51.2899 66.3696 51.7601 66.4272 52.2554C66.4272 52.2819 66.4167 52.3073 66.3979 52.3261C66.3792 52.3449 66.3537 52.3554 66.3272 52.3554C66.3007 52.3554 66.2752 52.3449 66.2565 52.3261C66.2377 52.3073 66.2272 52.2819 66.2272 52.2554L66.2292 52.2564Z" fill="#1F1F39"/>
<path d="M77.428 52.1402C77.403 52.1281 77.3837 52.1066 77.3743 52.0804C77.365 52.0543 77.3663 52.0254 77.378 52.0002C77.6526 51.4627 78.0006 50.9659 78.412 50.5242C78.6894 50.1857 79.06 49.936 79.478 49.8062C79.491 49.8039 79.5043 49.8042 79.5172 49.8071C79.5301 49.81 79.5423 49.8154 79.5531 49.823C79.5639 49.8307 79.573 49.8403 79.5801 49.8515C79.5871 49.8627 79.5918 49.8752 79.594 49.8882C79.5966 49.9014 79.5965 49.915 79.5936 49.9282C79.5908 49.9414 79.5854 49.9539 79.5776 49.9649C79.5699 49.9759 79.56 49.9853 79.5485 49.9924C79.5371 49.9995 79.5243 50.0042 79.511 50.0062C79.1363 50.133 78.8042 50.3615 78.552 50.6662C78.1574 51.0902 77.8238 51.5671 77.561 52.0832C77.5536 52.1018 77.541 52.118 77.5247 52.1297C77.5083 52.1414 77.489 52.1481 77.469 52.1492C77.4547 52.1511 77.4402 52.1479 77.428 52.1402Z" fill="#1F1F39"/>
<path d="M66.4271 53.1135C66.8559 54.5824 67.6997 55.8964 68.8571 56.8975L68.5181 61.5805C68.5181 61.5805 68.9891 62.6115 71.4851 62.6115C74.1851 62.6115 74.9321 61.5805 74.9321 61.5805L74.8001 56.9725C74.8001 56.9725 76.4861 56.7005 77.3001 53.6665C77.787 51.8035 77.9243 49.8665 77.7051 47.9535C77.7051 47.9535 73.7171 48.5715 72.3701 46.9225C71.0231 45.2735 69.6671 43.6165 67.7081 44.4415C67.1476 44.7164 66.6928 45.1677 66.4137 45.7261C66.1346 46.2845 66.0465 46.9192 66.1631 47.5325C65.9358 49.3944 66.0251 51.2813 66.4271 53.1135Z" fill="#F9D2DD"/>
<path d="M69.7342 50.9119C69.5572 50.8957 69.3938 50.8104 69.2793 50.6745C69.1647 50.5386 69.1083 50.3631 69.1222 50.1859C69.1086 50.0089 69.1651 49.8337 69.2796 49.698C69.3941 49.5624 69.5574 49.4772 69.7342 49.4609C69.911 49.4772 70.0742 49.5624 70.1887 49.698C70.3032 49.8337 70.3598 50.0089 70.3462 50.1859C70.3601 50.3631 70.3037 50.5386 70.1891 50.6745C70.0746 50.8104 69.9111 50.8957 69.7342 50.9119Z" fill="#1F1F39"/>
<path d="M74.1893 50.9119C74.0123 50.8957 73.8489 50.8104 73.7343 50.6745C73.6198 50.5386 73.5634 50.3631 73.5773 50.1859C73.5636 50.0089 73.6202 49.8337 73.7347 49.698C73.8492 49.5624 74.0125 49.4772 74.1893 49.4609C74.366 49.4772 74.5293 49.5624 74.6438 49.698C74.7583 49.8337 74.8149 50.0089 74.8013 50.1859C74.8152 50.3631 74.7587 50.5386 74.6442 50.6745C74.5297 50.8104 74.3662 50.8957 74.1893 50.9119Z" fill="#1F1F39"/>
<path d="M71.4934 51.1836C71.7004 51.5956 72.2374 51.3896 72.2374 51.3896C72.2374 51.3896 71.7004 51.2496 71.7004 50.8376C71.7004 50.4256 71.6594 49.0156 71.6594 49.0156C71.4839 49.724 71.4278 50.4568 71.4934 51.1836Z" fill="#1F1F39"/>
<path d="M68.667 60.3114C68.708 60.2984 73.139 58.5884 73.973 57.8054C73.973 57.3274 73.99 56.9724 73.99 56.9724C73.1176 57.345 72.1641 57.4869 71.221 57.3844C70.4078 57.3883 69.6027 57.2228 68.857 56.8984C68.867 57.3184 68.708 60.1464 68.667 60.3114Z" fill="#F9ACC0"/>
<path d="M75.3042 52.7017C74.5782 52.7017 73.9902 52.3327 73.9902 51.8767C73.9902 51.4207 74.5782 51.0527 75.3042 51.0527C76.0302 51.0527 76.6182 51.4217 76.6182 51.8767C76.6182 52.3317 76.0302 52.7017 75.3042 52.7017Z" fill="#F9ACC0"/>
<path d="M68.3531 52.7017C67.6271 52.7017 67.0391 52.3327 67.0391 51.8767C67.0391 51.4207 67.6271 51.0527 68.3531 51.0527C69.0791 51.0527 69.6671 51.4217 69.6671 51.8767C69.6671 52.3317 69.0791 52.7017 68.3531 52.7017Z" fill="#F9ACC0"/>
<path d="M69.684 53.743C70.7478 54.069 71.8799 54.1018 72.9608 53.8377C74.0417 53.5737 75.0312 53.0227 75.825 52.243C76.792 51.163 76.825 47.692 76.825 47.692L77.833 47.362C77.833 47.362 78.102 53.823 76.792 55.562C76.1824 56.3404 75.3842 56.9504 74.473 57.3342C73.5618 57.7179 72.5678 57.8628 71.585 57.755C70.7446 57.7411 69.9196 57.5276 69.178 57.132C68.4364 56.7364 67.7995 56.1702 67.32 55.48C66.002 53.743 65.502 47.697 65.502 47.697L66.163 46.543C66.163 46.543 66.702 52.99 69.684 53.743Z" fill="white"/>
<path d="M71.9469 52.4806C72.3016 52.3322 72.6354 52.1383 72.9399 51.9036C72.9399 51.9036 73.1049 51.8216 73.1879 51.9036C73.1248 52.1485 73.0114 52.3776 72.8549 52.5763C72.6984 52.775 72.5023 52.9389 72.2789 53.0576C72.0555 53.1317 71.814 53.1316 71.5906 53.0573C71.3672 52.9831 71.1737 52.8387 71.0389 52.6456C70.7909 52.3156 71.1219 52.3976 71.1219 52.3976C71.3872 52.487 71.6692 52.5154 71.9469 52.4806Z" fill="#F95368"/>
</svg>
