<svg width="120" height="135" viewBox="0 0 120 135" fill="none" xmlns="http://www.w3.org/2000/svg">
<path opacity="0.4" d="M2.00389 112.86H1.95989C1.86683 112.85 1.78162 112.803 1.72281 112.731C1.664 112.658 1.63635 112.565 1.64589 112.471C1.64589 112.459 1.73189 111.725 1.91389 110.371C1.92361 110.289 1.96287 110.214 2.02434 110.159C2.0858 110.103 2.16527 110.072 2.24789 110.071C2.26553 110.07 2.28325 110.07 2.30089 110.071C2.34655 110.076 2.39078 110.09 2.43091 110.112C2.47103 110.134 2.5062 110.165 2.53426 110.201C2.56233 110.237 2.58272 110.279 2.59417 110.323C2.60563 110.368 2.60791 110.414 2.60089 110.459C2.42289 111.762 2.33289 112.538 2.33189 112.546C2.33138 112.589 2.32244 112.631 2.3056 112.669C2.28876 112.708 2.26436 112.743 2.23382 112.772C2.20328 112.802 2.16721 112.824 2.12773 112.84C2.08825 112.855 2.04615 112.862 2.00389 112.86ZM2.55589 108.666H2.51089C2.46362 108.659 2.41827 108.643 2.37742 108.618C2.33658 108.593 2.30105 108.56 2.27289 108.521C2.24723 108.487 2.2287 108.448 2.2184 108.406C2.20809 108.364 2.20622 108.321 2.21289 108.278C2.25289 107.991 2.29589 107.695 2.33989 107.387C2.39589 107.002 2.45289 106.607 2.51089 106.187C2.52337 106.104 2.5655 106.028 2.62957 105.973C2.69365 105.917 2.7754 105.887 2.85989 105.887C2.91092 105.888 2.96135 105.899 3.00775 105.92C3.05415 105.941 3.09545 105.972 3.12883 106.011C3.16221 106.049 3.18691 106.095 3.20124 106.144C3.21557 106.192 3.2192 106.244 3.21189 106.294C3.12789 106.819 3.05989 107.314 2.99389 107.794C2.96656 107.994 2.93989 108.186 2.91389 108.369C2.89571 108.452 2.85064 108.526 2.78581 108.579C2.72098 108.633 2.64008 108.664 2.55589 108.666ZM46.1349 107.935H45.9109C45.1978 107.847 44.5411 107.503 44.0639 106.965C43.9993 106.9 43.9632 106.811 43.9632 106.719C43.9632 106.627 43.9993 106.538 44.0639 106.472C44.1297 106.408 44.2179 106.372 44.3099 106.372C44.4018 106.372 44.4901 106.408 44.5559 106.472C44.9178 106.894 45.4206 107.171 45.9709 107.249H46.1029C46.1908 107.251 46.2749 107.285 46.338 107.347C46.4012 107.408 46.4386 107.491 46.4427 107.578C46.4468 107.666 46.4172 107.752 46.36 107.819C46.3028 107.886 46.2223 107.928 46.1349 107.937V107.935ZM47.5639 106.711C47.4995 106.712 47.4367 106.691 47.3859 106.651C47.3085 106.603 47.253 106.526 47.2306 106.437C47.2083 106.348 47.2209 106.254 47.2659 106.174C47.6118 105.591 47.9012 104.977 48.1299 104.338C48.155 104.275 48.1986 104.22 48.255 104.18C48.3114 104.141 48.3782 104.12 48.4469 104.118C48.4916 104.119 48.5358 104.128 48.5769 104.145C48.6192 104.162 48.6578 104.186 48.6905 104.218C48.7232 104.249 48.7493 104.287 48.7672 104.328C48.7852 104.37 48.7947 104.415 48.7952 104.46C48.7956 104.506 48.787 104.55 48.7699 104.592C48.5276 105.268 48.2184 105.918 47.8469 106.532C47.8203 106.585 47.78 106.63 47.7301 106.661C47.6803 106.693 47.6228 106.71 47.5639 106.711ZM43.0809 105.383C43.0191 105.385 42.9582 105.369 42.9051 105.337C42.852 105.306 42.8089 105.26 42.7809 105.204C42.4679 104.665 42.1419 104.027 41.8129 103.304C41.7754 103.219 41.7731 103.123 41.8065 103.036C41.8398 102.95 41.9061 102.88 41.9909 102.841C42.0362 102.822 42.0848 102.813 42.1339 102.812C42.2017 102.812 42.2682 102.831 42.325 102.868C42.3818 102.905 42.4263 102.958 42.4529 103.02C42.7529 103.682 43.0589 104.299 43.3759 104.856C43.4005 104.895 43.4169 104.938 43.4239 104.983C43.431 105.028 43.4286 105.074 43.4169 105.117C43.3929 105.207 43.3357 105.284 43.2569 105.333C43.2028 105.363 43.1426 105.38 43.0809 105.382V105.383ZM3.16589 104.517H3.10689C3.06324 104.511 3.02131 104.496 2.98354 104.473C2.94577 104.45 2.91292 104.42 2.88689 104.384C2.85914 104.346 2.83936 104.302 2.82872 104.256C2.81807 104.209 2.81677 104.161 2.82489 104.114C2.89889 103.644 2.97989 103.16 3.06589 102.648V102.64C3.09922 102.44 3.13256 102.24 3.16589 102.04C3.17784 101.959 3.21924 101.885 3.28225 101.832C3.34527 101.779 3.42554 101.75 3.50789 101.752C3.52786 101.751 3.54792 101.751 3.56789 101.752C3.61155 101.759 3.65348 101.774 3.69124 101.797C3.72901 101.82 3.76186 101.85 3.78789 101.885C3.81564 101.924 3.83542 101.968 3.84607 102.014C3.85671 102.061 3.85801 102.109 3.84989 102.155C3.80656 102.416 3.76489 102.673 3.72489 102.925C3.65289 103.375 3.58389 103.801 3.50789 104.225C3.49836 104.308 3.45778 104.385 3.39433 104.439C3.33087 104.493 3.24925 104.521 3.16589 104.517ZM49.1279 102.831C49.0939 102.833 49.0598 102.828 49.0279 102.816C48.9418 102.786 48.8698 102.725 48.8257 102.646C48.7816 102.566 48.7685 102.472 48.7889 102.383C48.9699 101.766 49.1609 101.102 49.3409 100.369C49.3613 100.295 49.4053 100.229 49.4665 100.181C49.5276 100.134 49.6025 100.108 49.6799 100.106C49.7059 100.107 49.7317 100.11 49.7569 100.116C49.8456 100.14 49.9215 100.197 49.9679 100.276C50.0154 100.354 50.0305 100.446 50.0099 100.534L49.9559 100.734C49.7829 101.387 49.6199 102.004 49.4449 102.559C49.4334 102.635 49.3951 102.704 49.3369 102.754C49.2787 102.804 49.2045 102.832 49.1279 102.831ZM41.3379 101.577C41.2677 101.575 41.1997 101.552 41.1417 101.513C41.0837 101.473 41.038 101.418 41.0099 101.353C40.9499 101.189 40.8879 101.023 40.8239 100.853C40.6489 100.382 40.4689 99.8955 40.2949 99.3725C40.2662 99.2835 40.2734 99.1868 40.3151 99.103C40.3568 99.0193 40.4296 98.9552 40.5179 98.9245C40.5537 98.9126 40.5912 98.9065 40.6289 98.9065C40.7028 98.9078 40.7744 98.9317 40.8343 98.975C40.8942 99.0182 40.9394 99.0788 40.9639 99.1485C41.1739 99.7655 41.4029 100.404 41.6639 101.103C41.6827 101.147 41.6925 101.194 41.6925 101.241C41.6925 101.288 41.6827 101.335 41.6639 101.378C41.6461 101.419 41.6201 101.455 41.5876 101.484C41.555 101.514 41.5166 101.537 41.4749 101.55L41.4269 101.564C41.3984 101.574 41.3687 101.578 41.3389 101.577H41.3379ZM3.86589 100.369H3.80689C3.76202 100.362 3.71909 100.345 3.68056 100.321C3.64204 100.297 3.60868 100.265 3.58239 100.228C3.5561 100.191 3.5374 100.149 3.52736 100.105C3.51732 100.06 3.51614 100.014 3.52389 99.9695L3.61789 99.4375V99.4315C3.70589 98.9315 3.79689 98.4205 3.89489 97.8945C3.90878 97.8119 3.95187 97.7371 4.0163 97.6837C4.08073 97.6303 4.16221 97.6018 4.24589 97.6035C4.26419 97.602 4.28259 97.602 4.30089 97.6035C4.3444 97.6103 4.3861 97.6257 4.42354 97.6489C4.46098 97.6721 4.4934 97.7026 4.51889 97.7385C4.54681 97.7767 4.56692 97.82 4.57807 97.866C4.58922 97.912 4.5912 97.9597 4.58389 98.0065C4.47289 98.5855 4.37189 99.1595 4.27389 99.7145L4.21189 100.066C4.20034 100.15 4.15899 100.227 4.09543 100.283C4.03187 100.338 3.95037 100.369 3.86589 100.369ZM50.1849 98.7695C50.1591 98.7719 50.1331 98.7671 50.1099 98.7555C50.0194 98.7347 49.9407 98.6793 49.8907 98.6011C49.8406 98.523 49.8231 98.4284 49.8419 98.3375C49.9959 97.6895 50.1539 96.9425 50.2889 96.2935C50.3039 96.2154 50.3455 96.145 50.4065 96.0941C50.4676 96.0433 50.5444 96.0151 50.6239 96.0145C50.6511 96.0144 50.6783 96.0174 50.7049 96.0235C50.7505 96.0324 50.7938 96.0505 50.8323 96.0767C50.8707 96.1028 50.9034 96.1365 50.9285 96.1757C50.9535 96.2148 50.9704 96.2587 50.978 96.3045C50.9856 96.3504 50.9839 96.3973 50.9729 96.4425C50.8289 97.1515 50.6789 97.8425 50.5269 98.5015C50.5041 98.5758 50.4593 98.6413 50.3984 98.6896C50.3375 98.7378 50.2634 98.7664 50.1859 98.7715L50.1849 98.7695ZM39.9689 97.6035C39.8972 97.6039 39.8271 97.5815 39.7691 97.5394C39.711 97.4973 39.6678 97.4378 39.6459 97.3695L39.5459 97.0525C39.3799 96.5175 39.2069 95.9645 39.0329 95.3525C39.0041 95.271 39.0087 95.1815 39.0459 95.1035C39.0684 95.0605 39.0992 95.0226 39.1367 94.9918C39.1741 94.961 39.2174 94.9382 39.2639 94.9245C39.2988 94.9135 39.3352 94.9077 39.3719 94.9075C39.4463 94.9089 39.5182 94.9346 39.5766 94.9807C39.6351 95.0267 39.677 95.0905 39.6959 95.1625C39.8199 95.5625 39.9339 95.9375 40.0449 96.3035V96.3125V96.3205C40.1319 96.6085 40.2169 96.8885 40.3009 97.1625C40.3286 97.2495 40.3206 97.3439 40.2788 97.425C40.237 97.5062 40.1648 97.5675 40.0779 97.5955C40.0423 97.6044 40.0054 97.6071 39.9689 97.6035ZM4.61089 96.2495H4.55089C4.50738 96.2427 4.46568 96.2272 4.42824 96.204C4.3908 96.1808 4.35838 96.1504 4.33289 96.1145C4.30498 96.0763 4.28486 96.0329 4.27371 95.9869C4.26256 95.941 4.26058 95.8932 4.26789 95.8465C4.39989 95.1855 4.53489 94.4925 4.66789 93.7875C4.68314 93.7094 4.72495 93.6391 4.78621 93.5884C4.84747 93.5377 4.92439 93.5098 5.00389 93.5095C5.03081 93.5095 5.05764 93.5125 5.08389 93.5185C5.12944 93.5275 5.17269 93.5457 5.21104 93.5719C5.24939 93.5981 5.28206 93.6318 5.30709 93.6709C5.33211 93.71 5.34898 93.7538 5.35668 93.7996C5.36438 93.8454 5.36275 93.8923 5.35189 93.9375L5.14589 95.0235L4.95589 95.9955C4.93361 96.0694 4.88793 96.1342 4.82573 96.18C4.76352 96.2258 4.68814 96.2502 4.61089 96.2495ZM51.0459 94.6675H50.9709C50.9259 94.6607 50.8828 94.6444 50.8446 94.6198C50.8063 94.5951 50.7737 94.5626 50.7489 94.5245C50.7236 94.4867 50.7064 94.4441 50.6985 94.3993C50.6906 94.3546 50.6921 94.3086 50.7029 94.2645C50.7939 93.8195 50.8759 93.3645 50.9639 92.8895C51.0052 92.6641 51.0472 92.4358 51.0899 92.2045C51.1043 92.1232 51.1471 92.0496 51.2106 91.9969C51.2742 91.9442 51.3543 91.9157 51.4369 91.9165C51.4902 91.9165 51.5428 91.9293 51.5902 91.9536C51.6377 91.9779 51.6787 92.0132 51.7099 92.0565C51.7378 92.0947 51.7579 92.138 51.7691 92.184C51.7802 92.23 51.7822 92.2777 51.7749 92.3245C51.7119 92.6585 51.6499 92.9895 51.5889 93.3125V93.3355L51.5819 93.3705C51.5159 93.7195 51.4519 94.0595 51.3909 94.3835C51.3735 94.4626 51.33 94.5336 51.2674 94.5851C51.2049 94.6366 51.1269 94.6656 51.0459 94.6675ZM38.7619 93.5925C38.6873 93.5906 38.6152 93.565 38.5562 93.5193C38.4972 93.4736 38.4543 93.4102 38.4339 93.3385C38.2419 92.6865 38.0459 92.0095 37.8529 91.3245C37.8285 91.2355 37.8398 91.1406 37.8842 91.0598C37.9286 90.979 38.0027 90.9186 38.0909 90.8915C38.1184 90.8847 38.1466 90.8813 38.1749 90.8815C38.2514 90.8819 38.3259 90.9061 38.3881 90.9507C38.4502 90.9953 38.497 91.0581 38.5219 91.1305C38.7219 91.8305 38.9159 92.5095 39.1029 93.1455C39.127 93.2344 39.1156 93.3292 39.0712 93.41C39.0269 93.4907 38.9529 93.5511 38.8649 93.5785C38.8321 93.591 38.7968 93.5958 38.7619 93.5925ZM5.44589 92.1455C5.41996 92.148 5.39384 92.1428 5.37089 92.1305C5.32487 92.1205 5.28128 92.1015 5.24266 92.0745C5.20404 92.0476 5.17115 92.0132 5.14589 91.9735C5.12192 91.9349 5.10586 91.892 5.09865 91.8472C5.09144 91.8024 5.09322 91.7566 5.10389 91.7125C5.26189 90.9805 5.40389 90.3215 5.54989 89.6675C5.56738 89.588 5.61218 89.5171 5.67649 89.4673C5.7408 89.4174 5.82056 89.3916 5.90189 89.3945C5.92353 89.3928 5.94526 89.3928 5.96689 89.3945C6.05861 89.4144 6.13895 89.4693 6.19089 89.5475C6.21601 89.5863 6.23295 89.6298 6.24069 89.6753C6.24843 89.7209 6.24679 89.7676 6.23589 89.8125C6.10689 90.3975 5.96489 91.0475 5.78989 91.8575C5.77518 91.9381 5.73274 92.011 5.66991 92.0636C5.60708 92.1162 5.52783 92.1452 5.44589 92.1455ZM51.8089 90.5335H51.7459C51.7009 90.5261 51.6578 90.5098 51.619 90.4857C51.5803 90.4615 51.5468 90.4299 51.5204 90.3927C51.494 90.3555 51.4752 90.3135 51.4652 90.269C51.4551 90.2245 51.454 90.1784 51.4619 90.1335C51.5949 89.3815 51.7119 88.7075 51.8189 88.0745C51.8311 87.9927 51.8728 87.9182 51.9362 87.8652C51.9996 87.8121 52.0802 87.7841 52.1629 87.7865C52.1825 87.785 52.2023 87.785 52.2219 87.7865C52.2655 87.7928 52.3074 87.8078 52.3451 87.8304C52.3829 87.8531 52.4158 87.883 52.4419 87.9185C52.4697 87.9573 52.4895 88.0012 52.5001 88.0477C52.5107 88.0943 52.512 88.1424 52.5039 88.1895C52.3769 88.9365 52.2599 89.6105 52.1469 90.2485C52.1318 90.3275 52.0899 90.399 52.0284 90.4509C51.9669 90.5028 51.8894 90.5319 51.8089 90.5335ZM37.6299 89.5635C37.5548 89.5636 37.4817 89.5387 37.4223 89.4927C37.3629 89.4467 37.3206 89.3822 37.3019 89.3095L36.7369 87.2955C36.716 87.2066 36.7288 87.1132 36.7727 87.0333C36.8167 86.9533 36.8887 86.8924 36.9749 86.8625C37.0027 86.8557 37.0313 86.8523 37.0599 86.8525C37.1364 86.8529 37.2109 86.8771 37.2731 86.9217C37.3352 86.9663 37.382 87.0291 37.4069 87.1015L37.9729 89.1165C37.9933 89.2054 37.9802 89.2987 37.9361 89.3786C37.892 89.4585 37.82 89.5193 37.7339 89.5495C37.713 89.5498 37.6922 89.5525 37.6719 89.5575C37.6585 89.5609 37.6447 89.5629 37.6309 89.5635H37.6299ZM6.36789 88.0575C6.3419 88.0615 6.31532 88.0562 6.29289 88.0425C6.24894 88.0326 6.20744 88.0139 6.17085 87.9876C6.13426 87.9613 6.10332 87.928 6.07989 87.8895C6.05604 87.8501 6.04022 87.8065 6.03336 87.761C6.02649 87.7155 6.02871 87.6691 6.03989 87.6245C6.22089 86.8495 6.38189 86.1815 6.53089 85.5795C6.54131 85.5352 6.56046 85.4934 6.5872 85.4565C6.61394 85.4197 6.64775 85.3885 6.68666 85.3649C6.72557 85.3412 6.76879 85.3256 6.81381 85.3188C6.85884 85.312 6.90475 85.3143 6.94889 85.3255C6.99284 85.3354 7.03434 85.354 7.07093 85.3803C7.10753 85.4066 7.13846 85.44 7.16189 85.4785C7.18574 85.5178 7.20156 85.5615 7.20842 85.607C7.21529 85.6525 7.21307 85.6988 7.20189 85.7435C7.04289 86.3835 6.88089 87.0605 6.72389 87.7165L6.70989 87.7735C6.69006 87.8508 6.64632 87.9199 6.5849 87.9709C6.52349 88.0219 6.44754 88.0522 6.36789 88.0575ZM52.5239 86.4155H52.4649C52.4199 86.408 52.3769 86.3916 52.3382 86.3675C52.2996 86.3433 52.2661 86.3117 52.2397 86.2745C52.2134 86.2373 52.1946 86.1953 52.1845 86.1509C52.1744 86.1064 52.1732 86.0604 52.1809 86.0155C52.2419 85.6645 52.2999 85.3075 52.3569 84.9615C52.4109 84.6315 52.4659 84.2915 52.5239 83.9555C52.5361 83.8736 52.5778 83.799 52.6411 83.7458C52.7045 83.6926 52.7852 83.6644 52.8679 83.6665C52.8875 83.665 52.9072 83.665 52.9269 83.6665C52.9718 83.6741 53.0147 83.6905 53.0532 83.7147C53.0917 83.739 53.1251 83.7706 53.1514 83.8077C53.1777 83.8449 53.1964 83.8869 53.2064 83.9313C53.2165 83.9757 53.2176 84.0216 53.2099 84.0665C53.1549 84.3885 53.1019 84.7195 53.0549 85.0115C52.9949 85.3835 52.9329 85.7655 52.8679 86.1405C52.8476 86.2171 52.8032 86.2852 52.7413 86.3347C52.6793 86.3842 52.6031 86.4125 52.5239 86.4155ZM36.4989 85.5155C36.4237 85.516 36.3505 85.4912 36.291 85.4451C36.2315 85.3991 36.1892 85.3344 36.1709 85.2615L36.1479 85.1815C35.9639 84.5445 35.7759 83.8895 35.6049 83.2465C35.5808 83.1575 35.5922 83.0627 35.6365 82.982C35.6809 82.9012 35.7549 82.8408 35.8429 82.8135C35.8735 82.8034 35.9056 82.7983 35.9379 82.7985C36.0133 82.8018 36.0859 82.8279 36.1461 82.8735C36.2063 82.919 36.2512 82.9818 36.2749 83.0535L36.5649 84.0605L36.8549 85.0675C36.8792 85.1564 36.868 85.2514 36.8236 85.3322C36.7792 85.413 36.705 85.4734 36.6169 85.5005C36.5788 85.5129 36.539 85.5196 36.4989 85.5205V85.5155ZM7.36589 83.9825C7.33544 83.9849 7.30486 83.9797 7.27689 83.9675C7.18665 83.9424 7.1097 83.8831 7.06231 83.8024C7.01491 83.7216 7.00078 83.6255 7.02289 83.5345C7.14689 83.0575 7.27889 82.5785 7.40689 82.1155L7.41389 82.0885C7.46789 81.8918 7.52122 81.6971 7.57389 81.5045C7.58558 81.4599 7.60618 81.4183 7.63446 81.3819C7.66274 81.3456 7.6981 81.3154 7.7384 81.2931C7.7787 81.2709 7.8231 81.257 7.86891 81.2525C7.91472 81.2479 7.96098 81.2526 8.00489 81.2665C8.04885 81.278 8.09003 81.2983 8.12594 81.3261C8.16186 81.354 8.19178 81.3888 8.21389 81.4285C8.23804 81.4696 8.25336 81.5153 8.25887 81.5626C8.26438 81.6099 8.25996 81.6579 8.24589 81.7035C8.17389 81.9685 8.09989 82.2375 8.02489 82.5095V82.5215C7.91689 82.9145 7.80389 83.3215 7.69889 83.7215C7.68426 83.7979 7.64248 83.8664 7.58127 83.9143C7.52006 83.9623 7.44356 83.9865 7.36589 83.9825ZM53.2079 82.2665H53.1459C53.101 82.259 53.058 82.2427 53.0194 82.2184C52.9808 82.1942 52.9474 82.1626 52.921 82.1254C52.8947 82.0883 52.876 82.0462 52.8661 82.0018C52.8561 81.9573 52.855 81.9113 52.8629 81.8665C52.9109 81.5535 52.9629 81.2335 53.0119 80.9245V80.9135C53.0709 80.5475 53.1329 80.1685 53.1889 79.7895C53.2011 79.7079 53.2427 79.6336 53.3058 79.5805C53.369 79.5275 53.4494 79.4993 53.5319 79.5015C53.5515 79.5 53.5713 79.5 53.5909 79.5015C53.6358 79.509 53.6788 79.5253 53.7174 79.5495C53.756 79.5737 53.7894 79.6053 53.8157 79.6425C53.842 79.6797 53.8607 79.7217 53.8707 79.7662C53.8807 79.8106 53.8818 79.8566 53.8739 79.9015C53.7549 80.6015 53.6499 81.3015 53.5469 81.9715C53.5335 82.0522 53.4924 82.1258 53.4308 82.1796C53.3691 82.2334 53.2907 82.2641 53.2089 82.2665H53.2079ZM35.3359 81.4905C35.2613 81.4886 35.1892 81.463 35.1302 81.4173C35.0712 81.3716 35.0283 81.3083 35.0079 81.2365L34.8339 80.6515L34.8269 80.6295C34.6849 80.1505 34.5479 79.6895 34.4109 79.2365C34.3832 79.1495 34.3911 79.0551 34.4329 78.9739C34.4747 78.8927 34.547 78.8315 34.6339 78.8035C34.6661 78.7926 34.6999 78.7869 34.7339 78.7865C34.8067 78.7877 34.8773 78.8114 34.936 78.8544C34.9948 78.8973 35.0387 78.9575 35.0619 79.0265C35.1909 79.4555 35.3209 79.8915 35.4539 80.3425L35.4589 80.3605L35.4649 80.3805L35.6569 81.0265C35.6706 81.0681 35.6758 81.112 35.6722 81.1556C35.6686 81.1992 35.6563 81.2417 35.6359 81.2805C35.6134 81.3234 35.5826 81.3614 35.5451 81.3921C35.5076 81.4229 35.4644 81.4458 35.4179 81.4595C35.4109 81.4905 35.3629 81.4905 35.3369 81.4905H35.3359ZM8.49889 79.9385C8.46492 79.9396 8.43104 79.9345 8.39889 79.9235C8.31291 79.8935 8.24105 79.8328 8.19711 79.7531C8.15318 79.6733 8.14028 79.5802 8.16089 79.4915C8.38289 78.7625 8.58689 78.1025 8.78589 77.4765C8.80893 77.4071 8.85298 77.3467 8.91193 77.3035C8.97089 77.2603 9.04182 77.2365 9.11489 77.2355C9.14891 77.2359 9.18264 77.2416 9.21489 77.2525C9.30163 77.2807 9.37372 77.342 9.41548 77.4231C9.45724 77.5042 9.4653 77.5985 9.43789 77.6855C9.20389 78.4055 9.00389 79.0595 8.82789 79.6855C8.81188 79.7598 8.77002 79.826 8.70978 79.8723C8.64953 79.9186 8.5748 79.9421 8.49889 79.9385ZM53.8639 78.1335H53.8049C53.76 78.1258 53.7171 78.1094 53.6786 78.0852C53.64 78.061 53.6067 78.0294 53.5804 77.9922C53.5541 77.955 53.5354 77.9131 53.5254 77.8687C53.5153 77.8243 53.5141 77.7783 53.5219 77.7335L53.8499 75.6595C53.8551 75.6135 53.8699 75.5691 53.8934 75.5292C53.9169 75.4893 53.9486 75.4548 53.9864 75.428C54.0241 75.4012 54.0671 75.3827 54.1125 75.3736C54.1579 75.3646 54.2047 75.3652 54.2499 75.3755C54.2948 75.383 54.3378 75.3993 54.3764 75.4235C54.415 75.4477 54.4484 75.4793 54.4747 75.5165C54.501 75.5537 54.5197 75.5957 54.5297 75.6402C54.5397 75.6846 54.5408 75.7306 54.5329 75.7755L54.2049 77.8505C54.1931 77.9314 54.1517 78.005 54.0887 78.0571C54.0257 78.1092 53.9456 78.1361 53.8639 78.1325V78.1335ZM34.1149 77.4915C34.0416 77.4932 33.9697 77.4707 33.9104 77.4275C33.8511 77.3843 33.8077 77.3228 33.7869 77.2525C33.5589 76.5525 33.3289 75.8605 33.1319 75.2675C33.1032 75.1785 33.1104 75.0818 33.1521 74.998C33.1938 74.9143 33.2666 74.8502 33.3549 74.8195C33.3907 74.8076 33.4282 74.8015 33.4659 74.8015C33.5399 74.8029 33.6116 74.8268 33.6717 74.87C33.7317 74.9133 33.7771 74.9738 33.8019 75.0435L33.8449 75.1735C34.0449 75.7735 34.2449 76.3925 34.4569 77.0435C34.4845 77.1306 34.4765 77.2251 34.4345 77.3063C34.3925 77.3875 34.32 77.4487 34.2329 77.4765C34.209 77.4773 34.1852 77.4803 34.1619 77.4855C34.1464 77.4888 34.1307 77.4908 34.1149 77.4915ZM100.215 77.2815C100.131 77.2804 100.051 77.2496 99.9885 77.1946C99.9258 77.1396 99.8848 77.064 99.8729 76.9815C99.86 76.8887 99.8843 76.7946 99.9405 76.7197C99.9967 76.6448 100.08 76.5951 100.173 76.5815C100.777 76.4707 101.328 76.1609 101.736 75.7015C101.801 75.637 101.89 75.6009 101.981 75.6009C102.073 75.6009 102.161 75.637 102.227 75.7015C102.291 75.7674 102.327 75.8556 102.327 75.9475C102.327 76.0393 102.291 76.1276 102.227 76.1935C101.715 76.7589 101.028 77.1373 100.277 77.2685C100.257 77.2787 100.235 77.2832 100.213 77.2815H100.215ZM98.2939 76.7745C98.218 76.7723 98.1448 76.7461 98.0849 76.6995C97.5166 76.2362 97.0415 75.6691 96.6849 75.0285C96.6611 74.9893 96.6452 74.9458 96.6384 74.9004C96.6315 74.8551 96.6337 74.8088 96.6449 74.7644C96.6561 74.7199 96.6759 74.6781 96.7034 74.6414C96.7309 74.6046 96.7654 74.5737 96.8049 74.5505C96.8574 74.5167 96.9185 74.4987 96.9809 74.4985C97.0414 74.4992 97.1007 74.5154 97.1533 74.5455C97.2058 74.5756 97.2497 74.6186 97.2809 74.6705C97.6044 75.2352 98.0229 75.7399 98.5179 76.1625C98.5897 76.2207 98.636 76.3047 98.647 76.3965C98.6581 76.4884 98.6329 76.5809 98.5769 76.6545C98.5397 76.6924 98.4954 76.7225 98.4465 76.7431C98.3975 76.7637 98.345 76.7744 98.2919 76.7745H98.2939ZM9.77889 75.9535C9.7383 75.9561 9.69759 75.951 9.65889 75.9385C9.61492 75.9242 9.57436 75.9009 9.53974 75.8703C9.50513 75.8396 9.4772 75.8021 9.45768 75.7602C9.43817 75.7183 9.4275 75.6728 9.42633 75.6265C9.42516 75.5803 9.43352 75.5343 9.45089 75.4915C9.67889 74.8455 9.92289 74.1595 10.1659 73.5065C10.1928 73.4398 10.2389 73.3827 10.2984 73.3422C10.3579 73.3018 10.428 73.28 10.4999 73.2795C10.5379 73.2794 10.5758 73.2855 10.6119 73.2975C10.6972 73.3316 10.7663 73.3969 10.8051 73.4801C10.8439 73.5633 10.8496 73.6582 10.8209 73.7455C10.5899 74.3515 10.3549 75.0145 10.1209 75.7145C10.0951 75.7845 10.0486 75.8449 9.98741 75.8877C9.92626 75.9304 9.85349 75.9534 9.77889 75.9535ZM103.146 74.5955C103.088 74.5946 103.031 74.5792 102.981 74.5505C102.901 74.5077 102.841 74.4354 102.813 74.349C102.785 74.2625 102.793 74.1687 102.833 74.0875C103.141 73.4806 103.404 72.8523 103.622 72.2075C103.645 72.1395 103.689 72.0805 103.748 72.0386C103.806 71.9967 103.876 71.9739 103.948 71.9735C103.989 71.9735 104.031 71.9816 104.069 71.9975C104.113 72.0132 104.154 72.0379 104.188 72.0698C104.222 72.1018 104.25 72.1405 104.269 72.1835C104.288 72.2245 104.299 72.2691 104.3 72.3143C104.301 72.3596 104.292 72.4046 104.275 72.4465C104.049 73.1238 103.77 73.7825 103.441 74.4165C103.411 74.4689 103.368 74.5129 103.317 74.5442C103.265 74.5756 103.206 74.5932 103.146 74.5955ZM54.5319 73.9955H54.4729C54.4278 73.9888 54.3846 73.9729 54.3459 73.9488C54.3072 73.9247 54.2738 73.893 54.2479 73.8555C54.1955 73.7785 54.1747 73.6843 54.1899 73.5925C54.2379 73.2735 54.2899 72.9495 54.3419 72.6355V72.6285C54.4009 72.2665 54.4619 71.8915 54.5169 71.5175C54.5288 71.436 54.5702 71.3617 54.6333 71.3086C54.6963 71.2555 54.7765 71.2274 54.8589 71.2295C54.8785 71.228 54.8983 71.228 54.9179 71.2295C54.963 71.2362 55.0062 71.252 55.0449 71.2761C55.0836 71.3002 55.117 71.332 55.1429 71.3695C55.1953 71.4464 55.2161 71.5406 55.2009 71.6325C55.1479 71.9805 55.0909 72.3325 55.0359 72.6765C54.9809 73.0205 54.9249 73.3655 54.8729 73.7075C54.859 73.7876 54.8177 73.8605 54.7561 73.9136C54.6944 73.9666 54.6162 73.9967 54.5349 73.9985L54.5319 73.9955ZM32.7569 73.5185C32.6858 73.5196 32.616 73.4987 32.5573 73.4586C32.4986 73.4185 32.4537 73.3611 32.4289 73.2945C32.2189 72.7025 31.9989 72.1255 31.7859 71.5675L31.6989 71.3395C31.6802 71.2962 31.6705 71.2496 31.6705 71.2025C31.6705 71.1553 31.6802 71.1087 31.6989 71.0655C31.7166 71.025 31.7426 70.9886 31.7751 70.9586C31.8076 70.9287 31.846 70.9058 31.8879 70.8915C31.9297 70.8741 31.9746 70.8653 32.0199 70.8655C32.0891 70.8644 32.1569 70.8851 32.2137 70.9248C32.2704 70.9645 32.3132 71.0211 32.3359 71.0865L32.4759 71.4535C32.6759 71.9705 32.8759 72.5035 33.0759 73.0535C33.1061 73.1404 33.1013 73.2357 33.0625 73.3191C33.0237 73.4026 32.9539 73.4676 32.8679 73.5005C32.8517 73.5011 32.8357 73.5031 32.8199 73.5065C32.8003 73.5131 32.7803 73.5181 32.7599 73.5215L32.7569 73.5185ZM96.0109 73.3245C95.9434 73.3267 95.8769 73.3078 95.8208 73.2703C95.7647 73.2328 95.7217 73.1786 95.6979 73.1155C95.4199 72.4745 95.1589 71.8155 94.9239 71.1455C94.8936 71.0585 94.8985 70.9633 94.9373 70.8798C94.9761 70.7964 95.0459 70.7313 95.1319 70.6985C95.1689 70.6859 95.2078 70.6795 95.2469 70.6795C95.319 70.6777 95.3899 70.6987 95.4495 70.7394C95.5091 70.7801 95.5544 70.8386 95.5789 70.9065C95.8279 71.6135 96.0839 72.2605 96.3389 72.8315C96.3575 72.8736 96.3677 72.919 96.3688 72.9651C96.3699 73.0112 96.3619 73.057 96.3453 73.1C96.3287 73.143 96.3037 73.1823 96.2719 73.2157C96.2401 73.2491 96.202 73.2758 96.1599 73.2945C96.1152 73.3188 96.0646 73.3299 96.0139 73.3265L96.0109 73.3245ZM11.2359 72.0245C11.1898 72.0215 11.1446 72.011 11.1019 71.9935C11.0568 71.9754 11.0158 71.9483 10.9814 71.9139C10.9471 71.8796 10.92 71.8386 10.9019 71.7935C10.8851 71.7543 10.8765 71.7121 10.8765 71.6695C10.8765 71.6268 10.8851 71.5847 10.9019 71.5455C11.1759 70.8595 11.4649 70.2075 11.7359 69.6055C11.7641 69.5428 11.8104 69.4901 11.8689 69.4541C11.9273 69.4181 11.9953 69.4004 12.0639 69.4035C12.1127 69.4036 12.161 69.4135 12.2059 69.4325C12.2908 69.4703 12.3574 69.5403 12.3909 69.627C12.4244 69.7138 12.4223 69.8103 12.3849 69.8955L12.3119 70.0625C12.0649 70.6265 11.8119 71.2085 11.5659 71.8055C11.5375 71.8694 11.4919 71.9241 11.4341 71.9635C11.3763 72.0029 11.3087 72.0254 11.2389 72.0285L11.2359 72.0245ZM104.56 70.6515C104.529 70.654 104.498 70.6488 104.47 70.6365C104.38 70.6107 104.304 70.5515 104.257 70.4711C104.21 70.3906 104.196 70.2952 104.217 70.2045C104.417 69.4565 104.564 68.8115 104.694 68.1745C104.709 68.0965 104.751 68.0262 104.812 67.9755C104.873 67.9248 104.95 67.8969 105.029 67.8965C105.056 67.8964 105.083 67.8994 105.11 67.9055C105.155 67.9144 105.199 67.9325 105.237 67.9586C105.275 67.9847 105.308 68.0183 105.333 68.0573C105.358 68.0964 105.375 68.1401 105.383 68.1858C105.39 68.2316 105.389 68.2784 105.378 68.3235C105.215 69.0525 105.05 69.7455 104.887 70.3835C104.873 70.4592 104.832 70.5277 104.773 70.5773C104.714 70.6269 104.64 70.6545 104.563 70.6555L104.56 70.6515ZM55.1869 69.8605H55.1279C55.0829 69.8531 55.0398 69.8369 55.0012 69.8127C54.9625 69.7885 54.929 69.7569 54.9027 69.7197C54.8764 69.6825 54.8577 69.6404 54.8478 69.5959C54.8378 69.5514 54.8369 69.5054 54.8449 69.4605C54.9309 68.8925 55.0249 68.3375 55.1249 67.7495L55.1869 67.3865C55.1988 67.305 55.2402 67.2307 55.3032 67.1776C55.3663 67.1245 55.4465 67.0964 55.5289 67.0985C55.5489 67.0969 55.5689 67.0969 55.5889 67.0985C55.6325 67.105 55.6745 67.1201 55.7122 67.1429C55.75 67.1657 55.7829 67.1958 55.8089 67.2315C55.8366 67.2701 55.8564 67.3139 55.8671 67.3602C55.8777 67.4066 55.879 67.4546 55.8709 67.5015C55.8059 67.8755 55.7449 68.2565 55.6849 68.6245V68.6375C55.6349 68.9435 55.5849 69.2605 55.5309 69.5755C55.519 69.6569 55.4778 69.7312 55.415 69.7844C55.3522 69.8376 55.2722 69.8661 55.1899 69.8645L55.1869 69.8605ZM31.2259 69.6255C31.1584 69.6277 31.0919 69.6088 31.0358 69.5713C30.9797 69.5338 30.9367 69.4796 30.9129 69.4165C30.5999 68.6885 30.2699 67.9855 30.0489 67.5165C30.0272 67.4743 30.0145 67.4281 30.0116 67.3808C30.0086 67.3334 30.0156 67.286 30.0319 67.2415C30.0473 67.1994 30.0712 67.161 30.1022 67.1286C30.1332 67.0962 30.1705 67.0707 30.2119 67.0535C30.2608 67.0286 30.315 67.0156 30.3699 67.0155C30.434 67.0156 30.4967 67.0346 30.5501 67.0702C30.6034 67.1058 30.6451 67.1563 30.6699 67.2155C30.9579 67.7935 31.2539 68.4415 31.5489 69.1405C31.5863 69.2256 31.5884 69.3221 31.5549 69.4089C31.5214 69.4957 31.4548 69.5656 31.3699 69.6035C31.3414 69.6038 31.313 69.6065 31.2849 69.6115C31.2656 69.6176 31.2459 69.6223 31.2259 69.6255ZM94.5989 69.3865C94.5235 69.3875 94.4501 69.3629 94.3905 69.3168C94.3309 69.2707 94.2888 69.2057 94.2709 69.1325C94.0949 68.5635 93.9099 67.9185 93.6899 67.1035C93.6695 67.0145 93.6826 66.9212 93.7267 66.8413C93.7708 66.7615 93.8428 66.7006 93.9289 66.6705C93.9567 66.6637 93.9853 66.6603 94.0139 66.6605C94.0904 66.6609 94.1649 66.6851 94.2271 66.7297C94.2892 66.7743 94.336 66.8371 94.3609 66.9095C94.5609 67.6655 94.7549 68.3195 94.9409 68.9095C94.955 68.9522 94.9603 68.9974 94.9565 69.0422C94.9528 69.0871 94.94 69.1307 94.9189 69.1705C94.8772 69.2517 94.8054 69.3134 94.7189 69.3425C94.7028 69.3575 94.684 69.3692 94.6634 69.3769C94.6428 69.3847 94.6209 69.3882 94.5989 69.3875V69.3865ZM12.9659 68.2035C12.9083 68.2026 12.8519 68.1871 12.8019 68.1585C12.7229 68.1149 12.6627 68.0437 12.6329 67.9585C12.6181 67.9162 12.6124 67.8714 12.616 67.8268C12.6196 67.7822 12.6325 67.7388 12.6539 67.6995C12.9859 67.0335 13.3269 66.4105 13.6669 65.8495C13.6982 65.7977 13.7422 65.7548 13.7947 65.7247C13.8472 65.6946 13.9064 65.6784 13.9669 65.6775C14.0293 65.6777 14.0904 65.6957 14.1429 65.7295C14.1825 65.7526 14.2171 65.7835 14.2446 65.8202C14.2722 65.8569 14.2921 65.8988 14.3033 65.9433C14.3145 65.9878 14.3167 66.0341 14.3097 66.0794C14.3028 66.1248 14.2869 66.1683 14.2629 66.2075C13.8629 66.9075 13.5439 67.4815 13.2629 68.0285C13.2374 68.0846 13.1952 68.1316 13.142 68.1629C13.0889 68.1942 13.0274 68.2084 12.9659 68.2035ZM105.456 66.5615H105.396C105.351 66.5544 105.308 66.5383 105.269 66.5142C105.23 66.4901 105.196 66.4585 105.17 66.4212C105.144 66.3839 105.125 66.3417 105.115 66.2971C105.105 66.2525 105.105 66.2064 105.113 66.1615C105.19 65.7435 105.261 65.3065 105.335 64.8445V64.8395C105.374 64.5965 105.414 64.3505 105.455 64.1025C105.467 64.0191 105.509 63.9429 105.573 63.8879C105.637 63.8328 105.719 63.8025 105.803 63.8025C105.821 63.8011 105.839 63.8011 105.857 63.8025C105.948 63.8187 106.03 63.869 106.086 63.9433C106.142 64.0175 106.167 64.1102 106.157 64.2025C106.123 64.4125 106.09 64.6195 106.057 64.8235V64.8325C105.976 65.3405 105.9 65.8215 105.816 66.2765C105.796 66.3573 105.75 66.4295 105.685 66.4818C105.62 66.5342 105.54 66.5639 105.457 66.5665L105.456 66.5615ZM29.3789 65.8615C29.3171 65.8629 29.2562 65.8469 29.2031 65.8152C29.15 65.7836 29.107 65.7375 29.0789 65.6825C28.7239 65.0615 28.3479 64.4575 27.9919 63.9365C27.9655 63.8996 27.9468 63.8578 27.9369 63.8136C27.9271 63.7693 27.9263 63.7235 27.9346 63.679C27.9429 63.6344 27.9602 63.592 27.9853 63.5543C28.0104 63.5165 28.043 63.4843 28.0809 63.4595C28.1405 63.4207 28.2098 63.3996 28.2809 63.3985C28.3355 63.3979 28.3893 63.4114 28.4371 63.4376C28.4849 63.4639 28.5251 63.5021 28.5539 63.5485C28.9539 64.1345 29.3149 64.7255 29.6719 65.3545C29.7139 65.4362 29.7234 65.5308 29.6986 65.6193C29.6737 65.7078 29.6163 65.7836 29.5379 65.8315C29.4872 65.8505 29.4339 65.8616 29.3799 65.8645L29.3789 65.8615ZM55.8789 65.7275H55.8199C55.775 65.72 55.732 65.7037 55.6934 65.6794C55.6548 65.6552 55.6214 65.6236 55.595 65.5864C55.5687 65.5493 55.55 65.5072 55.5401 65.4628C55.5301 65.4183 55.529 65.3723 55.5369 65.3275C55.6019 64.9535 55.6639 64.5715 55.7229 64.2015V64.1935C55.7729 63.8855 55.8229 63.5685 55.8769 63.2525C55.8895 63.1709 55.9313 63.0967 55.9946 63.0437C56.0579 62.9907 56.1384 62.9625 56.2209 62.9645C56.2405 62.963 56.2603 62.963 56.2799 62.9645C56.3249 62.972 56.3679 62.9883 56.4065 63.0125C56.4452 63.0367 56.4786 63.0683 56.505 63.1054C56.5314 63.1426 56.5502 63.1846 56.5603 63.2291C56.5704 63.2735 56.5716 63.3195 56.5639 63.3645C56.4359 64.0975 56.3219 64.7595 56.2209 65.4385C56.207 65.5202 56.1646 65.5943 56.1013 65.6477C56.0379 65.7012 55.9577 65.7305 55.8749 65.7305L55.8789 65.7275ZM93.4859 65.3395C93.4074 65.3375 93.3316 65.3103 93.2698 65.2618C93.208 65.2133 93.1635 65.1462 93.1429 65.0705C93.0429 64.6965 92.9539 64.3135 92.8539 63.9085V63.9015C92.7839 63.6155 92.7119 63.3238 92.6379 63.0265C92.6164 62.9373 92.6311 62.8432 92.6786 62.7647C92.7262 62.6862 92.8029 62.6297 92.8919 62.6075C92.9185 62.6015 92.9456 62.5984 92.9729 62.5985C93.0502 62.5984 93.1254 62.6243 93.1863 62.672C93.2472 62.7197 93.2903 62.7864 93.3089 62.8615C93.4759 63.5925 93.6639 64.3125 93.8159 64.8905C93.8267 64.9354 93.8286 64.982 93.8214 65.0277C93.8142 65.0733 93.7981 65.1171 93.7739 65.1565C93.7506 65.1948 93.7198 65.2282 93.6834 65.2544C93.647 65.2807 93.6057 65.2994 93.5619 65.3095C93.5459 65.3425 93.5129 65.3425 93.4819 65.3425L93.4859 65.3395ZM15.0999 64.6075C15.0303 64.6109 14.9618 64.5901 14.9059 64.5485C14.8672 64.5236 14.8343 64.4907 14.8093 64.4521C14.7843 64.4135 14.7678 64.37 14.7609 64.3245C14.7464 64.2313 14.7663 64.136 14.8169 64.0565C15.2192 63.4733 15.6566 62.9153 16.1269 62.3855C16.1592 62.3478 16.1993 62.3174 16.2443 62.2964C16.2893 62.2753 16.3382 62.2641 16.3879 62.2635C16.4737 62.2641 16.5562 62.2969 16.6189 62.3555C16.6544 62.385 16.6836 62.4214 16.7044 62.4626C16.7253 62.5038 16.7376 62.5489 16.7404 62.595C16.7432 62.6411 16.7365 62.6873 16.7208 62.7307C16.7051 62.7741 16.6806 62.8139 16.6489 62.8475C16.2389 63.3155 15.8129 63.8585 15.3829 64.4595C15.3503 64.5053 15.3075 64.5429 15.2578 64.5692C15.2082 64.5956 15.1531 64.6101 15.0969 64.6115L15.0999 64.6075ZM26.9999 62.4285C26.9517 62.4278 26.9041 62.4169 26.8605 62.3964C26.8169 62.3758 26.7781 62.3462 26.7469 62.3095C26.3014 61.8091 25.8073 61.3542 25.2719 60.9515C25.1978 60.8954 25.1485 60.8126 25.1345 60.7207C25.1205 60.6288 25.1429 60.5351 25.1969 60.4595C25.2309 60.4156 25.2744 60.3799 25.324 60.3552C25.3737 60.3304 25.4284 60.3172 25.4839 60.3165C25.556 60.3177 25.6259 60.3415 25.6839 60.3845C26.2602 60.8092 26.7896 61.2943 27.2629 61.8315C27.2946 61.8651 27.3191 61.9048 27.3348 61.9482C27.3505 61.9917 27.3572 62.0379 27.3544 62.084C27.3516 62.1301 27.3393 62.1751 27.3184 62.2163C27.2976 62.2575 27.2684 62.294 27.2329 62.3235C27.1713 62.3896 27.0862 62.4288 26.9959 62.4325L26.9999 62.4285ZM106.1 62.4145H106.055C106.008 62.4072 105.962 62.3907 105.921 62.3658C105.881 62.3409 105.845 62.3082 105.817 62.2695C105.791 62.235 105.773 62.1957 105.763 62.154C105.753 62.1122 105.751 62.0689 105.758 62.0265C105.843 61.3995 105.934 60.7155 106.025 59.9525C106.035 59.8703 106.074 59.7946 106.136 59.7394C106.198 59.6842 106.277 59.6533 106.36 59.6525C106.378 59.6511 106.395 59.6511 106.413 59.6525C106.506 59.665 106.59 59.713 106.648 59.7865C106.675 59.8223 106.695 59.8633 106.706 59.907C106.716 59.9506 106.718 59.9961 106.711 60.0405C106.62 60.7935 106.53 61.4725 106.443 62.1285C106.426 62.2085 106.382 62.2805 106.319 62.3329C106.256 62.3853 106.178 62.415 106.096 62.4175L106.1 62.4145ZM56.5779 61.5785H56.5189C56.4739 61.5711 56.4308 61.5549 56.3922 61.5307C56.3535 61.5065 56.32 61.4749 56.2937 61.4377C56.2674 61.4005 56.2487 61.3584 56.2388 61.3139C56.2288 61.2694 56.2279 61.2234 56.2359 61.1785V61.1675C56.3539 60.4841 56.4722 59.8011 56.5909 59.1185C56.6031 59.0369 56.6447 58.9626 56.7078 58.9095C56.771 58.8565 56.8514 58.8283 56.9339 58.8305C56.9535 58.829 56.9733 58.829 56.9929 58.8305C57.0378 58.838 57.0808 58.8543 57.1194 58.8785C57.158 58.9027 57.1914 58.9343 57.2177 58.9715C57.244 59.0087 57.2627 59.0507 57.2727 59.0952C57.2827 59.1396 57.2838 59.1856 57.2759 59.2305L57.0959 60.2735L56.9179 61.2985C56.9022 61.378 56.8594 61.4496 56.7969 61.5012C56.7344 61.5528 56.6559 61.5812 56.5749 61.5815L56.5779 61.5785ZM17.8669 61.5035C17.8146 61.5051 17.7628 61.4936 17.716 61.4703C17.6692 61.4469 17.629 61.4122 17.5989 61.3695C17.5412 61.298 17.5138 61.2068 17.5226 61.1154C17.5314 61.024 17.5756 60.9396 17.6459 60.8805C18.2034 60.4261 18.8134 60.0403 19.4629 59.7315C19.5088 59.7122 19.5581 59.7024 19.6079 59.7025C19.6738 59.7008 19.7388 59.7182 19.795 59.7527C19.8513 59.7871 19.8964 59.837 19.9249 59.8965C19.9623 59.9799 19.9661 60.0746 19.9355 60.1608C19.905 60.247 19.8425 60.3181 19.7609 60.3595C19.1626 60.6411 18.6022 60.9969 18.0929 61.4185C18.031 61.4743 17.9503 61.5047 17.8669 61.5035ZM92.5729 61.2645H92.4979C92.419 61.265 92.3422 61.2389 92.2801 61.1902C92.218 61.1415 92.1742 61.0732 92.1559 60.9965C92.0929 60.7125 92.0269 60.4265 91.9609 60.1385V60.1305C91.8719 59.7445 91.7809 59.3455 91.6959 58.9505C91.6852 58.9064 91.6834 58.8606 91.6907 58.8158C91.6979 58.7709 91.7139 58.728 91.7379 58.6895C91.7717 58.6387 91.8174 58.597 91.8712 58.568C91.9249 58.5391 91.9849 58.5238 92.0459 58.5235C92.1252 58.5243 92.2018 58.5523 92.2628 58.603C92.3238 58.6536 92.3655 58.7237 92.3809 58.8015C92.4679 59.2015 92.5609 59.6105 92.6509 60.0015C92.7159 60.2845 92.7809 60.5665 92.8429 60.8455C92.8537 60.8902 92.8552 60.9367 92.8475 60.9821C92.8397 61.0275 92.8229 61.0708 92.7979 61.1095C92.7462 61.1874 92.6662 61.2423 92.5749 61.2625L92.5729 61.2645ZM23.6459 60.0755C23.6119 60.0775 23.5778 60.0724 23.5459 60.0605C23.0749 59.9095 22.5835 59.8323 22.0889 59.8315C21.9439 59.8315 21.7979 59.8385 21.6549 59.8515H21.6269C21.5391 59.85 21.4551 59.8151 21.3921 59.7539C21.3291 59.6927 21.2919 59.6098 21.2879 59.522C21.2839 59.4343 21.3136 59.3484 21.3708 59.2817C21.4281 59.2151 21.5086 59.1728 21.5959 59.1635C21.7549 59.1505 21.9169 59.1435 22.0749 59.1435C22.6514 59.1428 23.2246 59.2298 23.7749 59.4015C23.8616 59.4297 23.9337 59.491 23.9755 59.5721C24.0172 59.6532 24.0253 59.7475 23.9979 59.8345C23.9695 59.9049 23.921 59.9653 23.8583 60.0082C23.7957 60.0511 23.7218 60.0745 23.6459 60.0755ZM106.619 58.2545H106.575C106.53 58.2512 106.487 58.2387 106.448 58.2176C106.408 58.1966 106.373 58.1676 106.346 58.1325C106.317 58.0951 106.296 58.0521 106.284 58.0061C106.272 57.9602 106.269 57.9123 106.277 57.8655C106.314 57.5255 106.355 57.1755 106.395 56.8375V56.8285C106.435 56.4885 106.477 56.1375 106.514 55.7925C106.523 55.7043 106.565 55.6227 106.631 55.5642C106.698 55.5058 106.784 55.4748 106.873 55.4775H106.901C106.994 55.4878 107.078 55.5344 107.137 55.6071C107.195 55.6798 107.223 55.7727 107.213 55.8655C107.132 56.6335 107.061 57.2825 106.975 57.9555C106.959 58.0388 106.915 58.1141 106.85 58.1686C106.785 58.2231 106.703 58.2534 106.618 58.2545H106.619ZM57.2899 57.4635H57.2299C57.185 57.456 57.142 57.4397 57.1034 57.4154C57.0648 57.3912 57.0314 57.3596 57.005 57.3224C56.9787 57.2853 56.96 57.2432 56.9501 57.1988C56.9401 57.1543 56.939 57.1083 56.9469 57.0635C57.0089 56.7065 57.0749 56.3455 57.1399 55.9965C57.1969 55.6885 57.2609 55.3395 57.3199 55.0045C57.3341 54.9233 57.3767 54.8497 57.44 54.797C57.5034 54.7442 57.5834 54.7157 57.6659 54.7165C57.6842 54.715 57.7026 54.715 57.7209 54.7165C57.7646 54.7232 57.8064 54.7386 57.844 54.7618C57.8817 54.785 57.9142 54.8155 57.9399 54.8515C57.9677 54.8895 57.9878 54.9327 57.9989 54.9785C58.0101 55.0243 58.0121 55.0719 58.0049 55.1185C57.8779 55.7665 57.7639 56.4245 57.6529 57.0605L57.6319 57.1785C57.6191 57.2593 57.5773 57.3328 57.5144 57.3852C57.4515 57.4376 57.3717 57.4655 57.2899 57.4635ZM91.6649 57.1795H91.5899C91.5108 57.1799 91.4338 57.1535 91.3716 57.1047C91.3093 57.0558 91.2654 56.9874 91.2469 56.9105C91.1189 56.3305 90.9769 55.6805 90.8009 54.8655C90.7905 54.821 90.7891 54.7749 90.7968 54.7299C90.8045 54.6849 90.8212 54.6419 90.8459 54.6035C90.8799 54.5536 90.9255 54.5127 90.9788 54.4843C91.0321 54.4559 91.0915 54.4408 91.1519 54.4405C91.2313 54.4413 91.308 54.4695 91.369 54.5204C91.4301 54.5712 91.4717 54.6415 91.4869 54.7195C91.6099 55.2885 91.7719 56.0355 91.9329 56.7635C91.9438 56.8085 91.9454 56.8553 91.9378 56.9009C91.9301 56.9466 91.9133 56.9903 91.8884 57.0293C91.8635 57.0684 91.8309 57.102 91.7927 57.1281C91.7544 57.1542 91.7113 57.1724 91.6659 57.1815L91.6649 57.1795ZM107.079 54.0895H107.035C106.942 54.0794 106.857 54.0329 106.798 53.9602C106.74 53.8874 106.712 53.7944 106.722 53.7015L106.737 53.5525C106.817 52.8605 106.887 52.2375 106.945 51.6125C106.954 51.5243 106.996 51.4427 107.062 51.3842C107.129 51.3258 107.215 51.2948 107.304 51.2975H107.332C107.425 51.3078 107.51 51.3545 107.568 51.4275C107.627 51.5004 107.654 51.5935 107.644 51.6865C107.564 52.3695 107.494 52.9865 107.435 53.6265L107.421 53.7755C107.414 53.8615 107.375 53.9418 107.312 54.0003C107.248 54.0588 107.165 54.091 107.079 54.0905V54.0895ZM58.0639 53.3435H58.0049C57.9611 53.3366 57.9192 53.321 57.8816 53.2977C57.844 53.2743 57.8114 53.2436 57.7859 53.2075C57.758 53.1693 57.7379 53.1259 57.7267 53.0799C57.7156 53.034 57.7136 52.9862 57.7209 52.9395L58.0819 51.0915L58.1229 50.8805C58.1379 50.8048 58.1778 50.7363 58.2364 50.686C58.295 50.6358 58.3688 50.6067 58.4459 50.6035C58.4715 50.6033 58.497 50.6063 58.5219 50.6125C58.569 50.6228 58.6135 50.6423 58.653 50.67C58.6925 50.6976 58.7261 50.7328 58.7519 50.7735C58.7741 50.809 58.7889 50.8487 58.7954 50.8901C58.802 50.9315 58.8001 50.9738 58.7899 51.0145L58.5899 52.0445L58.3899 53.0745C58.3772 53.1512 58.3372 53.2207 58.2773 53.2703C58.2174 53.3199 58.1416 53.3462 58.0639 53.3445V53.3435ZM90.7709 53.0755H90.6959C90.6168 53.0759 90.5398 53.0495 90.4776 53.0007C90.4153 52.9518 90.3714 52.8834 90.3529 52.8065C90.2789 52.4635 90.2039 52.1235 90.1299 51.7835C90.0559 51.4435 89.9809 51.1045 89.9069 50.7615C89.896 50.7166 89.8944 50.6699 89.9021 50.6243C89.9098 50.5788 89.9268 50.5353 89.9519 50.4965C89.9852 50.4473 90.0298 50.4068 90.082 50.3784C90.1342 50.35 90.1925 50.3346 90.2519 50.3335C90.3313 50.3343 90.408 50.3625 90.469 50.4134C90.5301 50.4642 90.5717 50.5345 90.5869 50.6125L90.6789 51.0345C90.7949 51.5685 90.9149 52.1205 91.0339 52.6565C91.0446 52.7016 91.0461 52.7483 91.0383 52.794C91.0306 52.8397 91.0137 52.8834 90.9887 52.9224C90.9636 52.9614 90.931 52.995 90.8928 53.0211C90.8545 53.0472 90.8113 53.0654 90.7659 53.0745L90.7709 53.0755ZM107.541 49.9265H107.497C107.404 49.9161 107.319 49.8696 107.261 49.7969C107.202 49.7242 107.174 49.6314 107.184 49.5385C107.261 48.8165 107.355 48.0815 107.437 47.4485C107.447 47.3665 107.486 47.2909 107.548 47.2358C107.609 47.1806 107.688 47.1496 107.771 47.1485C107.789 47.1472 107.806 47.1472 107.824 47.1485C107.869 47.1532 107.914 47.1672 107.954 47.1895C107.994 47.2118 108.029 47.242 108.057 47.2783C108.085 47.3146 108.105 47.3561 108.117 47.4005C108.128 47.4449 108.131 47.4911 108.124 47.5365C108.076 47.9025 108.032 48.2725 107.99 48.6305C107.952 48.9505 107.913 49.2815 107.871 49.6105C107.871 49.6531 107.862 49.6953 107.845 49.7346C107.828 49.7738 107.804 49.8092 107.773 49.8387C107.742 49.8682 107.706 49.8912 107.666 49.9063C107.626 49.9214 107.584 49.9282 107.541 49.9265ZM58.8689 49.2395H58.7939C58.7483 49.2306 58.705 49.2127 58.6666 49.1866C58.6282 49.1605 58.5954 49.1269 58.5704 49.0879C58.5453 49.0488 58.5285 49.005 58.5208 48.9592C58.5132 48.9134 58.5149 48.8666 58.5259 48.8215C58.6029 48.4695 58.6759 48.1125 58.7469 47.7665C58.8149 47.4385 58.8849 47.0985 58.9579 46.7665C58.9731 46.6885 59.0147 46.6182 59.0757 46.5674C59.1368 46.5165 59.2135 46.4883 59.2929 46.4875C59.3201 46.4874 59.3473 46.4904 59.3739 46.4965C59.4195 46.5053 59.4628 46.5233 59.5012 46.5494C59.5396 46.5754 59.5723 46.609 59.5974 46.6481C59.6225 46.6872 59.6393 46.7309 59.647 46.7767C59.6546 46.8225 59.6529 46.8694 59.6419 46.9145C59.5629 47.2725 59.4859 47.6415 59.4129 47.9975C59.3469 48.3135 59.2799 48.6385 59.2129 48.9585C59.1969 49.038 59.154 49.1095 59.0913 49.1609C59.0286 49.2123 58.95 49.2404 58.8689 49.2405V49.2395ZM89.8779 48.9855H89.8029C89.7239 48.9859 89.6471 48.9597 89.5848 48.9111C89.5226 48.8624 89.4786 48.7942 89.4599 48.7175C89.2849 47.9085 89.1429 47.2785 88.9979 46.6725C88.9872 46.6274 88.9857 46.5806 88.9934 46.5349C89.0012 46.4892 89.0181 46.4456 89.0431 46.4066C89.0681 46.3675 89.1008 46.334 89.139 46.3078C89.1773 46.2817 89.2205 46.2636 89.2659 46.2545C89.2925 46.2484 89.3196 46.2454 89.3469 46.2455C89.4263 46.246 89.5032 46.274 89.5644 46.3247C89.6256 46.3753 89.6675 46.4455 89.6829 46.5235C89.7589 46.8745 89.8399 47.2235 89.9189 47.5695C89.9979 47.9155 90.0719 48.2315 90.1449 48.5695C90.1556 48.6146 90.1571 48.6613 90.1493 48.707C90.1416 48.7527 90.1247 48.7964 90.0997 48.8354C90.0746 48.8744 90.042 48.908 90.0038 48.9341C89.9655 48.9602 89.9223 48.9784 89.8769 48.9875L89.8779 48.9855ZM108.063 45.7625H108.018C107.922 45.7472 107.837 45.6947 107.78 45.6165C107.754 45.582 107.736 45.5427 107.725 45.501C107.715 45.4593 107.713 45.4159 107.72 45.3735C107.811 44.7235 107.91 44.0605 108.032 43.2845C108.044 43.203 108.086 43.1288 108.149 43.0758C108.212 43.0228 108.292 42.9946 108.375 42.9965C108.395 42.995 108.414 42.995 108.434 42.9965C108.479 43.004 108.522 43.0203 108.56 43.0445C108.599 43.0687 108.632 43.1003 108.659 43.1375C108.685 43.1747 108.704 43.2167 108.714 43.2612C108.724 43.3056 108.725 43.3516 108.717 43.3965C108.599 44.1215 108.503 44.7515 108.417 45.4715C108.399 45.5529 108.355 45.626 108.291 45.679C108.226 45.732 108.146 45.7617 108.063 45.7635V45.7625ZM59.7459 45.1365C59.7201 45.1389 59.6941 45.1341 59.6709 45.1225C59.6253 45.1134 59.5821 45.0952 59.5437 45.069C59.5054 45.0428 59.4727 45.0091 59.4477 44.97C59.4227 44.9309 59.4058 44.8871 59.3981 44.8413C59.3904 44.7955 59.392 44.7486 59.4029 44.7035C59.5029 44.2245 59.6139 43.7515 59.7189 43.2945C59.7689 43.0785 59.8189 42.8675 59.8639 42.6605C59.8812 42.585 59.9237 42.5177 59.9845 42.4697C60.0452 42.4217 60.1205 42.3959 60.1979 42.3965C60.2262 42.3963 60.2544 42.3997 60.2819 42.4065C60.3256 42.4163 60.3669 42.4348 60.4033 42.4609C60.4398 42.487 60.4706 42.5202 60.4939 42.5585C60.518 42.5979 60.534 42.6417 60.5411 42.6874C60.5481 42.733 60.546 42.7796 60.5349 42.8245C60.4869 43.0371 60.4376 43.2525 60.3869 43.4705V43.4775C60.2869 43.9295 60.1749 44.3965 60.0749 44.8695C60.0644 44.9475 60.0245 45.0186 59.9634 45.0682C59.9022 45.1179 59.8244 45.1423 59.7459 45.1365ZM88.9529 44.8975H88.8779C88.7988 44.8979 88.7218 44.8715 88.6596 44.8227C88.5973 44.7738 88.5534 44.7054 88.5349 44.6285C88.4639 44.3285 88.3939 44.0285 88.3269 43.7385V43.7295V43.7225C88.2419 43.3535 88.1539 42.9725 88.0629 42.5995C88.0411 42.5105 88.0556 42.4165 88.103 42.3382C88.1504 42.2598 88.227 42.2035 88.3159 42.1815C88.341 42.175 88.3669 42.1716 88.3929 42.1715C88.4704 42.1726 88.5454 42.1988 88.6068 42.2463C88.6681 42.2937 88.7123 42.3597 88.7329 42.4345C88.8799 43.0345 89.0519 43.7545 89.2089 44.4795C89.2306 44.5684 89.2162 44.6624 89.1688 44.7408C89.1214 44.8191 89.0448 44.8755 88.9559 44.8975H88.9529ZM118.859 44.3445H118.815C118.731 44.3458 118.649 44.3159 118.586 44.2604C118.522 44.205 118.482 44.1281 118.472 44.0445C118.412 43.5775 118.306 42.8445 118.144 41.9845C118.129 41.8922 118.15 41.7975 118.203 41.7205C118.229 41.6835 118.262 41.6522 118.3 41.6285C118.339 41.6048 118.381 41.5891 118.426 41.5825C118.446 41.5809 118.466 41.5809 118.486 41.5825C118.568 41.5804 118.649 41.6085 118.712 41.6616C118.775 41.7147 118.816 41.789 118.828 41.8705C118.955 42.5535 119.065 43.2565 119.156 43.9595C119.163 44.0064 119.161 44.0543 119.149 44.1003C119.137 44.1462 119.115 44.1892 119.086 44.2265C119.058 44.2608 119.024 44.2891 118.985 44.3096C118.946 44.3301 118.904 44.3423 118.86 44.3455L118.859 44.3445ZM108.731 41.6135H108.672C108.628 41.6066 108.586 41.591 108.549 41.5677C108.511 41.5443 108.478 41.5136 108.453 41.4775C108.425 41.4394 108.405 41.3962 108.394 41.3504C108.383 41.3045 108.381 41.257 108.389 41.2105C108.529 40.4335 108.679 39.7355 108.835 39.1355C108.845 39.0913 108.865 39.0497 108.891 39.013C108.918 38.9763 108.952 38.9453 108.991 38.9217C109.029 38.8981 109.072 38.8823 109.117 38.8754C109.162 38.8686 109.208 38.8706 109.252 38.8815C109.296 38.8914 109.337 38.91 109.373 38.9361C109.41 38.9622 109.44 38.9953 109.464 39.0335C109.488 39.0729 109.504 39.1166 109.511 39.1623C109.519 39.2079 109.517 39.2546 109.506 39.2995C109.347 39.9505 109.206 40.6335 109.074 41.3285C109.057 41.4072 109.014 41.4779 108.952 41.5297C108.89 41.5814 108.813 41.6112 108.733 41.6145L108.731 41.6135ZM60.6989 41.0605C60.6685 41.0626 60.6381 41.0578 60.6099 41.0465C60.5661 41.0364 60.5248 41.0177 60.4884 40.9914C60.452 40.9652 60.4212 40.9318 60.3979 40.8935C60.3738 40.8541 60.3578 40.8102 60.3507 40.7646C60.3437 40.7189 60.3458 40.6723 60.3569 40.6275C60.4082 40.4275 60.4589 40.2275 60.5089 40.0275C60.6339 39.5275 60.7509 39.0575 60.8779 38.6025C60.8991 38.5262 60.9449 38.459 61.0082 38.4114C61.0715 38.3639 61.1487 38.3386 61.2279 38.3395C61.2555 38.3394 61.283 38.3424 61.3099 38.3485C61.3551 38.3587 61.3977 38.3783 61.435 38.4061C61.4722 38.4338 61.5031 38.469 61.5259 38.5095C61.5721 38.5922 61.5853 38.6894 61.5629 38.7815C61.5076 39.0028 61.4509 39.2258 61.3929 39.4505C61.2799 39.8925 61.1639 40.3505 61.0559 40.8105C61.029 40.8834 60.9805 40.9465 60.9169 40.9913C60.8534 41.0362 60.7777 41.0606 60.6999 41.0615L60.6989 41.0605ZM87.8989 40.8215C87.8204 40.8195 87.7446 40.7923 87.6828 40.7438C87.621 40.6953 87.5765 40.6282 87.5559 40.5525L87.5129 40.3885C87.3519 39.7695 87.1859 39.1305 87.0349 38.5235C87.0138 38.4326 87.0282 38.3372 87.0752 38.2566C87.1223 38.1761 87.1984 38.1167 87.2879 38.0905C87.315 38.0838 87.3429 38.0805 87.3709 38.0805C87.4497 38.081 87.5263 38.107 87.5892 38.1546C87.6521 38.2021 87.6979 38.2687 87.7199 38.3445C87.9199 39.0615 88.0909 39.7445 88.2409 40.3745C88.2521 40.4191 88.2543 40.4655 88.2474 40.511C88.2406 40.5565 88.2247 40.6001 88.2009 40.6395C88.1775 40.678 88.1465 40.7113 88.1099 40.7376C88.0733 40.7639 88.0318 40.7826 87.9879 40.7925C87.9619 40.8126 87.9298 40.8236 87.8969 40.8235L87.8989 40.8215ZM118.133 40.2215H118.059C117.98 40.2219 117.903 40.1955 117.841 40.1467C117.778 40.0978 117.734 40.0294 117.716 39.9525C117.549 39.2855 117.365 38.5835 117.15 37.9675C117.122 37.8805 117.13 37.7861 117.172 37.7049C117.214 37.6237 117.286 37.5625 117.373 37.5345C117.405 37.5237 117.439 37.5179 117.473 37.5175C117.546 37.5185 117.617 37.5423 117.676 37.5855C117.735 37.6287 117.779 37.6891 117.802 37.7585C118.002 38.3635 118.202 39.0515 118.383 39.8025C118.404 39.8916 118.389 39.9854 118.342 40.0636C118.294 40.1419 118.218 40.1982 118.129 40.2205L118.133 40.2215ZM109.733 37.5505C109.699 37.5524 109.665 37.5473 109.633 37.5355C109.544 37.5052 109.472 37.4413 109.43 37.3577C109.388 37.274 109.381 37.1773 109.41 37.0885C109.625 36.4021 109.904 35.7375 110.244 35.1035C110.274 35.0501 110.317 35.0056 110.37 34.9746C110.423 34.9437 110.483 34.9274 110.544 34.9275C110.604 34.9278 110.663 34.9422 110.717 34.9695C110.797 35.0162 110.856 35.0922 110.881 35.1814C110.906 35.2706 110.895 35.366 110.851 35.4475C110.529 36.0427 110.265 36.6671 110.062 37.3125C110.039 37.3822 109.994 37.443 109.935 37.4865C109.876 37.53 109.804 37.5541 109.731 37.5555L109.733 37.5505ZM61.7579 37.0035C61.7274 37.0059 61.6968 37.0008 61.6689 36.9885C61.625 36.9772 61.5838 36.9571 61.5479 36.9294C61.5119 36.9017 61.482 36.8671 61.4599 36.8275C61.4367 36.7867 61.4222 36.7416 61.4172 36.695C61.4122 36.6484 61.4169 36.6012 61.4309 36.5565C61.6219 35.8785 61.8179 35.1825 62.0119 34.5415C62.0371 34.4691 62.0841 34.4063 62.1464 34.3617C62.2087 34.3172 62.2833 34.293 62.3599 34.2925C62.3882 34.2923 62.4164 34.2957 62.4439 34.3025C62.5301 34.3324 62.6021 34.3933 62.6461 34.4733C62.69 34.5532 62.7028 34.6466 62.6819 34.7355C62.4889 35.3745 62.2939 36.0525 62.1009 36.7495C62.079 36.8233 62.0337 36.888 61.9718 36.9338C61.91 36.9796 61.8349 37.0041 61.7579 37.0035ZM86.9279 36.7795H86.8089C86.7337 36.78 86.6605 36.7552 86.601 36.7091C86.5415 36.6631 86.4992 36.5984 86.4809 36.5255C86.2689 35.7755 86.0809 35.1255 85.8999 34.5255C85.8861 34.4841 85.8807 34.4404 85.8842 34.3969C85.8876 34.3535 85.8998 34.3111 85.9199 34.2725C85.9424 34.2295 85.9732 34.1916 86.0107 34.1608C86.0481 34.13 86.0914 34.1071 86.1379 34.0935C86.1701 34.0826 86.2039 34.0769 86.2379 34.0765C86.313 34.0779 86.3857 34.1036 86.445 34.1498C86.5043 34.1959 86.547 34.26 86.5669 34.3325L86.6279 34.5325C86.8059 35.1215 86.9899 35.7325 87.1629 36.3445C87.1872 36.4334 87.176 36.5284 87.1316 36.6092C87.0872 36.69 87.013 36.7503 86.9249 36.7775L86.9279 36.7795ZM116.715 36.2575C116.65 36.2576 116.586 36.2394 116.531 36.2052C116.476 36.1709 116.432 36.1218 116.403 36.0635C116.132 35.4539 115.776 34.8862 115.345 34.3775C115.301 34.3267 115.273 34.2644 115.263 34.1981C115.253 34.1317 115.262 34.0639 115.29 34.0026C115.317 33.9413 115.361 33.889 115.417 33.8518C115.473 33.8146 115.538 33.794 115.605 33.7925C115.655 33.793 115.704 33.8042 115.749 33.8253C115.794 33.8463 115.834 33.8767 115.867 33.9145C116.338 34.4689 116.729 35.0865 117.029 35.7495C117.051 35.7916 117.063 35.8379 117.066 35.8852C117.069 35.9325 117.062 35.9799 117.046 36.0245C117.031 36.0666 117.007 36.105 116.976 36.1373C116.945 36.1697 116.907 36.1953 116.866 36.2125C116.821 36.2405 116.769 36.2558 116.716 36.2565L116.715 36.2575ZM111.904 34.0785C111.848 34.0775 111.794 34.0635 111.745 34.0376C111.696 34.0118 111.653 33.9747 111.621 33.9295C111.57 33.8525 111.55 33.7594 111.565 33.6685C111.573 33.6243 111.589 33.5822 111.614 33.545C111.639 33.5078 111.672 33.4763 111.71 33.4525C112.265 33.0296 112.938 32.7899 113.635 32.7665C113.723 32.7664 113.812 32.7711 113.9 32.7805C113.946 32.7842 113.99 32.7974 114.03 32.8192C114.071 32.8411 114.106 32.8712 114.134 32.9075C114.192 32.9815 114.22 33.0747 114.212 33.1685C114.202 33.2564 114.16 33.3376 114.094 33.3959C114.027 33.4542 113.941 33.4855 113.853 33.4835H113.825C113.762 33.4762 113.699 33.4725 113.636 33.4725C113.083 33.5029 112.552 33.6987 112.112 34.0345C112.046 34.0612 111.976 34.0758 111.905 34.0775L111.904 34.0785ZM62.9639 32.9895C62.9299 32.9914 62.8958 32.9863 62.8639 32.9745C62.7774 32.9453 62.7057 32.8836 62.6639 32.8025C62.6426 32.7628 62.6296 32.7192 62.6256 32.6743C62.6217 32.6295 62.6269 32.5843 62.6409 32.5415C62.9009 31.7415 63.1139 31.1095 63.3109 30.5415C63.3343 30.4738 63.3781 30.415 63.4363 30.3733C63.4945 30.3315 63.5643 30.3089 63.6359 30.3085C63.6777 30.3083 63.7192 30.3165 63.7579 30.3325C63.802 30.3479 63.8425 30.3722 63.8769 30.4038C63.9113 30.4355 63.9388 30.4738 63.9579 30.5165C63.9773 30.5574 63.9879 30.602 63.9891 30.6472C63.9903 30.6925 63.9821 30.7376 63.9649 30.7795C63.7709 31.3245 63.5649 31.9365 63.2949 32.7645C63.27 32.8315 63.2248 32.889 63.1657 32.9292C63.1065 32.9693 63.0364 32.99 62.9649 32.9885L62.9639 32.9895ZM85.5869 32.7655C85.5135 32.7675 85.4415 32.7452 85.3821 32.7019C85.3228 32.6587 85.2794 32.597 85.2589 32.5265C84.9909 31.7075 84.7799 31.0995 84.5729 30.5575C84.5429 30.4703 84.548 30.3748 84.587 30.2913C84.6259 30.2077 84.6958 30.1425 84.7819 30.1095C84.8187 30.0974 84.8572 30.0913 84.8959 30.0915C84.9681 30.0898 85.0391 30.1108 85.0989 30.1515C85.1586 30.1922 85.204 30.2506 85.2289 30.3185C85.4429 30.9185 85.6869 31.6045 85.9139 32.3035C85.9393 32.3924 85.9305 32.4876 85.8892 32.5703C85.8479 32.653 85.7772 32.7173 85.6909 32.7505C85.6579 32.7624 85.6228 32.7671 85.5879 32.7645L85.5869 32.7655ZM64.3459 29.0335C64.3041 29.0327 64.2631 29.0225 64.2259 29.0035C64.1837 28.987 64.1451 28.9624 64.1125 28.931C64.0799 28.8995 64.0539 28.8619 64.0359 28.8203C64.018 28.7787 64.0085 28.734 64.0079 28.6887C64.0074 28.6434 64.0159 28.5985 64.0329 28.5565C64.3389 27.7915 64.5939 27.1695 64.8329 26.6005C64.8595 26.5382 64.904 26.4852 64.9609 26.4484C65.0177 26.4115 65.0842 26.3924 65.1519 26.3935C65.2009 26.3933 65.2495 26.4028 65.2949 26.4215C65.3797 26.4595 65.446 26.5296 65.4793 26.6163C65.5126 26.703 65.5103 26.7994 65.4729 26.8845C65.1729 27.5705 64.9139 28.2005 64.6839 28.8095C64.6517 28.8728 64.6037 28.9268 64.5444 28.9661C64.4852 29.0053 64.4168 29.0285 64.3459 29.0335ZM84.1539 28.8245C84.0835 28.8224 84.0152 28.8002 83.9571 28.7605C83.8989 28.7208 83.8534 28.6653 83.8259 28.6005C83.5069 27.8005 83.2549 27.2145 83.0069 26.6905C82.9694 26.6054 82.9671 26.509 83.0005 26.4223C83.0338 26.3356 83.1001 26.2655 83.1849 26.2275C83.2301 26.2084 83.2788 26.1985 83.3279 26.1985C83.3961 26.1964 83.4633 26.2149 83.5208 26.2514C83.5784 26.288 83.6237 26.3409 83.6509 26.4035C83.9409 27.0295 84.2159 27.7035 84.4709 28.3435C84.489 28.3874 84.4979 28.4345 84.497 28.482C84.4962 28.5295 84.4856 28.5763 84.4659 28.6195C84.4482 28.6596 84.4224 28.6957 84.39 28.7253C84.3576 28.7549 84.3195 28.7774 84.2779 28.7915C84.2611 28.8046 84.2418 28.8143 84.2212 28.82C84.2006 28.8256 84.1791 28.8272 84.1579 28.8245H84.1539ZM66.0329 25.1985C65.9844 25.1975 65.9364 25.1883 65.8909 25.1715H65.8839C65.8428 25.1515 65.8062 25.1236 65.7761 25.0892C65.746 25.0549 65.7232 25.0148 65.7089 24.9715C65.6954 24.9288 65.6908 24.8838 65.6953 24.8393C65.6997 24.7948 65.7132 24.7516 65.7349 24.7125C66.0509 24.0795 66.3909 23.4515 66.7469 22.8465C66.7782 22.7947 66.8222 22.7518 66.8747 22.7217C66.9271 22.6916 66.9864 22.6754 67.0469 22.6745C67.1093 22.6747 67.1704 22.6927 67.2229 22.7265C67.2624 22.7497 67.2969 22.7806 67.3244 22.8174C67.3518 22.8541 67.3717 22.8959 67.3829 22.9404C67.3941 22.9848 67.3963 23.0311 67.3894 23.0764C67.3825 23.1218 67.3667 23.1653 67.3429 23.2045C67.0279 23.7345 66.7069 24.3305 66.3599 25.0255C66.3205 25.0756 66.271 25.1168 66.2147 25.1466C66.1584 25.1764 66.0965 25.1941 66.0329 25.1985ZM82.4329 25.0195C82.3701 25.0175 82.3087 25.0001 82.2541 24.9689C82.1996 24.9377 82.1535 24.8936 82.1199 24.8405C81.7759 24.1965 81.4299 23.5945 81.0919 23.0495C81.0419 22.9723 81.0247 22.8784 81.0439 22.7885C81.0537 22.7439 81.0723 22.7018 81.0985 22.6646C81.1248 22.6273 81.1582 22.5957 81.1969 22.5715C81.2533 22.5352 81.3188 22.5158 81.3859 22.5155C81.4436 22.5157 81.5003 22.5307 81.5507 22.5588C81.601 22.587 81.6434 22.6275 81.6739 22.6765C82.0669 23.3015 82.4129 23.9015 82.7309 24.5125C82.7529 24.5537 82.7665 24.5989 82.7708 24.6454C82.7751 24.692 82.77 24.7389 82.7559 24.7835C82.7425 24.828 82.7201 24.8693 82.6902 24.9049C82.6603 24.9405 82.6234 24.9696 82.5819 24.9905C82.5331 25.007 82.4823 25.0167 82.4309 25.0195H82.4329ZM68.1799 21.6195C68.1418 21.6219 68.1036 21.6165 68.0676 21.6036C68.0317 21.5907 67.9988 21.5706 67.9709 21.5445C67.8964 21.4887 67.8468 21.4058 67.8327 21.3138C67.8187 21.2218 67.8414 21.1279 67.8959 21.0525C68.3158 20.4807 68.7789 19.9418 69.2809 19.4405C69.3472 19.3808 69.4339 19.3488 69.523 19.3512C69.6122 19.3536 69.6971 19.3901 69.7601 19.4532C69.8231 19.5164 69.8595 19.6013 69.8617 19.6905C69.8639 19.7797 69.8317 19.8663 69.7719 19.9325C69.295 20.4091 68.8569 20.9231 68.4619 21.4695C68.4302 21.5153 68.3877 21.5527 68.3382 21.5783C68.2887 21.604 68.2336 21.6171 68.1779 21.6165L68.1799 21.6195ZM80.1799 21.4995C80.1276 21.5011 80.0758 21.4896 80.029 21.4663C79.9822 21.4429 79.942 21.4082 79.9119 21.3655C79.496 20.8322 79.0324 20.3378 78.5269 19.8885C78.4582 19.8267 78.4165 19.7404 78.4109 19.6481C78.4053 19.5559 78.4362 19.4651 78.4969 19.3955C78.5288 19.3593 78.568 19.3304 78.612 19.3105C78.656 19.2907 78.7037 19.2805 78.7519 19.2805C78.8383 19.2816 78.9218 19.3119 78.9889 19.3665C79.5145 19.8488 80.0016 20.3714 80.4459 20.9295C80.5018 21.0034 80.5269 21.0961 80.5157 21.1881C80.5045 21.2801 80.4579 21.3642 80.3859 21.4225C80.3587 21.448 80.3266 21.4677 80.2915 21.4804C80.2564 21.4932 80.2191 21.4986 80.1819 21.4965L80.1799 21.4995ZM71.1459 18.7955C71.0841 18.7969 71.0232 18.7809 70.9701 18.7492C70.917 18.7176 70.8739 18.6715 70.8459 18.6165C70.8232 18.5764 70.8086 18.5322 70.8031 18.4865C70.7975 18.4408 70.8011 18.3944 70.8136 18.3501C70.826 18.3057 70.8471 18.2643 70.8757 18.2281C70.9042 18.192 70.9396 18.1619 70.9799 18.1395C71.5985 17.7732 72.2791 17.5237 72.9879 17.4035H73.0319C73.0499 17.4021 73.0679 17.4021 73.0859 17.4035C73.1742 17.4056 73.2585 17.4406 73.3223 17.5016C73.3862 17.5626 73.425 17.6452 73.4313 17.7333C73.4375 17.8213 73.4107 17.9086 73.3561 17.9779C73.3015 18.0473 73.223 18.0939 73.1359 18.1085H73.1059C72.4785 18.2117 71.8769 18.4347 71.3339 18.7655L71.3039 18.7715C71.2521 18.7846 71.1992 18.7927 71.1459 18.7955ZM77.0729 18.7815C77.0153 18.7806 76.9589 18.7651 76.9089 18.7365C76.3349 18.4262 75.7151 18.2095 75.0729 18.0945C75.028 18.087 74.985 18.0706 74.9464 18.0464C74.9078 18.0222 74.8744 17.9906 74.848 17.9534C74.8217 17.9163 74.803 17.8742 74.7931 17.8298C74.7831 17.7853 74.782 17.7393 74.7899 17.6945C74.8014 17.6122 74.8429 17.537 74.9063 17.4833C74.9698 17.4296 75.0508 17.4012 75.1339 17.4035C75.1535 17.402 75.1732 17.402 75.1929 17.4035C75.9079 17.5275 76.5972 17.7695 77.2329 18.1195C77.3142 18.165 77.3749 18.2399 77.4026 18.3288C77.4303 18.4177 77.4229 18.5139 77.3819 18.5975C77.3511 18.6535 77.3058 18.7001 77.2507 18.7325C77.1956 18.7649 77.1328 18.7818 77.0689 18.7815H77.0729Z" fill="#3D5CFF"/>
<path d="M24.8956 54.4743C20.6215 46.5144 18.6319 37.5275 19.1466 28.5073C19.1466 28.5073 17.3296 15.8743 12.4296 15.6033C7.5296 15.3323 6.5466 16.8743 4.4466 23.6023C2.3466 30.3303 5.4296 53.0743 10.1956 64.7313C14.9616 76.3883 26.2756 85.7593 26.2756 85.7593L41.0056 67.5373C41.0056 67.5373 29.2886 62.7023 24.8956 54.4743Z" fill="#DA5742"/>
<path d="M4.93759 43.6133C5.92059 41.1953 8.16959 35.6742 9.77759 32.4653C11.8786 28.2572 12.0126 27.4062 12.0126 27.4062L3.85059 32.8232C3.99959 36.0772 4.37159 39.7933 4.93759 43.6133Z" fill="#C43D28"/>
<path d="M17.7617 76.9818C20.3349 80.1481 23.179 83.0841 26.2617 85.7568L41.0107 67.5348C38.6755 66.4387 36.4296 65.1614 34.2937 63.7148L17.7617 76.9818Z" fill="#C43D28"/>
<path d="M37.0936 64.7305C37.0936 64.7305 49.7086 70.0305 56.7086 69.7595C64.5971 69.5671 72.4478 70.9103 79.8236 73.7145C87.6726 76.6695 93.6896 86.6235 95.9386 91.2645C98.1876 95.9055 100.005 105.024 100.005 105.024H78.2746L82.4746 128.051H27.9786L35.9616 93.2305L22.6616 82.9825L37.0936 64.7305Z" fill="#3D5CFF"/>
<path d="M56.7086 32.0327C51.2576 32.7327 49.9766 39.7487 49.9766 39.7487C49.9766 39.7487 42.0976 38.8977 38.7766 42.8377C34.9936 47.3297 41.0256 50.5537 41.0256 50.5537C41.0256 50.5537 34.9486 48.9857 34.4426 52.9407C33.8766 57.2987 37.5256 59.1187 53.0746 62.4767C68.6236 65.8347 87.9556 71.3117 91.0386 66.8197C94.8066 61.3277 83.4726 58.9547 83.4726 58.9547C83.4726 58.9547 89.2216 59.5217 89.2216 54.5967C89.2216 49.6717 77.5876 44.2097 77.5876 44.2097C77.5876 44.2097 77.5876 34.1097 69.8726 32.9867C64.4366 32.2107 63.7066 34.1357 63.7066 34.1357C63.7066 34.1357 62.1596 31.3307 56.7086 32.0327Z" fill="#F99A3D"/>
<path d="M78.3788 105.024H83.4428L75.5488 90.6973L78.3788 105.024Z" fill="#224BF4"/>
<path d="M30.0185 73.6836L28.9615 75.0116L28.2915 87.3116L35.9785 93.2336L27.9785 128.034H29.0355L32.3275 124.527L52.0785 123.275L64.4995 128.036H70.1735L48.4275 92.2936L30.0185 73.6836Z" fill="#224BF4"/>
<path d="M52.4937 57.0159C53.3277 60.6719 57.3937 62.4929 57.3937 62.4929L56.1227 71.0589C56.7437 72.0884 57.6308 72.9315 58.6906 73.4994C59.7503 74.0673 60.9436 74.339 62.1447 74.2859C64.3344 74.2525 66.4319 73.399 68.0227 71.8939L69.2887 59.4029C69.2887 59.4029 74.3377 59.2689 75.8717 55.1949C76.9437 52.3599 75.3057 49.8669 72.7887 49.7179C72.0461 49.6978 71.3123 49.8833 70.6684 50.2538C70.0244 50.6244 69.4954 51.1657 69.1397 51.8179C68.2829 51.4762 67.5395 50.9005 66.9943 50.1564C66.4492 49.4123 66.1243 48.5299 66.0567 47.6099C65.6397 44.2369 65.7737 41.5809 63.9567 41.0099C63.4153 40.8563 62.8424 40.853 62.2992 41.0003C61.7561 41.1475 61.2633 41.4399 60.8737 41.8459C60.863 41.6098 60.8013 41.3789 60.6928 41.1689C60.5843 40.9589 60.4317 40.7749 60.2454 40.6296C60.059 40.4842 59.8435 40.3809 59.6134 40.3267C59.3834 40.2726 59.1443 40.2689 58.9127 40.3159C57.0957 40.5999 56.5297 43.5389 55.8297 44.6739C54.98 45.9165 53.8333 46.9271 52.4937 47.6139C52.4937 47.6139 51.6597 53.3739 52.4937 57.0159Z" fill="#DA5742"/>
<path opacity="0.55" d="M50.2298 129.141C48.5956 129.078 46.9863 128.719 45.4798 128.082C41.3108 126.293 38.6288 122.256 38.1208 117.008C37.5858 111.509 39.5788 106.193 43.0808 103.771C45.4795 102.212 48.0066 100.859 50.6348 99.7284L50.7038 99.6964C55.0618 97.6704 59.1778 95.7574 61.1298 92.1304C59.3867 91.7381 57.7689 90.9174 56.4228 89.7424C54.4348 88.0494 53.4888 86.0134 53.8908 84.2954C54.0441 83.3524 54.5283 82.4949 55.2566 81.8766C55.9848 81.2583 56.9095 80.9197 57.8648 80.9214C58.1307 80.9214 58.3959 80.9468 58.6568 80.9974C61.1728 81.4894 63.5138 84.2584 62.7088 89.1754C62.5685 90.0425 62.3233 90.8893 61.9788 91.6974C62.2262 91.7254 62.4749 91.7397 62.7238 91.7404C63.299 91.7508 63.8707 91.6489 64.4068 91.4404C65.7938 90.8784 66.5948 89.5724 66.7898 87.5594C67.1468 83.6674 66.0708 80.5864 63.6768 78.6504C61.521 77.063 58.8912 76.2524 56.2158 76.3504C54.4116 76.3592 52.6193 76.6435 50.9008 77.1934C49.8097 77.5501 48.6707 77.7393 47.5228 77.7544C46.8427 77.76 46.165 77.6722 45.5088 77.4934C44.8754 77.3554 44.2836 77.0697 43.7815 76.6595C43.2795 76.2494 42.8814 75.7265 42.6198 75.1334C41.9348 73.3184 42.8548 70.4114 47.7278 68.1934L47.9668 68.7014C43.4348 70.7664 42.5448 73.3434 43.1548 74.9234C43.6898 76.3154 45.3628 77.1794 47.5208 77.1794C48.6141 77.1645 49.6987 76.9824 50.7368 76.6394C52.5061 76.076 54.3511 75.7866 56.2078 75.7814C59.0159 75.6822 61.7747 76.537 64.0348 78.2064C66.5798 80.2654 67.7288 83.5164 67.3568 87.6064C67.1048 90.3714 65.7348 91.5034 64.6348 91.9674C64.0181 92.1984 63.3634 92.3113 62.7048 92.3004C62.3841 92.2999 62.0638 92.2786 61.7458 92.2364C59.7458 96.1284 55.4788 98.1084 50.9628 100.206C48.3402 101.332 45.8186 102.68 43.4258 104.235C40.1348 106.484 38.1948 111.713 38.7018 116.949C39.1938 121.976 41.7558 125.849 45.7318 127.56C47.1797 128.164 48.7227 128.507 50.2898 128.574L50.2308 129.14L50.2298 129.141ZM57.8108 81.4934C56.9999 81.5302 56.2254 81.8411 55.614 82.3751C55.0026 82.9091 54.5904 83.6347 54.4448 84.4334C54.1018 85.9464 54.9818 87.7764 56.7988 89.3334C58.1128 90.477 59.6956 91.2683 61.3988 91.6334C61.769 90.8324 62.0249 89.9835 62.1588 89.1114C62.9038 84.5754 60.8128 82.0254 58.5588 81.5744C58.3134 81.5192 58.0624 81.492 57.8108 81.4934Z" fill="#EAEAFF"/>
<path opacity="0.55" d="M61.9358 125.827C59.3217 125.918 56.7217 125.407 54.3358 124.335C52.7788 123.591 52.0168 121.719 52.1948 119.067C52.4328 115.526 54.2428 111.034 57.0358 107.053C60.2128 102.545 64.2438 99.3234 68.3848 97.9804C70.0195 97.4418 71.7278 97.1598 73.4488 97.1444C73.8798 97.1444 74.3108 97.1644 74.7298 97.2034C79.3178 94.7284 83.9788 91.5474 86.9878 85.0854C87.7695 83.269 87.8489 81.2271 87.2108 79.3554L87.7468 79.1914C88.4193 81.1926 88.3292 83.3716 87.4938 85.3104C86.1874 88.1793 84.3221 90.759 82.0068 92.8984C80.0845 94.6182 77.9611 96.099 75.6828 97.3084C76.4655 97.4363 77.2336 97.6413 77.9758 97.9204C79.121 98.2907 80.1753 98.898 81.0702 99.7028C81.9651 100.508 82.6805 101.492 83.1698 102.591C84.0628 104.919 83.4998 108.097 79.2388 110.039C77.5124 110.847 75.6327 111.274 73.7268 111.291C71.4404 111.357 69.2081 110.589 67.4468 109.129C66.7302 108.555 66.2044 107.777 65.9384 106.898C65.6724 106.019 65.6789 105.08 65.9568 104.204C66.9298 101.296 69.8568 99.7674 73.2408 97.9964C73.4058 97.9134 73.5928 97.8204 73.7758 97.7124C73.6978 97.7124 73.6128 97.7124 73.5008 97.7124C71.8231 97.726 70.1574 97.9985 68.5628 98.5204C59.5628 101.427 53.1928 112.651 52.7628 119.1C52.6448 120.794 52.8628 122.987 54.5948 123.816C56.9014 124.845 59.4127 125.333 61.9368 125.243C64.1399 125.201 66.339 125.04 68.5248 124.762L68.5798 124.756L69.4138 124.667L69.4728 125.219L68.6388 125.309C66.4173 125.62 64.1787 125.793 61.9358 125.827ZM74.8358 97.7864C74.3978 98.0124 73.9468 98.2534 73.4958 98.5024L73.4688 98.5164C70.0618 100.305 67.3688 101.716 66.4958 104.397C66.2529 105.169 66.251 105.997 66.4904 106.77C66.7298 107.543 67.1992 108.225 67.8358 108.724C69.492 110.092 71.5893 110.809 73.7358 110.742C75.564 110.725 77.3671 110.315 79.0238 109.542C82.2988 108.051 83.6968 105.472 82.6728 102.812C82.2093 101.788 81.5363 100.873 80.6974 100.125C79.8584 99.3769 78.872 98.813 77.8018 98.4694C76.8475 98.1137 75.8513 97.8828 74.8378 97.7824L74.8358 97.7864Z" fill="#EAEAFF"/>
<path opacity="0.55" d="M81.2225 83.3556C78.8455 82.1938 76.9139 80.286 75.7225 77.9236C74.6845 75.7146 74.7885 73.6406 75.9805 72.6406L76.3375 73.0736C75.3375 73.8946 75.2945 75.7006 76.2375 77.6846C77.7265 80.8486 82.6565 85.7286 91.6825 83.9846L91.7825 84.5366C90.5502 84.7705 89.2989 84.8903 88.0445 84.8946C85.6815 84.9215 83.3451 84.3944 81.2225 83.3556Z" fill="#EAEAFF"/>
<path d="M99.4409 100.951V101.518H77.4409V100.951H99.4409Z" fill="#EAEAFF"/>
<path d="M62.1597 46.7619C62.2141 46.5477 62.3427 46.3598 62.5228 46.2316C62.7028 46.1034 62.9225 46.0433 63.1427 46.0619C63.3622 46.0469 63.5802 46.1084 63.7594 46.236C63.9387 46.3637 64.0681 46.5495 64.1257 46.7619" fill="white"/>
<path d="M55.1597 46.4794C55.1597 46.4794 55.5767 45.6434 56.2767 45.7784C56.4806 45.824 56.6674 45.9267 56.8151 46.0746C56.9628 46.2225 57.0653 46.4094 57.1107 46.6134" fill="white"/>
<path d="M58.8796 48.4343C58.7306 48.8343 58.5666 49.2553 58.4476 49.6733C58.3824 49.8664 58.3523 50.0696 58.3586 50.2733C58.3831 50.3632 58.4264 50.4469 58.4855 50.5189C58.5446 50.591 58.6182 50.6497 58.7016 50.6913C59.0781 50.9019 59.4849 51.053 59.9076 51.1393C59.6828 51.1416 59.4584 51.1215 59.2376 51.0793C59.0109 51.0392 58.7906 50.9689 58.5826 50.8703C58.5376 50.8403 58.4826 50.8103 58.4336 50.7803C58.3804 50.7453 58.3305 50.7054 58.2846 50.6613C58.189 50.5674 58.1218 50.4486 58.0906 50.3183C58.0685 50.0746 58.0947 49.8289 58.1676 49.5953C58.2927 49.1618 58.4626 48.7426 58.6746 48.3443C58.8763 47.9461 59.1052 47.5622 59.3596 47.1953C59.2106 47.6133 59.0466 48.0163 58.8796 48.4343Z" fill="#1F1F39"/>
<path d="M58.6597 53.2246C59.3025 53.6965 60.1036 53.8998 60.8937 53.7916C62.0107 53.5066 62.1597 52.8066 62.1597 52.8066" fill="white"/>
<path d="M55.7246 49.9999C55.4751 49.9666 55.2484 49.8374 55.0927 49.6396C54.9369 49.4419 54.8644 49.1912 54.8906 48.9409C54.8642 48.6904 54.9365 48.4394 55.0923 48.2415C55.248 48.0435 55.4749 47.9141 55.7246 47.8809C55.9743 47.9141 56.2011 48.0435 56.3569 48.2415C56.5127 48.4394 56.585 48.6904 56.5586 48.9409C56.5847 49.1912 56.5123 49.4419 56.3565 49.6396C56.2008 49.8374 55.9741 49.9666 55.7246 49.9999Z" fill="#1F1F39"/>
<path d="M63.1426 49.9999C62.8931 49.9666 62.6664 49.8374 62.5106 49.6396C62.3549 49.4419 62.2824 49.1912 62.3086 48.9409C62.2821 48.6904 62.3545 48.4394 62.5103 48.2415C62.666 48.0435 62.8929 47.9141 63.1426 47.8809C63.3923 47.9141 63.6191 48.0435 63.7749 48.2415C63.9306 48.4394 64.003 48.6904 63.9766 48.9409C64.0027 49.1912 63.9302 49.4419 63.7745 49.6396C63.6188 49.8374 63.3921 49.9666 63.1426 49.9999Z" fill="#1F1F39"/>
<path d="M68.8435 53.0762C68.7561 54.1024 67.3431 54.8201 65.6881 54.6792C64.0331 54.5382 62.7608 53.5918 62.8482 52.5656C62.9356 51.5393 64.3487 50.8206 66.0047 50.9616C67.6607 51.1027 68.9313 52.0449 68.8435 53.0762Z" fill="#C43D28"/>
<path d="M0.98974 31.8255C0.829798 31.6674 0.702816 31.4791 0.616152 31.2716C0.529488 31.064 0.484863 30.8414 0.484863 30.6165C0.484863 30.3916 0.529488 30.1689 0.616152 29.9614C0.702816 29.7539 0.829798 29.5656 0.98974 29.4075L29.7817 0.556481C29.9397 0.398045 30.1273 0.272338 30.3339 0.186565C30.5405 0.100793 30.762 0.0566406 30.9857 0.0566406C31.2094 0.0566406 31.4309 0.100793 31.6376 0.186565C31.8442 0.272338 32.0318 0.398045 32.1897 0.556481L34.5277 2.89948C34.6877 3.05759 34.8147 3.24586 34.9013 3.45339C34.988 3.66092 35.0326 3.88358 35.0326 4.10848C35.0326 4.33338 34.988 4.55604 34.9013 4.76357C34.8147 4.9711 34.6877 5.15937 34.5277 5.31748L5.74374 34.1685C5.58572 34.3277 5.39776 34.454 5.19069 34.5402C4.98362 34.6264 4.76154 34.6708 4.53724 34.6708C4.31294 34.6708 4.09086 34.6264 3.88379 34.5402C3.67672 34.454 3.48876 34.3277 3.33074 34.1685L0.98974 31.8255Z" fill="#EAEAFF"/>
<path d="M27.8287 2.5L26.7417 3.589L29.7357 6.6C29.8048 6.68023 29.8897 6.74536 29.9851 6.7913C30.0805 6.83724 30.1843 6.86301 30.2902 6.867C30.396 6.87099 30.5015 6.85311 30.6 6.81449C30.6986 6.77587 30.7882 6.71732 30.8631 6.64252C30.9381 6.56772 30.9968 6.47826 31.0356 6.37974C31.0744 6.28122 31.0925 6.17576 31.0887 6.06994C31.0849 5.96413 31.0593 5.86023 31.0135 5.76475C30.9678 5.66926 30.9028 5.58424 30.8227 5.515L27.8287 2.5Z" fill="#FFFFFE"/>
<path d="M24.0615 6.27455L27.0555 9.28555C27.1246 9.36578 27.2095 9.4309 27.3049 9.47684C27.4003 9.52279 27.5042 9.54856 27.61 9.55255C27.7158 9.55654 27.8213 9.53866 27.9199 9.50004C28.0185 9.46141 28.108 9.40287 28.183 9.32807C28.2579 9.25326 28.3166 9.16381 28.3554 9.06529C28.3942 8.96677 28.4123 8.86131 28.4085 8.75549C28.4047 8.64967 28.3791 8.54578 28.3334 8.45029C28.2876 8.35481 28.2226 8.26979 28.1425 8.20055L25.1485 5.18555L24.0615 6.27455Z" fill="#FFFFFE"/>
<path d="M21.6787 8.66322L24.6727 11.6742C24.8198 11.8014 25.0095 11.8681 25.2038 11.8612C25.3981 11.8542 25.5826 11.774 25.7202 11.6366C25.8578 11.4993 25.9384 11.315 25.9457 11.1207C25.953 10.9264 25.8866 10.7365 25.7597 10.5892L22.7657 7.57422L21.6787 8.66322Z" fill="#FFFFFE"/>
<path d="M18.8486 11.4992L21.8426 14.5102C21.9117 14.5904 21.9966 14.6555 22.092 14.7015C22.1874 14.7474 22.2913 14.7732 22.3971 14.7772C22.5029 14.7811 22.6084 14.7633 22.707 14.7246C22.8056 14.686 22.8951 14.6275 22.9701 14.5527C23.045 14.4779 23.1037 14.3884 23.1425 14.2899C23.1813 14.1914 23.1994 14.0859 23.1956 13.9801C23.1918 13.8743 23.1662 13.7704 23.1205 13.6749C23.0747 13.5794 23.0097 13.4944 22.9296 13.4252L19.9356 10.4102L18.8486 11.4992Z" fill="#FFFFFE"/>
<path d="M16.1675 14.1847L19.1615 17.1957C19.3086 17.3228 19.4983 17.3896 19.6926 17.3827C19.8869 17.3757 20.0714 17.2955 20.209 17.1581C20.3466 17.0208 20.4271 16.8365 20.4345 16.6422C20.4418 16.4479 20.3753 16.258 20.2485 16.1107L17.2545 13.0957L16.1675 14.1847Z" fill="#FFFFFE"/>
<path d="M13.7847 16.5734L16.7787 19.5844C16.8478 19.6646 16.9327 19.7297 17.0281 19.7757C17.1235 19.8216 17.2273 19.8474 17.3331 19.8514C17.4389 19.8554 17.5444 19.8375 17.643 19.7989C17.7416 19.7602 17.8312 19.7017 17.9061 19.6269C17.9811 19.5521 18.0398 19.4626 18.0786 19.3641C18.1174 19.2656 18.1354 19.1601 18.1316 19.0543C18.1279 18.9485 18.1023 18.8446 18.0565 18.7491C18.0107 18.6536 17.9458 18.5686 17.8657 18.4994L14.8717 15.4844L13.7847 16.5734Z" fill="#FFFFFE"/>
<path d="M10.5825 19.7804L13.5765 22.7914C13.7236 22.9185 13.9134 22.9853 14.1076 22.9784C14.3019 22.9714 14.4864 22.8912 14.624 22.7538C14.7616 22.6165 14.8422 22.4322 14.8495 22.2379C14.8568 22.0436 14.7904 21.8537 14.6635 21.7064L11.6695 18.6914L10.5825 19.7804Z" fill="#FFFFFE"/>
<path d="M7.90137 22.4679L10.8954 25.4789C11.0425 25.606 11.2322 25.6728 11.4265 25.6659C11.6208 25.6589 11.8053 25.5787 11.9429 25.4413C12.0805 25.304 12.161 25.1197 12.1683 24.9254C12.1757 24.7311 12.1092 24.5412 11.9824 24.3939L8.98837 21.3789L7.90137 22.4679Z" fill="#FFFFFE"/>
<path d="M5.51855 24.8546L8.51255 27.8656C8.58165 27.9459 8.66655 28.011 8.76195 28.0569C8.85735 28.1029 8.9612 28.1286 9.06701 28.1326C9.17282 28.1366 9.27831 28.1187 9.3769 28.0801C9.47549 28.0415 9.56506 27.9829 9.64 27.9081C9.71494 27.8333 9.77365 27.7439 9.81245 27.6454C9.85126 27.5468 9.86933 27.4414 9.86553 27.3356C9.86174 27.2298 9.83616 27.1259 9.79039 27.0304C9.74463 26.9349 9.67966 26.8499 9.59955 26.7806L6.60555 23.7656L5.51855 24.8546Z" fill="#FFFFFE"/>
<path d="M11.9977 28.6613C12.1779 26.939 12.6994 25.2698 13.5317 23.7513C14.1001 22.7114 14.9804 21.8761 16.0487 21.3633C16.0487 21.3633 12.1317 18.6933 11.9977 16.1703C11.8637 13.6473 13.6807 13.4983 14.5147 14.0653C15.3487 14.6323 17.8807 17.5723 19.2807 18.4233C20.6807 19.2743 22.3637 19.4083 22.9297 22.4973C23.4957 25.5863 18.3127 30.6453 18.3127 30.6453" fill="#DA5742"/>
<path d="M2.21154 21.7815C1.37754 23.8815 4.02854 26.9745 5.29454 27.5425C5.79563 27.7703 6.35086 27.8519 6.8963 27.778C7.44174 27.704 7.9552 27.4775 8.37754 27.1245C8.8244 26.6771 9.07606 26.0709 9.07754 25.4385C9.93022 25.4995 10.7763 25.2509 11.4605 24.7385C11.7515 24.4511 11.9674 24.0966 12.0895 23.7062C12.2115 23.3159 12.2359 22.9015 12.1605 22.4995C12.5315 22.5306 12.9045 22.4706 13.2471 22.325C13.5896 22.1793 13.8915 21.9523 14.1265 21.6635C14.8265 20.6785 14.2605 18.0075 12.2205 16.3505C10.9245 15.2885 9.22654 14.7515 8.22854 15.6015C6.38254 17.1815 2.75254 20.4075 2.21154 21.7815Z" fill="#DA5742"/>
<path d="M12.1909 22.5713L8.27391 18.3623C8.24886 18.3363 8.23486 18.3015 8.23486 18.2653C8.23486 18.2292 8.24886 18.1944 8.27391 18.1683C8.29987 18.1431 8.33467 18.1289 8.37091 18.1289C8.40715 18.1289 8.44196 18.1431 8.46791 18.1683L12.3999 22.3923C12.425 22.4184 12.439 22.4532 12.439 22.4893C12.439 22.5255 12.425 22.5603 12.3999 22.5863C12.3716 22.6087 12.3358 22.6194 12.2999 22.6163C12.2795 22.6176 12.2591 22.6142 12.2402 22.6064C12.2214 22.5986 12.2045 22.5866 12.1909 22.5713Z" fill="#1F1F39"/>
<path d="M8.97459 25.5266L5.32559 21.4526C5.30245 21.4246 5.29108 21.3888 5.29387 21.3526C5.29667 21.3164 5.31342 21.2827 5.34059 21.2586C5.36839 21.2355 5.4041 21.2242 5.44013 21.227C5.47615 21.2298 5.50968 21.2465 5.53359 21.2736L9.18259 25.3476C9.20573 25.3756 9.2171 25.4114 9.2143 25.4476C9.2115 25.4838 9.19475 25.5175 9.16759 25.5416C9.14055 25.5582 9.11013 25.5684 9.07859 25.5716C9.05902 25.5721 9.03959 25.5683 9.02164 25.5605C9.00368 25.5528 8.98762 25.5412 8.97459 25.5266Z" fill="#1F1F39"/>
<path d="M12.2945 28.7952C12.2055 28.7802 12.1455 28.7202 12.1605 28.6462C12.3406 26.9008 12.8726 25.2101 13.7245 23.6762C14.2863 22.7036 15.0989 21.8996 16.0775 21.3482C16.0362 21.3175 15.9912 21.2923 15.9435 21.2732C14.8585 20.6022 12.3245 19.0052 12.1585 16.1842C12.1579 16.1467 12.1716 16.1104 12.1969 16.0827C12.2222 16.055 12.2571 16.038 12.2945 16.0352C12.3317 16.0345 12.3677 16.048 12.3954 16.0729C12.423 16.0977 12.4402 16.1321 12.4435 16.1692C12.5925 18.8412 14.9585 20.3182 16.0925 21.0352C16.2258 21.1245 16.3448 21.1992 16.4495 21.2592L16.6875 21.4232L16.4195 21.5132C15.3803 22.0117 14.5255 22.8262 13.9775 23.8402C13.156 25.3407 12.6398 26.9891 12.4585 28.6902C12.4431 28.7204 12.4196 28.7458 12.3907 28.7634C12.3617 28.7811 12.3284 28.7903 12.2945 28.7902V28.7952Z" fill="#1F1F39"/>
<path d="M41.5092 66.2964L41.9642 66.633L25.2699 89.1941L24.8149 88.8574L41.5092 66.2964Z" fill="#EAEAFF"/>
<path d="M59.9236 62.9102C58.7496 62.6712 57.9746 62.6262 57.4086 62.4922L56.7236 67.1032C58.0214 67.0103 59.2923 66.6869 60.4766 66.1482C62.0449 65.4195 63.3653 64.2472 64.2746 62.7762C62.8683 63.2438 61.356 63.2904 59.9236 62.9102Z" fill="#C43D28"/>
<path d="M60.9078 63.1934C59.7155 63.1255 58.5333 62.9355 57.3798 62.6264C57.3616 62.6216 57.3445 62.613 57.3298 62.6012C57.3151 62.5894 57.3031 62.5746 57.2945 62.5578C57.2859 62.541 57.2809 62.5225 57.28 62.5037C57.279 62.4848 57.282 62.466 57.2888 62.4484C57.2934 62.4299 57.302 62.4127 57.3138 62.3978C57.3257 62.3829 57.3406 62.3707 57.3576 62.3621C57.3745 62.3535 57.3932 62.3486 57.4122 62.3478C57.4312 62.347 57.4502 62.3502 57.4678 62.3574C58.6035 62.6553 59.7658 62.8402 60.9378 62.9094C61.998 63.0188 63.0693 62.9279 64.0958 62.6414C64.1135 62.6352 64.1322 62.6326 64.1509 62.6338C64.1695 62.635 64.1878 62.6399 64.2045 62.6483C64.2212 62.6567 64.236 62.6684 64.2481 62.6827C64.2602 62.697 64.2693 62.7135 64.2748 62.7314C64.2811 62.749 64.2837 62.7676 64.2826 62.7863C64.2815 62.8049 64.2766 62.8231 64.2683 62.8398C64.26 62.8565 64.2484 62.8713 64.2342 62.8835C64.2201 62.8956 64.2036 62.9048 64.1858 62.9104C63.3962 63.1349 62.5775 63.2404 61.7568 63.2234C61.4888 63.2234 61.2058 63.2084 60.9078 63.1934Z" fill="#1F1F39"/>
<path d="M71.1258 56.164C71.3546 54.9551 71.8312 53.8066 72.5258 52.791C72.5258 52.791 70.9318 52.791 69.9048 55.746C69.4389 56.9056 69.2403 58.1552 69.3238 59.402C69.9432 59.3589 70.5568 59.2547 71.1558 59.091C70.9989 58.1224 70.9888 57.1357 71.1258 56.164Z" fill="#C43D28"/>
<path d="M69.4566 57.9993C69.3676 57.9843 69.3076 57.9253 69.3206 57.8503C69.4424 56.7683 69.7294 55.7113 70.1716 54.7163C70.771 53.6267 71.6637 52.727 72.7486 52.1193C72.7824 52.1022 72.8216 52.0988 72.8578 52.11C72.894 52.1212 72.9244 52.1461 72.9426 52.1793C72.9527 52.1957 72.9591 52.214 72.9616 52.2331C72.964 52.2521 72.9623 52.2715 72.9566 52.2899C72.9509 52.3083 72.9414 52.3252 72.9286 52.3396C72.9159 52.354 72.9002 52.3655 72.8826 52.3733C71.8525 52.9542 71.0011 53.806 70.4206 54.8363C69.9948 55.8043 69.7151 56.8301 69.5906 57.8803C69.583 57.9114 69.566 57.9394 69.5421 57.9606C69.5182 57.9819 69.4884 57.9954 69.4566 57.9993Z" fill="#1F1F39"/>
<path d="M26.7017 127.515L17.7017 66.6855L67.3017 121.486L26.7017 127.515ZM27.0017 86.4885L31.7617 118.665L53.2387 115.471L27.0017 86.4885Z" fill="#EAEAFF"/>
<path d="M27.085 106.726L23.793 107.218L24.016 108.74L27.308 108.248C27.4092 108.237 27.5073 108.206 27.5959 108.156C27.6846 108.106 27.7621 108.038 27.8235 107.957C27.8849 107.876 27.929 107.783 27.953 107.684C27.977 107.585 27.9804 107.482 27.963 107.382C27.9313 107.179 27.8217 106.997 27.6576 106.875C27.4936 106.752 27.288 106.699 27.085 106.726Z" fill="#FFFFFE"/>
<path d="M25.9969 99.3234L22.6909 99.8154L22.9139 101.337L26.2209 100.845C26.4222 100.817 26.604 100.709 26.7267 100.547C26.8494 100.385 26.903 100.181 26.8759 99.9794C26.8443 99.7768 26.7345 99.5947 26.5702 99.4721C26.4059 99.3495 26.2001 99.2961 25.9969 99.3234Z" fill="#FFFFFE"/>
<path d="M26.5488 103.024L23.2568 103.516L23.4798 105.038L26.7718 104.546C26.9732 104.518 27.155 104.41 27.2776 104.248C27.4003 104.086 27.4539 103.882 27.4268 103.68C27.3952 103.478 27.2856 103.296 27.1215 103.174C26.9574 103.051 26.7519 102.997 26.5488 103.024Z" fill="#FFFFFE"/>
<path d="M28.1867 114.128L24.9097 114.62L25.1327 116.142L28.4097 115.65C28.5104 115.638 28.6077 115.606 28.6958 115.556C28.7838 115.505 28.8607 115.438 28.9219 115.357C28.9831 115.276 29.0273 115.183 29.0518 115.085C29.0764 114.986 29.0807 114.884 29.0647 114.784C29.033 114.582 28.9234 114.4 28.7593 114.277C28.5953 114.154 28.3897 114.101 28.1867 114.128Z" fill="#FFFFFE"/>
<path d="M25.4456 95.6222L22.1396 96.1142L22.3626 97.6362L25.6696 97.1442C25.7699 97.1314 25.8667 97.0986 25.9542 97.0479C26.0416 96.9972 26.1181 96.9295 26.1791 96.8489C26.2401 96.7682 26.2844 96.6762 26.3094 96.5782C26.3344 96.4802 26.3396 96.3782 26.3246 96.2782C26.293 96.0757 26.1833 95.8935 26.019 95.7709C25.8546 95.6483 25.6488 95.5949 25.4456 95.6222Z" fill="#FFFFFE"/>
<path d="M27.6358 110.427L24.3438 110.919L24.5668 112.441L27.8438 111.949C27.9458 111.939 28.0447 111.908 28.1344 111.858C28.2241 111.809 28.3027 111.741 28.3654 111.66C28.4281 111.579 28.4736 111.486 28.4992 111.387C28.5247 111.287 28.5296 111.184 28.5138 111.083C28.4821 110.88 28.3725 110.698 28.2084 110.576C28.0443 110.453 27.8388 110.4 27.6358 110.427Z" fill="#FFFFFE"/>
<path d="M23.8078 84.505L20.4868 84.997L20.7098 86.519L24.0318 86.027C24.1319 86.0138 24.2285 85.9808 24.3157 85.9299C24.403 85.8791 24.4793 85.8115 24.5403 85.7309C24.6012 85.6503 24.6455 85.5585 24.6707 85.4607C24.6958 85.3628 24.7013 85.261 24.6868 85.161C24.6552 84.9585 24.5454 84.7764 24.3811 84.6537C24.2168 84.5311 24.011 84.4777 23.8078 84.505Z" fill="#FFFFFE"/>
<path d="M28.7379 117.829L25.4609 118.321L25.6839 119.843L28.9609 119.351C29.0611 119.338 29.1576 119.305 29.2449 119.254C29.3321 119.203 29.4085 119.136 29.4694 119.055C29.5303 118.974 29.5746 118.883 29.5998 118.785C29.625 118.687 29.6304 118.585 29.6159 118.485C29.5843 118.283 29.4747 118.101 29.3106 117.978C29.1465 117.856 28.941 117.802 28.7379 117.829Z" fill="#FFFFFE"/>
<path d="M24.3439 88.2062L21.0229 88.6982L21.2459 90.2202L24.5679 89.7282C24.6697 89.7188 24.7683 89.6883 24.8576 89.6386C24.9469 89.5889 25.0249 89.5212 25.0865 89.4397C25.1481 89.3582 25.1921 89.2648 25.2156 89.1653C25.2391 89.0659 25.2416 88.9627 25.2229 88.8622C25.1913 88.6596 25.0816 88.4775 24.9173 88.3549C24.7529 88.2323 24.5471 88.1789 24.3439 88.2062Z" fill="#FFFFFE"/>
<path d="M24.8949 91.923L21.5889 92.415L21.8119 93.937L25.1189 93.445C25.2192 93.4321 25.3159 93.3994 25.4034 93.3487C25.4909 93.298 25.5673 93.2303 25.6283 93.1496C25.6893 93.069 25.7336 92.977 25.7586 92.879C25.7836 92.781 25.7888 92.679 25.7739 92.579C25.7422 92.3764 25.6325 92.1943 25.4682 92.0717C25.3039 91.9491 25.0981 91.8957 24.8949 91.923Z" fill="#FFFFFE"/>
<path d="M99.1406 119.068C98.4406 126.933 96.1916 133.529 86.3916 134.23C76.5916 134.931 62.7106 127.067 55.8596 119.769C49.0086 112.471 40.7276 104.323 40.7276 104.323C38.9685 104.348 37.2225 104.63 35.5446 105.159C33.1616 105.995 31.1956 105.859 30.6446 105.293C30.0936 104.727 30.2276 104.308 30.2276 104.308C30.2276 104.308 28.5446 104.174 28.1276 103.039C27.993 102.778 27.9227 102.489 27.9227 102.196C27.9227 101.902 27.993 101.613 28.1276 101.353C27.5535 101.297 27.0168 101.043 26.6093 100.634C26.2018 100.226 25.9488 99.6889 25.8936 99.1147C25.6106 97.0147 30.5106 94.4887 32.4766 93.6378C34.0616 93.0462 35.7037 92.6209 37.3766 92.3688C37.3766 92.3688 34.2936 91.6688 32.3276 92.3688C30.3616 93.0687 29.2446 92.2347 29.2446 90.9688C29.2446 89.7027 31.7616 87.5938 35.8276 87.5938C39.8936 87.5938 46.4766 90.3997 49.9766 93.4887C53.4766 96.5778 78.8406 108.368 78.8406 108.368L78.2746 104.994H99.0066V105.024C99.5213 109.689 99.5662 114.394 99.1406 119.068Z" fill="#DA5742"/>
<path d="M28.0227 101.458C28.0017 101.428 27.9932 101.391 27.9987 101.355C28.0043 101.319 28.0236 101.286 28.0527 101.264C28.0827 101.249 30.4657 99.4132 32.6847 98.0212C33.8521 97.237 35.1471 96.6617 36.5117 96.3212C36.5303 96.3173 36.5496 96.3174 36.5683 96.3214C36.5869 96.3254 36.6045 96.3333 36.62 96.3445C36.6354 96.3557 36.6483 96.37 36.6579 96.3865C36.6675 96.403 36.6736 96.4213 36.6757 96.4402C36.68 96.4591 36.6803 96.4787 36.6765 96.4977C36.6727 96.5167 36.665 96.5347 36.6537 96.5505C36.6425 96.5663 36.628 96.5795 36.6113 96.5893C36.5946 96.599 36.5759 96.6052 36.5567 96.6072C35.2245 96.9475 33.9603 97.5129 32.8187 98.2792C30.6137 99.6672 28.2307 101.487 28.1967 101.502C28.1737 101.51 28.1503 101.516 28.1267 101.521C28.1048 101.524 28.0828 101.519 28.064 101.507C28.0452 101.496 28.0307 101.479 28.0227 101.458Z" fill="#1F1F39"/>
<path d="M30.1086 104.398C30.0877 104.368 30.0791 104.331 30.0847 104.295C30.0903 104.259 30.1096 104.227 30.1386 104.204C31.7288 103.048 33.4302 102.053 35.2176 101.234C36.2076 100.742 37.2673 100.405 38.3596 100.234C38.3951 100.234 38.4292 100.248 38.4544 100.274C38.4795 100.299 38.4936 100.333 38.4936 100.368C38.4936 100.404 38.4795 100.438 38.4544 100.463C38.4292 100.488 38.3951 100.502 38.3596 100.502C37.3092 100.673 36.2903 101 35.3366 101.472C33.5726 102.283 31.8914 103.263 30.3166 104.398C30.2866 104.458 30.2566 104.458 30.2276 104.458C30.2043 104.46 30.181 104.455 30.1602 104.444C30.1393 104.434 30.1215 104.418 30.1086 104.398Z" fill="#1F1F39"/>
<path d="M78.2749 105.025L78.8409 108.398L99.1859 106.625C99.0859 105.595 99.0069 105.025 99.0069 105.025H78.2749Z" fill="#C43D28"/>
<path d="M83.1758 110.219L75.5498 106.951L83.1758 110.219Z" fill="#1F1F39"/>
<path d="M83.1149 110.337L75.4899 107.069C75.4731 107.063 75.4578 107.053 75.445 107.04C75.4321 107.027 75.4218 107.012 75.4149 106.996C75.4079 106.979 75.4043 106.961 75.4043 106.943C75.4043 106.925 75.4079 106.907 75.4149 106.89C75.4216 106.874 75.4316 106.858 75.4442 106.845C75.4569 106.832 75.472 106.822 75.4887 106.815C75.5053 106.808 75.5232 106.805 75.5413 106.805C75.5594 106.805 75.5773 106.808 75.5939 106.815L83.2199 110.084C83.2366 110.091 83.2518 110.101 83.2646 110.114C83.2773 110.127 83.2875 110.142 83.2944 110.158C83.3012 110.175 83.3047 110.193 83.3047 110.211C83.3046 110.229 83.3009 110.247 83.2939 110.263C83.2887 110.281 83.2795 110.298 83.2671 110.311C83.2547 110.325 83.2394 110.336 83.2223 110.343C83.2051 110.351 83.1866 110.354 83.168 110.353C83.1494 110.352 83.1313 110.347 83.1149 110.338V110.337Z" fill="#1F1F39"/>
<path d="M75.3408 89.5801L78.8408 108.38L75.3408 89.5801Z" fill="#1F1F39"/>
<path d="M78.7036 108.413L75.2036 89.6093C75.1993 89.5901 75.1991 89.5703 75.203 89.5511C75.207 89.5319 75.215 89.5138 75.2266 89.4979C75.2381 89.4821 75.253 89.469 75.2701 89.4593C75.2871 89.4497 75.3061 89.4439 75.3256 89.4423C75.3445 89.4384 75.364 89.4385 75.3829 89.4427C75.4017 89.4469 75.4195 89.455 75.4349 89.4665C75.4504 89.4781 75.4633 89.4927 75.4727 89.5095C75.4822 89.5264 75.4879 89.545 75.4896 89.5643L78.9896 108.364C78.9935 108.383 78.9934 108.402 78.9894 108.421C78.9854 108.44 78.9776 108.457 78.9664 108.473C78.9552 108.488 78.9409 108.501 78.9244 108.511C78.9079 108.52 78.8896 108.526 78.8706 108.528H78.8406C78.808 108.528 78.7765 108.516 78.7516 108.495C78.7266 108.474 78.7096 108.445 78.7036 108.413Z" fill="#1F1F39"/>
<path d="M54.1029 50.5088C53.456 50.4407 52.8023 50.5278 52.1959 50.7628C52.1359 51.6878 52.1069 52.7178 52.1359 53.7628C52.6526 54.0203 53.2135 54.1774 53.7889 54.2258C55.4569 54.3598 56.8719 53.6438 56.9459 52.6138C57.0199 51.5838 55.7559 50.6428 54.1029 50.5088Z" fill="#C43D28"/>
<path opacity="0.52" d="M97.0187 20.4075C98.6673 20.4075 100.004 19.0711 100.004 17.4225C100.004 15.7739 98.6673 14.4375 97.0187 14.4375C95.3701 14.4375 94.0337 15.7739 94.0337 17.4225C94.0337 19.0711 95.3701 20.4075 97.0187 20.4075Z" fill="white"/>
</svg>
