<svg width="110" height="85" viewBox="0 0 110 85" fill="none" xmlns="http://www.w3.org/2000/svg">
<path d="M106.904 38.9355L79.3562 26.9355L68.6562 30.1815L87.0562 47.4965L106.904 38.9355Z" fill="#F9ACC0"/>
<path d="M15.2697 44.6108L14.6807 65.2918L21.2807 62.8918L19.2377 84.5308L77.5547 84.7708L73.5867 52.0658L89.0977 47.2578L80.6807 28.2578C80.6807 28.2578 58.7127 30.2418 45.2097 33.4278C38.794 35.0383 32.5205 37.1697 26.4517 39.8008C19.2377 42.8068 15.2697 44.6108 15.2697 44.6108Z" fill="#3D5CFF"/>
<path d="M34.6283 2.16595C30.7812 5.05195 30.0592 11.425 28.4953 15.032C26.9313 18.639 26.2112 19.602 24.7682 21.044C23.7922 21.952 22.5863 22.5758 21.2812 22.848C21.2812 22.848 26.4513 31.385 40.7603 30.664C55.0693 29.943 61.8022 23.931 64.3273 21.526C65.9408 19.8917 67.1726 17.9205 67.9342 15.754C67.9342 15.754 61.0802 15.393 58.1953 9.62195C55.3103 3.85095 51.9422 0.00195312 47.7342 0.00195312C43.5262 0.00195312 41.7222 1.68495 41.7222 1.68495C40.6453 0.991698 39.3735 0.664091 38.0956 0.750737C36.8177 0.837382 35.6018 1.33366 34.6283 2.16595Z" fill="#1F1F39"/>
<path d="M15.0059 65.1832L21.2829 62.8832L20.9339 66.6502L22.2439 55.6602L15.0059 65.1832Z" fill="#224BF4"/>
<path d="M74.3203 58.0796L73.5873 52.0676L77.0503 50.9976L71.9873 42.2676L74.3203 58.0796Z" fill="#224BF4"/>
<path d="M60.4565 44.467C60.2815 44.8424 59.9848 45.1476 59.6145 45.333C59.2231 45.5412 58.8855 45.8377 58.6285 46.199C58.5087 46.3924 58.4315 46.6092 58.4021 46.8348C58.3727 47.0604 58.3917 47.2897 58.458 47.5074C58.5242 47.7251 58.6362 47.9261 58.7863 48.0971C58.9364 48.2681 59.1212 48.4051 59.3285 48.499C59.5565 48.607 59.7495 48.271 59.5205 48.162C59.3358 48.0825 59.1734 47.9589 59.0477 47.802C58.9219 47.645 58.8367 47.4596 58.7995 47.262C58.7611 47.0484 58.7783 46.8285 58.8494 46.6234C58.9205 46.4184 59.0431 46.235 59.2055 46.091C59.7945 45.538 60.7685 45.249 60.8645 44.335C60.8616 44.0861 60.8079 43.8405 60.7066 43.6131C60.6053 43.3858 60.4586 43.1815 60.2755 43.013C60.1315 42.833 59.8545 43.113 60.0105 43.302C60.2755 43.626 60.6005 44.023 60.4565 44.467Z" fill="white"/>
<path d="M27.4144 82.7386C27.4203 82.8861 27.3929 83.033 27.3342 83.1684C27.2755 83.3038 27.187 83.4242 27.0754 83.5206C26.6184 83.9776 25.9934 84.1936 25.6084 84.7206C25.4644 84.9206 25.8004 85.1206 25.9454 84.9126C26.184 84.6402 26.469 84.4123 26.7874 84.2396C27.0904 84.0581 27.3575 83.8226 27.5754 83.5446C27.6774 83.411 27.7496 83.2571 27.7868 83.0931C27.8241 82.9292 27.8257 82.7592 27.7914 82.5946C27.6884 82.2298 27.4919 81.8982 27.2214 81.6326C27.0654 81.4326 26.7884 81.7046 26.9444 81.8976C27.1797 82.1261 27.3431 82.4184 27.4144 82.7386Z" fill="white"/>
<path d="M66.9976 52.4992C66.7718 52.9035 66.4335 53.2335 66.0236 53.4492C65.6274 53.6503 65.2883 53.9482 65.0376 54.3152C64.9144 54.5441 64.8549 54.802 64.8655 55.0619C64.876 55.3217 64.9562 55.5739 65.0976 55.7922C65.4584 56.3086 65.9474 56.7222 66.5166 56.9922C66.5612 57.016 66.6133 57.0215 66.6619 57.0074C66.7104 56.9934 66.7516 56.961 66.7766 56.9171C66.8016 56.8732 66.8085 56.8212 66.7958 56.7723C66.7831 56.7234 66.7519 56.6814 66.7086 56.6552C66.2095 56.4271 65.7756 56.0774 65.4466 55.6382C65.31 55.4445 65.2406 55.2114 65.2493 54.9746C65.258 54.7377 65.3442 54.5103 65.4946 54.3272C65.8137 54.0306 66.1692 53.7759 66.5526 53.5692C66.9503 53.3104 67.2573 52.9338 67.4306 52.4922C67.6198 51.9723 67.6027 51.3997 67.3826 50.8922C67.3704 50.8696 67.3538 50.8497 67.3338 50.8336C67.3138 50.8175 67.2908 50.8056 67.2661 50.7985C67.2414 50.7914 67.2156 50.7893 67.1901 50.7924C67.1646 50.7954 67.14 50.8035 67.1176 50.8162C67.072 50.8408 67.0377 50.8822 67.0221 50.9317C67.0064 50.9811 67.0105 51.0347 67.0336 51.0812C67.1259 51.3072 67.1704 51.5499 67.1642 51.7939C67.158 52.038 67.1013 52.2781 66.9976 52.4992Z" fill="white"/>
<path d="M33.4866 71.1365C33.5347 70.7935 33.5347 70.4455 33.4866 70.1025C33.4306 69.8204 33.2862 69.5635 33.0744 69.369C32.8626 69.1744 32.5944 69.0524 32.3086 69.0205C31.9602 68.9781 31.6067 69.015 31.2746 69.1285C30.9746 69.2285 30.6856 69.3685 30.3746 69.4535C30.2305 69.5088 30.0743 69.5247 29.922 69.4994C29.7697 69.474 29.627 69.4085 29.5086 69.3095C29.2961 69.1093 29.1378 68.8585 29.0486 68.5805C28.9467 68.2795 28.9145 67.9593 28.9544 67.644C28.9942 67.3288 29.1051 67.0267 29.2786 66.7605C29.4106 66.5555 29.0856 66.3635 28.9416 66.5675C28.6231 67.063 28.4909 67.6556 28.5686 68.2395C28.5971 68.5343 28.6866 68.8199 28.8316 69.0782C28.9766 69.3364 29.1738 69.5617 29.4106 69.7395C29.9996 70.1245 30.6606 69.7635 31.2386 69.5595C31.5128 69.4172 31.8245 69.3639 32.1304 69.4069C32.4363 69.4499 32.7212 69.5871 32.9456 69.7995C33.1267 70.125 33.1862 70.5042 33.1136 70.8695C33.09 71.2962 33.023 71.7194 32.9136 72.1325C32.8656 72.3485 33.2386 72.4575 33.2986 72.2165C33.3922 71.8626 33.4551 71.5012 33.4866 71.1365Z" fill="white"/>
<path d="M68.7279 72.3627C68.1029 72.3387 67.6579 72.9157 67.2129 73.2757C66.7848 73.7093 66.2279 73.9928 65.6253 74.0838C65.0228 74.1748 64.407 74.0685 63.8699 73.7807C63.6171 73.6179 63.4153 73.3872 63.2876 73.115C63.1599 72.8428 63.1115 72.5402 63.1479 72.2417C63.1969 71.9987 62.8239 71.8937 62.7759 72.1337C62.7199 72.6806 62.8739 73.2284 63.2066 73.666C63.5393 74.1036 64.026 74.3984 64.5679 74.4907C65.1797 74.5878 65.8066 74.4997 66.3679 74.2377C66.9365 73.9684 67.4565 73.6069 67.9069 73.1677C68.1269 72.9757 68.4149 72.7107 68.7279 72.7587C68.9279 72.7827 69.2329 73.0117 69.1009 73.2397C69.0169 73.4397 69.3409 73.6397 69.4619 73.4197C69.7379 72.9277 69.2329 72.3867 68.7279 72.3627Z" fill="white"/>
<path d="M54.8039 60.1941C54.7731 60.4712 54.675 60.7367 54.5181 60.9673C54.3613 61.1978 54.1504 61.3866 53.9039 61.5171C53.383 61.8099 52.9314 62.2117 52.5799 62.6951C52.4216 62.9211 52.3417 63.1929 52.3525 63.4687C52.3634 63.7445 52.4643 64.0091 52.6399 64.2221C52.8596 64.4128 53.1204 64.55 53.402 64.6231C53.6836 64.6961 53.9783 64.7029 54.2629 64.6431C54.3709 64.6311 54.4189 64.4991 54.3949 64.4031C54.3709 64.3071 54.2629 64.2541 54.1529 64.2701C53.9248 64.3199 53.6878 64.3119 53.4635 64.2468C53.2393 64.1816 53.0349 64.0614 52.8689 63.8971C52.5079 63.4281 52.8689 62.8391 53.2179 62.4901C53.6179 62.0901 54.1319 61.8651 54.5409 61.4901C54.7505 61.316 54.917 61.0958 55.0274 60.8467C55.1377 60.5975 55.1889 60.3263 55.1769 60.0541C55.1015 59.3931 54.8047 58.7771 54.3349 58.3061C54.1669 58.1381 53.9029 58.4141 54.0709 58.5951C54.5074 59.0171 54.769 59.5879 54.8039 60.1941Z" fill="white"/>
<path d="M50.4285 75.4035C50.5472 75.6328 50.5972 75.8914 50.5725 76.1485C50.5141 76.4478 50.3997 76.7335 50.2355 76.9905C50.0612 77.2584 49.9264 77.55 49.8355 77.8565C49.7672 78.1376 49.7714 78.4314 49.8475 78.7105C49.9186 78.9899 50.0568 79.2478 50.2503 79.4616C50.4437 79.6755 50.6865 79.8388 50.9575 79.9375C51.2687 80.0413 51.6024 80.058 51.9225 79.9859C52.2425 79.9139 52.5368 79.7557 52.7735 79.5285C52.9535 79.3605 52.6735 79.0835 52.4965 79.2515C52.2991 79.4412 52.0509 79.5696 51.7819 79.6209C51.5129 79.6722 51.2349 79.6443 50.9815 79.5405C50.7376 79.4262 50.5318 79.244 50.3888 79.0157C50.2459 78.7875 50.1718 78.5228 50.1755 78.2535C50.1755 77.6405 50.6445 77.1595 50.8485 76.6185C50.9412 76.3664 50.9742 76.0962 50.9451 75.8292C50.9159 75.5622 50.8254 75.3056 50.6805 75.0795C50.5284 74.8189 50.3132 74.6007 50.0548 74.445C49.7964 74.2894 49.5029 74.2011 49.2015 74.1885C48.9615 74.1655 48.9615 74.5625 49.2015 74.5625C49.4624 74.5805 49.7138 74.668 49.9295 74.8159C50.1452 74.9638 50.3175 75.1666 50.4285 75.4035Z" fill="white"/>
<path d="M36.5646 39.4529C36.7452 39.936 36.7323 40.4702 36.5286 40.9439C36.3021 41.4564 35.9702 41.9153 35.5546 42.2909C35.2176 42.6399 34.8336 43.1449 35.0976 43.6499C35.2695 43.8969 35.526 44.0723 35.8186 44.1429C36.1618 44.2629 36.5258 44.3119 36.8886 44.2869C37.1416 44.2749 37.1416 43.8869 36.8886 43.9019C36.5792 43.9162 36.2697 43.8756 35.9746 43.7819C35.7586 43.7099 35.4346 43.6009 35.4096 43.3369C35.4268 43.1004 35.5296 42.8783 35.6986 42.7119C35.8786 42.5119 36.0836 42.3269 36.2516 42.1229C36.6281 41.7441 36.8874 41.2646 36.9983 40.7421C37.1091 40.2195 37.0669 39.6761 36.8766 39.1769C36.772 38.9291 36.6145 38.707 36.4152 38.5263C36.2159 38.3457 35.9795 38.2107 35.7226 38.1309C35.6731 38.1209 35.6217 38.13 35.5786 38.1563C35.5355 38.1826 35.504 38.2242 35.4903 38.2728C35.4766 38.3214 35.4818 38.3734 35.5049 38.4183C35.5279 38.4632 35.5671 38.4977 35.6146 38.5149C35.8334 38.5895 36.0326 38.7126 36.1971 38.875C36.3616 39.0375 36.4873 39.235 36.5646 39.4529Z" fill="white"/>
<path d="M45.3302 48.881C45.0058 48.9489 44.7045 49.0998 44.4558 49.3188C44.2071 49.5379 44.0194 49.8177 43.9112 50.131C43.6462 50.768 43.5862 51.55 43.0692 52.043C42.7942 52.2801 42.4554 52.4307 42.0952 52.476C41.7373 52.5441 41.3694 52.5401 41.0132 52.464C40.6217 52.3417 40.2639 52.1305 39.9678 51.8468C39.6716 51.5632 39.4452 51.2148 39.3062 50.829C39.2212 50.6 38.8492 50.697 38.9332 50.937C39.1941 51.6624 39.7117 52.2672 40.3882 52.637C41.0603 52.9599 41.831 53.0114 42.5402 52.781C42.9066 52.6811 43.2338 52.4718 43.4782 52.181C43.6987 51.8924 43.8657 51.5665 43.9712 51.219C44.1762 50.588 44.3082 49.819 44.9212 49.445C45.2263 49.2634 45.584 49.1909 45.9357 49.2392C46.2874 49.2876 46.6123 49.4539 46.8572 49.711C47.0132 49.891 47.2902 49.627 47.1222 49.434C46.8948 49.1975 46.6111 49.0226 46.2976 48.9259C45.9842 48.8291 45.6512 48.8137 45.3302 48.881Z" fill="white"/>
<path d="M67.4419 30.4839C66.9526 30.8235 66.5014 31.2148 66.0959 31.6509C65.8884 31.8475 65.6372 31.9918 65.3629 32.0719C64.9927 32.1538 64.6063 32.1189 64.2569 31.9719C63.888 31.8525 63.5509 31.6511 63.2709 31.3829C63.0124 31.1007 62.8192 30.7651 62.7049 30.3999C62.6906 30.3505 62.6572 30.3087 62.6121 30.2839C62.567 30.259 62.5138 30.2531 62.4644 30.2674C62.4149 30.2817 62.3732 30.3151 62.3483 30.3602C62.3235 30.4053 62.3176 30.4585 62.3319 30.5079C62.5132 31.1627 62.9397 31.7224 63.5229 32.0709C63.8276 32.2726 64.1723 32.406 64.5334 32.4621C64.8944 32.5182 65.2633 32.4956 65.6149 32.3959C66.1473 32.1265 66.6213 31.7547 67.0099 31.3019C67.1883 31.0861 67.4154 30.9158 67.6725 30.805C67.9297 30.6943 68.2095 30.6463 68.4889 30.6649C68.7925 30.705 69.0777 30.8335 69.3088 31.0344C69.54 31.2353 69.7069 31.4998 69.7889 31.7949C69.8043 31.8447 69.8385 31.8866 69.8843 31.9115C69.9301 31.9364 69.9838 31.9425 70.034 31.9284C70.0842 31.9143 70.1269 31.8812 70.153 31.8361C70.1791 31.791 70.1866 31.7375 70.1739 31.6869C70.0972 31.4119 69.9604 31.1572 69.7734 30.9414C69.5864 30.7256 69.3539 30.554 69.0926 30.4389C68.8312 30.3238 68.5476 30.2682 68.2622 30.276C67.9767 30.2837 67.6966 30.3548 67.4419 30.4839Z" fill="white"/>
<path d="M32.5125 55.5775C32.5624 56.1117 32.5091 56.6505 32.3555 57.1645C32.3027 57.4002 32.2979 57.6442 32.3414 57.8817C32.3848 58.1193 32.4757 58.3458 32.6085 58.5475C32.7447 58.723 32.9199 58.8643 33.1202 58.9603C33.3205 59.0563 33.5404 59.1043 33.7625 59.1005C34.0179 59.0867 34.2665 59.0129 34.488 58.885C34.7095 58.7571 34.8978 58.5788 35.0375 58.3645C35.1815 58.1645 34.8455 57.9645 34.7005 58.1725C34.5831 58.3494 34.4214 58.4923 34.2316 58.5873C34.0418 58.6822 33.8304 58.7257 33.6185 58.7135C33.41 58.6945 33.2126 58.6114 33.0532 58.4757C32.8939 58.34 32.7805 58.1583 32.7285 57.9555C32.5005 57.0175 33.2695 56.0075 32.7165 55.1175C32.6054 54.9159 32.4311 54.7563 32.2204 54.6634C32.0097 54.5706 31.7743 54.5495 31.5505 54.6035C31.3245 54.6645 31.4305 55.0365 31.6705 54.9645C32.0675 54.8315 32.4245 55.2165 32.5125 55.5775Z" fill="white"/>
<path d="M54.793 33.8622C54.6875 34.5474 54.3916 35.1891 53.939 35.7142C53.3811 36.3333 52.6998 36.8289 51.939 37.1692C50.9264 37.6276 49.8714 37.986 48.789 38.2392C47.1516 38.7227 45.4297 38.8498 43.739 38.6122C42.6773 38.4293 41.6922 37.9399 40.905 37.2042C40.3007 36.5923 39.8047 35.8822 39.438 35.1042C39.3931 35.0223 39.3531 34.9378 39.318 34.8512C39.21 34.6232 38.873 34.8272 38.981 35.0432C39.3578 35.8466 39.8434 36.5943 40.424 37.2652C41.185 38.076 42.1679 38.6446 43.25 38.9002C44.9047 39.2411 46.6157 39.196 48.25 38.7682C49.3961 38.5263 50.5187 38.1843 51.605 37.7462C52.4527 37.4137 53.2322 36.9287 53.905 36.3152C54.4513 35.7999 54.85 35.1482 55.06 34.4272C55.2553 33.6798 55.2707 32.8967 55.105 32.1422C55.0644 31.9312 55.0123 31.7226 54.949 31.5172C54.9347 31.4693 54.902 31.4291 54.858 31.4054C54.814 31.3817 54.7624 31.3764 54.7145 31.3907C54.6667 31.405 54.6264 31.4378 54.6027 31.4818C54.579 31.5257 54.5737 31.5773 54.588 31.6252C54.8177 32.3472 54.8877 33.1105 54.793 33.8622Z" fill="white"/>
<path d="M76.4071 29.0062L84.2234 48.9696L83.9999 49.0571L76.1836 29.0938L76.4071 29.0062Z" fill="white"/>
<path d="M82.3954 44.5942L82.4609 44.8251L72.8409 47.5551L72.7754 47.3242L82.3954 44.5942Z" fill="white"/>
<path d="M79.4191 32.7665C67.9961 26.5135 61.6191 22.7865 61.6191 22.7865C59.9433 22.4042 58.3542 21.7109 56.9341 20.7425C55.3711 19.4195 57.3551 12.5025 57.3551 12.5025C57.3551 12.5025 56.0931 8.35752 56.6941 7.99752C57.2951 7.63752 58.1341 7.27552 60.1811 9.07952C61.5571 10.4634 62.587 12.1525 63.1871 14.0095C63.1871 14.0095 88.9181 17.4965 96.3731 20.1415C103.828 22.7865 110.321 26.0335 109.72 33.6085C109.119 41.1835 101.303 40.2215 101.303 40.2215C93.6291 39.0333 86.2225 36.5102 79.4191 32.7665Z" fill="#F9D2DD"/>
<path d="M56.9341 10.9688C57.1341 11.8108 57.3551 12.5078 57.3551 12.5078C57.3551 12.5078 55.3711 19.4218 56.9341 20.7448C57.7937 21.3912 58.752 21.8947 59.7721 22.2358C60.7721 20.9608 62.1651 18.6648 61.6841 16.1157C61.1551 13.3137 58.3891 11.6538 56.9341 10.9688Z" fill="#F9ACC0"/>
<path d="M56.4679 20.2282C54.5002 20.4735 52.6628 18.6689 52.3547 16.197C52.0465 13.7252 53.3846 11.5247 55.3524 11.2794C57.3201 11.0341 59.1576 12.8397 59.4656 15.3105C59.7736 17.7814 58.4317 19.9833 56.4679 20.2282Z" fill="#F99A3D"/>
<path d="M55.6161 19.0777C54.1909 19.1748 52.9374 17.8024 52.8155 16.0129C52.6935 14.2235 53.7494 12.6948 55.1746 12.5977C56.5997 12.5006 57.8533 13.873 57.9751 15.6614C58.097 17.4498 57.0412 18.9806 55.6161 19.0777Z" fill="#FF7F2D"/>
<path d="M34.6301 19.7219C34.2931 23.1219 39.8001 24.5319 39.8001 24.5319C40.482 26.8582 41.0042 29.2284 41.3631 31.6259C41.5041 33.2662 41.5041 34.9156 41.3631 36.5559C43.3719 37.6924 45.7466 37.9948 47.9761 37.3979C52.9061 36.3159 53.1461 34.2719 53.1461 34.2719L51.2221 26.3359C52.4001 25.9115 53.4385 25.1708 54.2233 24.1951C55.0081 23.2195 55.509 22.0465 55.6711 20.8049C56.5131 16.3559 55.0711 10.9449 55.0711 10.9449L48.9391 12.1449L47.0151 10.4629V12.5069L41.2431 14.0699L39.6801 12.3869C39.6801 12.3869 40.7621 13.7099 40.1611 16.7159C39.5601 19.7219 39.1991 19.8419 39.1991 19.8419L38.9591 17.6779C38.9591 17.6779 35.1151 14.7919 34.6301 19.7219Z" fill="#F9D2DD"/>
<path d="M43.8496 20.5753C42.4841 20.8243 41.2538 20.3483 41.1013 19.5121C40.9488 18.6759 41.9319 17.7962 43.2974 17.5472C44.6629 17.2982 45.8933 17.7742 46.0458 18.6104C46.1982 19.4466 45.2141 20.3264 43.8496 20.5753Z" fill="#F9ACC0"/>
<path d="M51.2819 13.6498C51.3628 13.4956 51.4754 13.3603 51.6122 13.2526C51.749 13.1449 51.907 13.0673 52.0759 13.0248C52.2373 12.9873 52.4034 12.9735 52.5689 12.9838C52.738 12.9948 52.9025 13.044 53.0499 13.1278C53.1973 13.2018 53.3194 13.3179 53.4008 13.4614C53.4821 13.6049 53.519 13.7693 53.5069 13.9338C53.3182 13.7793 53.0877 13.6846 52.8449 13.6618C52.7452 13.6498 52.6445 13.6498 52.5449 13.6618C52.4922 13.6632 52.4399 13.6706 52.3889 13.6838C52.3289 13.6838 52.2889 13.7078 52.2449 13.7078C52.156 13.7283 52.0707 13.762 51.9919 13.8078C51.8998 13.8503 51.8145 13.9063 51.7389 13.9738C51.5829 14.1298 51.4139 14.3228 51.2219 14.5508C51.1693 14.4046 51.1474 14.2491 51.1578 14.094C51.1681 13.939 51.2103 13.7877 51.2819 13.6498Z" fill="#1F1F39"/>
<path d="M43.6351 15.2745C43.7 15.1256 43.7941 14.9912 43.9117 14.8792C44.0293 14.7673 44.1682 14.68 44.3201 14.6225C44.3691 14.6105 44.4011 14.5985 44.4531 14.5865L44.5131 14.5745H44.7131C44.7535 14.5731 44.7938 14.5771 44.8331 14.5865C44.9932 14.605 45.1483 14.6539 45.2901 14.7305C45.4346 14.8147 45.5549 14.935 45.6391 15.0795C45.6756 15.151 45.6999 15.228 45.7111 15.3075C45.7259 15.3835 45.7225 15.462 45.7011 15.5365C45.6063 15.456 45.501 15.3887 45.3881 15.3365C45.2953 15.3045 45.1989 15.2837 45.1011 15.2745H44.7411C44.7171 15.2745 44.7011 15.2835 44.6811 15.2835H44.6571L44.6331 15.2955C44.6211 15.2955 44.5971 15.3075 44.5851 15.3075C44.4131 15.3806 44.2546 15.482 44.1161 15.6075C43.9241 15.7515 43.7551 15.9325 43.5271 16.1125C43.4727 15.8288 43.5106 15.5351 43.6351 15.2745Z" fill="#1F1F39"/>
<path d="M49.6839 15.4171C49.8191 15.5262 49.9403 15.6515 50.0449 15.7901C50.1588 15.9342 50.2369 16.1031 50.2729 16.2831C50.287 16.3793 50.283 16.4774 50.2609 16.5721C50.2523 16.6184 50.2361 16.663 50.2129 16.7041C50.2031 16.7521 50.1826 16.7972 50.1529 16.8361C50.0687 17.0019 49.9394 17.1405 49.7799 17.2361C49.4856 17.4182 49.1359 17.4892 48.7939 17.4361C49.111 17.3795 49.4111 17.252 49.6719 17.0631C49.7928 16.9749 49.8847 16.8527 49.9359 16.7121C49.9515 16.6801 49.9635 16.6466 49.9719 16.6121C49.9845 16.58 49.9926 16.5464 49.9959 16.5121C50.0075 16.4459 50.0075 16.3783 49.9959 16.3121C49.9686 16.1685 49.9114 16.0322 49.8279 15.9121C49.7382 15.7836 49.6378 15.6629 49.5279 15.5511C49.3108 15.3174 49.0732 15.1035 48.8179 14.9121C49.1318 15.033 49.4242 15.2035 49.6839 15.4171Z" fill="#1F1F39"/>
<path d="M49.4308 18.8928C50.1864 18.7732 50.9054 18.4854 51.5348 18.0508C51.5348 18.0508 52.3528 20.7078 51.4348 21.6218C50.5168 22.5358 48.1688 22.6798 47.5558 21.0088C46.9428 19.3378 47.1468 18.9648 47.1468 18.9648C47.9072 19.0608 48.678 19.0365 49.4308 18.8928Z" fill="#F95368"/>
<path d="M51.7624 20.9923C51.102 20.7551 50.3845 20.7268 49.7074 20.9113C49.1075 21.0734 48.5575 21.3828 48.1074 21.8113C48.6036 22.1516 49.1987 22.3176 49.7994 22.2832C50.4 22.2488 50.9723 22.016 51.4264 21.6213C51.5895 21.4433 51.7051 21.2269 51.7624 20.9923Z" fill="#F9ACC0"/>
<path d="M40.1605 16.7278C39.5605 19.7338 39.1985 19.8538 39.1985 19.8538L38.9585 17.6898C38.8629 17.6192 38.7627 17.5551 38.6585 17.4978L36.2285 22.8478C37.3111 23.6136 38.5198 24.1833 39.7995 24.5308C39.7995 24.5308 39.9195 24.9308 40.0765 25.5528C41.0816 24.2792 41.7526 22.7747 42.0285 21.1758C42.3245 20.1612 42.3215 19.0828 42.02 18.0699C41.7185 17.0569 41.1312 16.1524 40.3285 15.4648C40.3034 15.8894 40.2472 16.3115 40.1605 16.7278Z" fill="#F9ACC0"/>
<path d="M38.5832 24.5071C36.4032 24.6548 34.486 22.5566 34.3005 19.8199C34.1151 17.0831 35.7318 14.7455 37.9118 14.5978C40.0918 14.4501 42.009 16.5483 42.1944 19.285C42.3799 22.0218 40.7632 24.3594 38.5832 24.5071Z" fill="#F99A3D"/>
<path d="M38.058 22.5632C36.6333 22.6597 35.3807 21.2872 35.2595 19.4983C35.1383 17.7094 36.1944 16.1816 37.6191 16.085C39.0439 15.9885 40.2965 17.361 40.4176 19.1489C40.5388 20.9368 39.4828 22.4666 38.058 22.5632Z" fill="#FF7F2D"/>
<path d="M34.9907 5.29117C33.8524 7.30734 33.2711 9.59013 33.3067 11.9052C33.2707 13.5219 33.4332 15.137 33.7907 16.7142L36.5447 15.5142C36.5447 15.5142 35.6907 9.80017 37.0337 6.49417C37.6532 4.89951 38.7281 3.52234 40.1247 2.53417C40.1967 2.48617 40.6417 2.19717 41.0147 1.99317C41.1347 1.93317 41.2427 1.88517 41.3277 1.83717L41.7277 1.68117C41.7277 1.68117 42.3167 1.33217 42.8097 1.08117C43.3954 0.806754 43.9964 0.566029 44.6097 0.360168C42.9486 -0.141577 41.1656 -0.0568381 39.5597 0.600168C37.5679 1.62654 35.9642 3.27308 34.9907 5.29117Z" fill="#F99A3D"/>
<path d="M45.0537 82.8461C42.9977 82.4131 40.7367 81.7161 39.6427 79.9361C38.8487 78.6491 38.7527 76.9421 39.3427 74.7421C39.9797 72.3491 42.0717 70.3531 44.4887 68.0421C47.6387 65.0361 51.2097 61.6211 52.5687 56.3421C54.3487 49.4161 48.0837 44.3181 43.5267 40.5901C42.2204 39.6023 40.9979 38.5082 39.8717 37.3191C38.4887 35.6881 37.7317 32.9831 37.6347 29.3031C37.5946 27.6238 37.6791 25.9439 37.8877 24.2771C37.892 24.2452 37.9026 24.2144 37.9189 24.1866C37.9352 24.1587 37.9568 24.1344 37.9826 24.1151C38.0084 24.0957 38.0378 24.0817 38.069 24.0738C38.1003 24.0659 38.1328 24.0643 38.1647 24.0691C38.2267 24.0817 38.2817 24.1172 38.3188 24.1685C38.3558 24.2199 38.3722 24.2833 38.3647 24.3461C38.3567 24.4331 37.0937 33.3071 40.2327 37.0231C41.338 38.1885 42.5363 39.2621 43.8157 40.2331C48.4807 44.0331 54.8777 49.2511 53.0257 56.4771C51.6427 61.8881 48.0117 65.3511 44.8137 68.4051C42.4447 70.6411 40.4007 72.5891 39.7997 74.8621C39.2467 76.9301 39.3307 78.5171 40.0527 79.6841C40.8467 80.9841 42.3737 81.7841 45.1527 82.3771C47.4141 82.869 49.7348 83.031 52.0427 82.8581C52.0735 82.8542 52.1047 82.8563 52.1347 82.8645C52.1647 82.8726 52.1927 82.8866 52.2173 82.9056C52.2418 82.9246 52.2624 82.9482 52.2779 82.9752C52.2933 83.0021 52.3032 83.0318 52.3072 83.0626C52.3111 83.0934 52.309 83.1247 52.3008 83.1546C52.2927 83.1846 52.2787 83.2127 52.2597 83.2372C52.2407 83.2618 52.2171 83.2824 52.1901 83.2978C52.1632 83.3132 52.1335 83.3232 52.1027 83.3271C51.5197 83.3916 50.9332 83.4196 50.3467 83.4111C48.5676 83.406 46.7938 83.2167 45.0537 82.8461Z" fill="#1F1F39"/>
<path d="M49.2975 45.8736C49.2587 45.8237 49.2408 45.7606 49.2475 45.6978C49.2542 45.6349 49.285 45.5771 49.3335 45.5366C49.4065 45.4776 56.4405 39.8136 58.4465 32.8756C59.617 28.5815 59.2825 24.0161 57.4985 19.9386C57.4843 19.9101 57.4758 19.8792 57.4735 19.8474C57.4712 19.8157 57.4752 19.7839 57.4852 19.7537C57.4953 19.7235 57.5111 19.6956 57.5319 19.6716C57.5528 19.6475 57.5781 19.6278 57.6065 19.6136C57.635 19.5993 57.6659 19.5908 57.6976 19.5885C57.7294 19.5862 57.7612 19.5902 57.7914 19.6002C57.8216 19.6103 57.8495 19.6262 57.8735 19.647C57.8976 19.6678 57.9173 19.6931 57.9315 19.7216C59.7654 23.9048 60.1092 28.5904 58.9055 32.9966C56.8615 40.0786 49.7065 45.8376 49.6345 45.8976C49.6193 45.9214 49.5978 45.9407 49.5725 45.9534C49.5471 45.9661 49.5188 45.9717 49.4905 45.9696C49.4533 45.9689 49.4166 45.9599 49.3832 45.9433C49.3498 45.9267 49.3206 45.9029 49.2975 45.8736Z" fill="#1F1F39"/>
<path d="M46.7254 64.8953L47.1454 64.4753C47.2336 64.3818 47.3396 64.307 47.4573 64.2552C47.5749 64.2035 47.7017 64.1758 47.8302 64.1739C47.9587 64.172 48.0863 64.1959 48.2054 64.2442C48.3245 64.2925 48.4327 64.3642 48.5237 64.455C48.6146 64.5459 48.6863 64.654 48.7347 64.7731C48.7831 64.8922 48.8071 65.0197 48.8053 65.1483C48.8035 65.2768 48.7759 65.4036 48.7242 65.5213C48.6726 65.6389 48.5978 65.7451 48.5044 65.8333L48.0834 66.2543C47.9015 66.426 47.6598 66.5199 47.4098 66.5162C47.1597 66.5126 46.9209 66.4115 46.7441 66.2346C46.5673 66.0577 46.4665 65.8188 46.463 65.5688C46.4595 65.3187 46.5536 65.0771 46.7254 64.8953Z" fill="#1F1F39"/>
<path d="M51.2951 26.6588C51.3431 26.4668 49.7801 27.0668 48.0961 27.0668C45.3191 27.0668 44.3691 26.4668 44.3691 26.4668C44.3691 26.4668 47.0141 29.8338 49.7801 30.9158C50.6524 31.2605 51.5657 31.4908 52.4971 31.6008L51.2951 26.6588Z" fill="#F9ACC0"/>
<path d="M43.9721 26.4423C43.9585 26.4368 43.9462 26.4287 43.9359 26.4184C43.9255 26.4081 43.9173 26.3959 43.9117 26.3824C43.9061 26.3689 43.9033 26.3544 43.9033 26.3398C43.9034 26.3252 43.9064 26.3107 43.9121 26.2973C43.9176 26.2837 43.9257 26.2714 43.936 26.261C43.9463 26.2507 43.9585 26.2425 43.972 26.2369C43.9855 26.2313 44 26.2284 44.0146 26.2285C44.0292 26.2286 44.0436 26.2316 44.0571 26.2373C45.3444 26.7357 46.717 26.9766 48.0971 26.9463C49.1581 26.92 50.2103 26.7456 51.2231 26.4283C51.2373 26.4233 51.2523 26.4212 51.2673 26.4221C51.2823 26.4231 51.2969 26.427 51.3103 26.4338C51.3238 26.4405 51.3357 26.4498 51.3455 26.4612C51.3552 26.4727 51.3626 26.486 51.3671 26.5003C51.3721 26.5144 51.3742 26.5295 51.3732 26.5445C51.3723 26.5595 51.3683 26.5741 51.3616 26.5875C51.3549 26.601 51.3455 26.6129 51.3341 26.6227C51.3227 26.6324 51.3094 26.6398 51.2951 26.6443C50.2603 26.9771 49.182 27.1553 48.0951 27.1733H47.7951C46.4882 27.1517 45.1948 26.9044 43.9721 26.4423Z" fill="#1F1F39"/>
<path d="M52.2443 84.5316C51.8782 84.5295 51.5276 84.3831 51.2687 84.1242C51.0098 83.8653 50.8634 83.5148 50.8613 83.1486C50.8634 82.7825 51.0098 82.4319 51.2687 82.173C51.5276 81.9141 51.8782 81.7677 52.2443 81.7656H71.2443C71.6105 81.7677 71.961 81.9141 72.2199 82.173C72.4788 82.4319 72.6252 82.7825 72.6273 83.1486C72.6284 83.3305 72.5933 83.5109 72.5242 83.6791C72.4551 83.8474 72.3533 84.0003 72.2246 84.1289C72.096 84.2576 71.9431 84.3594 71.7748 84.4285C71.6066 84.4976 71.4262 84.5327 71.2443 84.5316H52.2443Z" fill="#EAEAFF"/>
<path d="M23.2053 49.1797L21.2812 62.8867L23.2053 49.1797Z" fill="#1F1F39"/>
<path d="M21.2716 63.0085C21.2562 63.0069 21.2412 63.0022 21.2276 62.9946C21.2141 62.987 21.2022 62.9767 21.1929 62.9643C21.1835 62.9519 21.1767 62.9377 21.1731 62.9226C21.1694 62.9075 21.1689 62.8918 21.1716 62.8765L23.0976 49.1705C23.1049 49.1427 23.1223 49.1186 23.1464 49.1029C23.1705 49.0871 23.1995 49.0809 23.2279 49.0854C23.2563 49.0899 23.282 49.1048 23.3001 49.1271C23.3181 49.1495 23.3272 49.1778 23.3256 49.2065L21.4016 62.9125C21.3953 62.94 21.3802 62.9646 21.3585 62.9827C21.3368 63.0008 21.3098 63.0112 21.2816 63.0125L21.2716 63.0085Z" fill="#1F1F39"/>
<path d="M26.6957 15.0317C27.7643 12.981 29.3885 11.2725 31.3827 10.1017C32.7057 9.74068 33.0657 10.5827 33.0657 10.5827C33.3242 10.3539 33.634 10.1908 33.9689 10.1071C34.3038 10.0234 34.6539 10.0215 34.9897 10.1017C35.2692 10.2096 35.5159 10.3882 35.7056 10.6201C35.8953 10.8521 36.0214 11.1293 36.0717 11.4247C36.3466 11.2213 36.6745 11.1017 37.0158 11.0802C37.3571 11.0588 37.6974 11.1364 37.9957 11.3037C38.8377 11.7847 38.5957 12.9867 37.9957 13.7037C37.3957 14.4207 35.5957 15.7477 35.4707 16.4697C35.3457 17.1917 38.4767 24.8867 37.0337 30.0567C35.5907 35.2267 23.9277 55.6727 18.5167 62.4057C13.1057 69.1387 6.13168 68.1777 3.96768 66.4947C2.03278 65.0153 0.698923 62.8854 0.212698 60.4987C-0.273527 58.1121 0.120766 55.6301 1.32268 53.5117C4.68868 47.0117 26.6957 23.9297 26.6957 23.9297C26.6957 23.9297 25.8517 17.0757 26.6957 15.0317Z" fill="#F9D2DD"/>
<path d="M32.4769 19.6254C32.4409 19.4574 31.6349 15.3444 32.9819 13.8774C33.8928 12.9164 34.9092 12.0613 36.0119 11.3284C36.0243 11.3196 36.0383 11.3136 36.0532 11.3106C36.068 11.3077 36.0833 11.3079 36.098 11.3113C36.1128 11.3147 36.1266 11.3212 36.1387 11.3304C36.1507 11.3395 36.1607 11.3511 36.1679 11.3644C36.1767 11.3767 36.1828 11.3908 36.1857 11.4056C36.1887 11.4205 36.1884 11.4358 36.185 11.4505C36.1816 11.4652 36.1751 11.4791 36.166 11.4912C36.1568 11.5032 36.1452 11.5132 36.1319 11.5204C35.0514 12.2447 34.0517 13.0828 33.1499 14.0204C31.8759 15.4084 32.6929 19.5294 32.6929 19.5774C32.6958 19.5918 32.6959 19.6066 32.693 19.621C32.6901 19.6354 32.6845 19.6491 32.6763 19.6613C32.6681 19.6735 32.6576 19.6839 32.6453 19.692C32.6331 19.7001 32.6194 19.7057 32.6049 19.7084C32.6049 19.7204 32.5929 19.7204 32.5809 19.7204C32.5555 19.7185 32.5314 19.7081 32.5125 19.6909C32.4937 19.6737 32.4811 19.6506 32.4769 19.6254Z" fill="#1F1F39"/>
<path d="M28.9893 17.9299C28.9773 17.7979 28.7643 14.6229 29.8553 13.2769C30.8005 12.235 31.8568 11.2994 33.0053 10.4869C33.0296 10.4691 33.06 10.4616 33.0898 10.4661C33.1196 10.4706 33.1464 10.4867 33.1643 10.5109C33.1806 10.5353 33.1869 10.565 33.1818 10.5938C33.1768 10.6227 33.1609 10.6485 33.1373 10.6659C32.0091 11.4663 30.9698 12.3852 30.0373 13.4069C28.9893 14.6829 29.2183 17.8659 29.2183 17.8939C29.2208 17.9288 29.2098 17.9633 29.1874 17.9902C29.165 18.017 29.1331 18.0341 29.0983 18.0379C29.084 18.0381 29.0699 18.0354 29.0567 18.03C29.0434 18.0246 29.0314 18.0167 29.0213 18.0067C29.0112 17.9966 29.0031 17.9847 28.9976 17.9715C28.9921 17.9583 28.9893 17.9442 28.9893 17.9299Z" fill="#1F1F39"/>
<path d="M71.7842 41.0039L73.5842 52.0659L71.7842 41.0039Z" fill="#1F1F39"/>
<path d="M73.479 52.0932L71.674 41.0272C71.6697 40.9962 71.6778 40.9648 71.6965 40.9397C71.7152 40.9146 71.743 40.8979 71.774 40.8932C71.8043 40.89 71.8348 40.8986 71.859 40.9173C71.8832 40.9359 71.8993 40.9631 71.904 40.9932L73.704 52.0552C73.7077 52.0859 73.6994 52.1168 73.6807 52.1415C73.662 52.1661 73.6345 52.1825 73.604 52.1872H73.588C73.5746 52.1885 73.5611 52.187 73.5483 52.1829C73.5355 52.1788 73.5237 52.1722 73.5135 52.1634C73.5033 52.1546 73.495 52.1439 73.4891 52.1318C73.4832 52.1198 73.4797 52.1066 73.479 52.0932Z" fill="#1F1F39"/>
<path d="M48.1918 19.5764C48.195 19.6103 48.2052 19.6431 48.2218 19.6728C48.2384 19.7025 48.2611 19.7283 48.2883 19.7487C48.3156 19.769 48.3468 19.7834 48.3799 19.791C48.4131 19.7985 48.4475 19.799 48.4808 19.7924L49.6588 19.5984C50.0577 19.5203 50.4512 19.4168 50.8368 19.2884C50.8708 19.2831 50.9034 19.2711 50.9326 19.2531C50.9619 19.2351 50.9874 19.2114 51.0074 19.1835C51.0275 19.1556 51.0419 19.124 51.0497 19.0905C51.0575 19.057 51.0585 19.0223 51.0528 18.9884L50.9218 18.3984C50.4447 18.6256 49.9407 18.7913 49.4218 18.8914C48.9962 18.9695 48.5645 19.0096 48.1318 19.0114L48.1918 19.5764Z" fill="white"/>
<path d="M0.504869 55.4336C-0.128567 57.4095 -0.135825 59.5329 0.484088 61.5132C1.104 63.4934 2.32079 65.2336 3.96787 66.4956C6.13187 68.1786 13.1059 69.1406 18.5169 62.4076C19.0459 61.7466 19.6469 60.9406 20.2849 60.0386C17.6749 61.7706 12.3969 64.4276 6.85387 62.2876C5.32557 61.7345 3.9518 60.8237 2.8473 59.6314C1.7428 58.439 0.939628 56.9997 0.504869 55.4336V55.4336Z" fill="#F9ACC0"/>
<path d="M54.5957 14.9006C53.2417 15.1526 52.2557 16.0356 52.4117 16.8726C52.5677 17.7096 53.7957 18.1956 55.1537 17.9426C55.4216 17.8939 55.6837 17.8175 55.9357 17.7146C55.931 16.7623 55.8746 15.8109 55.7667 14.8646C55.3769 14.8167 54.9819 14.8289 54.5957 14.9006Z" fill="#F9ACC0"/>
</svg>
