<svg width="161" height="160" viewBox="0 0 161 160" fill="none" xmlns="http://www.w3.org/2000/svg">
<path d="M155.849 125.756V126.001H7V125.756H155.849Z" fill="#DADAF7"/>
<path d="M77.8927 125.852H35.3467V82.668L77.8927 100.275V125.852Z" fill="#EAEAFF"/>
<path d="M35.3467 111.089L66.3917 116.067L77.8917 100.275L38.4117 83.9434L35.3467 91.4714V111.089Z" fill="#DADAF7"/>
<path d="M66.3919 116.068L77.8919 100.276L35.2489 82.668L23.5029 97.112L66.3919 116.068Z" fill="#F4F3FD"/>
<path d="M27.476 92.1849L26.25 97.5799L26.495 98.5609C28.5104 98.2341 30.4331 97.4817 32.135 96.3539C35.544 94.0729 48.025 94.8829 51.017 94.1469C52.979 93.6569 55.627 93.0469 56.191 91.3269L37.53 84.3379L27.476 92.1849Z" fill="#DADAF7"/>
<path d="M77.8926 125.852H120.463V82.668L77.8926 100.275V125.852Z" fill="#DADAF7"/>
<path d="M120.463 111.089L89.4176 116.067L77.8926 100.275L117.398 83.9434L120.463 91.4714V111.089Z" fill="#D0D0EF"/>
<path d="M77.893 69.7949L120.562 82.6689L77.893 100.055L35.249 82.6689L77.893 69.7949Z" fill="#EAEAFF"/>
<path d="M89.4176 116.068L77.8926 100.275L120.562 82.668L132.308 97.112L89.4176 116.068Z" fill="#F4F3FD"/>
<path d="M98.5896 96.352C98.5896 96.352 101.067 100.352 103.249 100.03C106.682 99.54 105.579 96.965 105.579 96.965C105.579 96.965 107.541 98.682 109.135 98.065C110.729 97.448 110.606 96.348 110.606 96.348C110.606 96.348 113.181 96.961 113.794 95.858C114.407 94.755 109.404 87.377 109.404 87.377L107.761 87.867L91.1836 94.709C91.3851 95.2054 91.6907 95.6527 92.0799 96.0209C92.4691 96.389 92.9328 96.6694 93.4396 96.843C94.2861 97.1168 95.1797 97.2145 96.0654 97.1301C96.9511 97.0457 97.8101 96.7808 98.5896 96.352Z" fill="#DADAF7"/>
<path d="M110.191 89.2184L95.5747 95.2264L91.1367 77.2024L103.937 73.8184L110.191 89.2184Z" fill="#F9D2DD"/>
<path d="M25.8332 98.0944C27.4762 100.326 30.9092 94.7104 30.9092 94.7104C30.9092 94.7104 48.2952 95.7644 55.8732 90.2714C58.7081 88.3049 60.8189 85.462 61.8812 82.1794L48.5652 78.5254C48.5652 78.5254 48.2952 82.6944 34.4892 84.0184C24.4602 84.9744 22.9392 89.5114 22.7192 92.8954C22.6719 94.3257 22.9396 95.749 23.5032 97.0644C23.5032 97.0644 26.6422 93.3864 27.2302 92.8714C27.2312 92.8704 24.5092 96.2554 25.8332 98.0944Z" fill="#F9D2DD"/>
<path d="M91.1367 77.2024L91.9217 84.5104L105.899 78.5264L103.937 73.8184L91.1367 77.2024Z" fill="#F9ACC0"/>
<path d="M106.02 76.4166C106.02 76.4166 96.7258 58.3926 82.9208 58.3926C69.1158 58.3926 62.7628 59.1776 57.3438 64.1306C51.8998 69.0846 48.0498 78.5006 48.0498 78.5006L61.9498 82.1546L60.4298 92.9446L77.8198 100.179L95.3038 92.8706L92.7038 80.0706L106.02 76.4166Z" fill="#3D5CFF"/>
<path d="M110.214 89.2174L109.159 86.6184C106.507 86.441 103.847 86.7994 101.337 87.6724C99.6446 88.2114 95.0586 91.5964 95.0586 91.5964L95.8436 95.2254L110.214 89.2174Z" fill="#F9ACC0"/>
<path d="M92.6316 80.2905L90.8906 71.6105C90.8842 71.5946 90.8817 71.5775 90.8833 71.5604C90.8849 71.5433 90.8905 71.5269 90.8996 71.5125C90.9088 71.498 90.9213 71.4859 90.9361 71.4773C90.9508 71.4686 90.9675 71.4635 90.9846 71.4625C91.0007 71.4553 91.0183 71.4522 91.0359 71.4534C91.0534 71.4545 91.0705 71.46 91.0855 71.4693C91.1005 71.4785 91.113 71.4913 91.1219 71.5066C91.1308 71.5218 91.1358 71.5389 91.1366 71.5565L92.8776 80.2415C92.8839 80.2578 92.8861 80.2754 92.8842 80.2928C92.8822 80.3102 92.876 80.3268 92.8662 80.3413C92.8563 80.3557 92.8431 80.3676 92.8277 80.3758C92.8123 80.3841 92.7951 80.3884 92.7776 80.3885H92.7546C92.7056 80.3885 92.6316 80.3395 92.6316 80.2905Z" fill="#DADAF7"/>
<path d="M61.803 82.571C61.729 82.546 61.68 82.497 61.703 82.424L64.039 71.262C64.064 71.188 64.139 71.139 64.186 71.162C64.26 71.187 64.309 71.236 64.286 71.309L61.955 82.473C61.9535 82.4876 61.9491 82.5018 61.9421 82.5148C61.9351 82.5277 61.9256 82.5392 61.9142 82.5485C61.9028 82.5578 61.8897 82.5647 61.8755 82.5689C61.8614 82.5731 61.8466 82.5745 61.832 82.573L61.803 82.571Z" fill="#DADAF7"/>
<path d="M61.8798 82.154L48.5648 78.5C48.4318 79.0906 48.1034 79.6191 47.6328 80L59.1828 87.132C60.4128 85.6746 61.3307 83.9803 61.8798 82.154Z" fill="#F9ACC0"/>
<path d="M124.952 67.1703C132.088 67.1703 134.834 59.6913 129.121 56.2583C128.086 55.6448 126.887 55.3671 125.688 55.4637C124.489 55.5602 123.349 56.0261 122.426 56.7973C122.426 56.7973 122.426 50.3973 114.898 50.5193C107.37 50.6413 108.228 58.6853 108.228 58.6853C108.228 58.6853 104.328 58.8083 103.839 62.2853C103.324 66.1353 108.179 67.1653 110.681 67.1653L124.952 67.1703Z" fill="#EAEAFF"/>
<path d="M86.4507 42.9921C86.2787 38.5291 84.8077 34.0661 77.5737 35.1701C72.5987 35.9301 68.0097 37.0581 66.1987 41.5001C64.9207 44.6111 66.1707 50.7911 69.1377 53.2431C73.8947 57.1671 75.4647 54.8121 75.4647 54.8121L81.5467 50.6191C81.5467 50.6191 86.6717 49.2461 86.4507 42.9921Z" fill="#1F1F39"/>
<path d="M76.2492 46.6469C75.3912 46.7469 74.6312 46.8469 73.9682 46.9169C74.2364 48.5382 73.9332 50.2024 73.1102 51.6249V49.5399C73.0825 48.6912 72.91 47.8535 72.6002 47.0629C70.9822 47.2099 70.2462 47.2099 70.2462 47.2099C69.5932 47.1346 68.9356 47.307 68.4035 47.693C67.8713 48.0791 67.5034 48.6507 67.3722 49.2949C66.8572 51.6469 69.2122 52.4339 70.5112 52.4339C70.8694 52.4769 71.2326 52.4263 71.5652 52.2869V59.7659C71.5652 59.7659 71.8352 61.6049 76.5182 61.6049C80.4422 61.6049 81.2262 59.7659 81.2262 59.7659V54.2729C81.2262 54.2729 83.8263 52.9729 84.3652 50.8889C84.9042 48.8049 84.6122 44.0469 84.6122 44.0469C81.9677 45.3204 79.1497 46.1965 76.2492 46.6469Z" fill="#F9D2DD"/>
<path d="M81.203 58.5137V54.2227C78.065 55.7917 73.626 55.0077 73.626 55.0077C75.22 57.3127 78.526 58.1707 81.203 58.5137Z" fill="#F9ACC0"/>
<path d="M93.0973 95.4203C95.4273 98.2203 100.135 94.7583 100.135 94.7583C100.809 95.7346 101.345 96.7989 101.729 97.9213C101.901 98.9513 103.151 100.054 105.113 99.1963C107.075 98.3383 106.903 97.3083 106.903 97.3083C106.903 97.3083 108.718 98.5833 110.115 97.5533C111.512 96.5233 111.366 95.4933 111.366 95.4933C111.366 95.4933 112.96 97.0873 114.333 95.7873C115.706 94.4873 113.597 89.8283 112.052 88.5043C110.507 87.1803 109.134 86.8863 106.046 87.4013C103.292 88.0936 100.62 89.0803 98.0763 90.3443C98.0763 90.3443 90.7923 92.6243 93.0973 95.4203Z" fill="#F9D2DD"/>
<path d="M106.682 97.3574L104.843 92.6984C104.836 92.6824 104.832 92.665 104.832 92.6474C104.832 92.6298 104.835 92.6123 104.842 92.5961C104.849 92.58 104.86 92.5654 104.872 92.5534C104.885 92.5414 104.901 92.5322 104.917 92.5264C104.933 92.5194 104.951 92.5157 104.968 92.5156C104.985 92.5156 105.003 92.5191 105.019 92.5261C105.035 92.533 105.049 92.5432 105.061 92.556C105.073 92.5688 105.082 92.5839 105.088 92.6004L106.928 97.2594C106.935 97.2755 106.939 97.2929 106.939 97.3105C106.94 97.3281 106.936 97.3455 106.929 97.3617C106.922 97.3779 106.912 97.3924 106.899 97.4044C106.886 97.4164 106.871 97.4256 106.854 97.4314H106.805C106.78 97.4319 106.755 97.4252 106.733 97.4121C106.711 97.399 106.694 97.3801 106.682 97.3574Z" fill="white"/>
<path d="M111.366 95.543L109.527 90.884C109.52 90.8679 109.516 90.8505 109.516 90.8329C109.515 90.8153 109.519 90.7979 109.526 90.7817C109.533 90.7655 109.543 90.751 109.556 90.739C109.569 90.727 109.584 90.7178 109.601 90.712C109.617 90.7049 109.634 90.7012 109.652 90.7012C109.669 90.7011 109.686 90.7047 109.702 90.7116C109.719 90.7186 109.733 90.7288 109.745 90.7415C109.757 90.7543 109.766 90.7695 109.772 90.786L111.612 95.445C111.619 95.461 111.623 95.4784 111.623 95.496C111.623 95.5136 111.62 95.5311 111.613 95.5472C111.606 95.5634 111.595 95.578 111.583 95.59C111.57 95.602 111.554 95.6112 111.538 95.617H111.489C111.463 95.6174 111.438 95.6108 111.417 95.5977C111.395 95.5846 111.377 95.5656 111.366 95.543Z" fill="white"/>
<path d="M22.988 95.8859C22.969 95.8885 22.9496 95.8863 22.9317 95.8794C22.9139 95.8725 22.898 95.8612 22.8857 95.8465C22.8734 95.8318 22.8651 95.8142 22.8614 95.7954C22.8578 95.7766 22.859 95.7571 22.865 95.7389C23.0184 94.4957 23.4729 93.3087 24.189 92.2809C24.7655 91.5206 25.4917 90.8865 26.323 90.4179C26.3529 90.4049 26.3864 90.4027 26.4177 90.4116C26.4491 90.4206 26.4764 90.4401 26.495 90.4669C26.5077 90.4967 26.5097 90.53 26.5008 90.5611C26.4919 90.5922 26.4725 90.6194 26.446 90.6379C25.6611 91.1017 24.9705 91.7089 24.41 92.4279C23.7311 93.4251 23.2945 94.5671 23.135 95.7629C23.1244 95.7951 23.1051 95.8237 23.0791 95.8455C23.0531 95.8672 23.0215 95.8812 22.988 95.8859Z" fill="white"/>
<path d="M22.3948 92.7979C22.3208 92.7729 22.2718 92.6979 22.2948 92.6509C22.6051 91.4354 23.1951 90.3091 24.0178 89.3619C24.6755 88.6755 25.469 88.1337 26.3478 87.7709C26.3638 87.7637 26.3812 87.7599 26.3988 87.7598C26.4164 87.7596 26.4339 87.7631 26.4501 87.7701C26.4662 87.7771 26.4808 87.7873 26.4928 87.8002C26.5048 87.8131 26.514 87.8283 26.5198 87.8449C26.527 87.861 26.5308 87.8784 26.5309 87.896C26.5311 87.9136 26.5276 87.931 26.5206 87.9472C26.5137 87.9634 26.5034 87.9779 26.4905 87.9899C26.4776 88.0019 26.4624 88.0111 26.4458 88.0169C25.6062 88.3779 24.8472 88.9032 24.2138 89.5619C23.4282 90.4781 22.8585 91.559 22.5468 92.7249C22.5158 92.7634 22.4722 92.7896 22.4238 92.7989L22.3948 92.7979Z" fill="white"/>
<g opacity="0.999">
<path opacity="0.999" d="M49.6437 42.8441C49.9847 42.712 50.3484 42.6484 50.714 42.657C51.0796 42.6657 51.4399 42.7463 51.7743 42.8944C52.1087 43.0424 52.4106 43.255 52.6627 43.5199C52.9149 43.7848 53.1123 44.0968 53.2437 44.4381L56.1617 52.0151C56.2938 52.3561 56.3573 52.7198 56.3487 53.0854C56.3401 53.451 56.2594 53.8113 56.1114 54.1457C55.9633 54.4801 55.7508 54.782 55.4859 55.0341C55.221 55.2863 54.909 55.4837 54.5677 55.6151L50.6677 57.1151L52.4337 61.6761C52.4997 61.8485 52.4957 62.0399 52.4224 62.2094C52.3492 62.3789 52.2125 62.513 52.0417 62.5831L51.8417 62.6571C51.7459 62.7228 51.6354 62.7639 51.5199 62.7768C51.4045 62.7897 51.2876 62.774 51.1797 62.7311L43.8717 59.7391L37.6717 62.1391C37.3307 62.2712 36.9669 62.3348 36.6013 62.3261C36.2357 62.3175 35.8754 62.2368 35.541 62.0888C35.2066 61.9407 34.9047 61.7282 34.6526 61.4633C34.4005 61.1984 34.2031 60.8864 34.0717 60.5451L31.1547 52.9721C31.011 52.6352 30.9371 52.2728 30.9375 51.9066C30.9379 51.5404 31.0126 51.1781 31.157 50.8415C31.3014 50.505 31.5126 50.2013 31.7777 49.9487C32.0429 49.6961 32.3565 49.5 32.6997 49.3721L49.6437 42.8441Z" fill="#F4F3FD"/>
</g>
<path d="M37.9473 54.3211C37.9597 54.6505 38.0996 54.9623 38.3375 55.1907C38.5753 55.419 38.8926 55.5461 39.2223 55.5451C39.5516 55.5329 39.8633 55.3934 40.0918 55.1559C40.3203 54.9185 40.4478 54.6016 40.4473 54.2721C40.4397 53.9409 40.3015 53.6261 40.0629 53.3963C39.8243 53.1665 39.5045 53.0402 39.1733 53.0451C38.8433 53.057 38.5308 53.1968 38.302 53.4349C38.0732 53.6731 37.946 53.9908 37.9473 54.3211Z" fill="#DADAF7"/>
<path d="M42.5576 52.5056C42.5658 52.8366 42.7043 53.151 42.9431 53.3805C43.1818 53.6099 43.5015 53.7357 43.8326 53.7306C44.1621 53.7184 44.474 53.5788 44.7025 53.3411C44.9311 53.1034 45.0584 52.7863 45.0576 52.4566C45.0497 52.1256 44.9115 51.8111 44.6729 51.5815C44.4343 51.3519 44.1147 51.2258 43.7836 51.2306C43.4538 51.2425 43.1415 51.3822 42.9127 51.6201C42.684 51.858 42.5566 52.1756 42.5576 52.5056Z" fill="#DADAF7"/>
<path d="M47.1924 50.7159C47.2048 51.0454 47.3447 51.3572 47.5826 51.5855C47.8204 51.8139 48.1377 51.9409 48.4674 51.9399C48.7967 51.9277 49.1084 51.7882 49.3369 51.5508C49.5654 51.3133 49.6929 50.9965 49.6924 50.6669C49.6907 50.5023 49.6563 50.3396 49.5911 50.1884C49.5259 50.0372 49.4312 49.9005 49.3126 49.7863C49.194 49.6721 49.0539 49.5826 48.9004 49.5232C48.7468 49.4637 48.583 49.4354 48.4184 49.4399C48.0884 49.4519 47.7759 49.5917 47.5472 49.8298C47.3184 50.0679 47.1911 50.3857 47.1924 50.7159Z" fill="#DADAF7"/>
</svg>
