<svg width="119" height="87" viewBox="0 0 119 87" fill="none" xmlns="http://www.w3.org/2000/svg">
<path d="M100.765 49.3748L99.3766 57.9268L89.4866 62.7598L91.0976 53.9598L100.765 49.3748Z" fill="#DADAF7"/>
<path d="M100.637 14.9174C100.637 14.9174 101.637 10.5804 99.1539 9.96141C97.6486 9.58623 96.1146 9.33736 94.5679 9.21741L78.7909 86.6914L88.2479 86.6794L100.637 14.9174Z" fill="#DADAF7"/>
<path d="M94.5678 9.09274C94.5678 9.09274 96.0548 9.09274 96.5508 9.71274C96.8653 10.2786 96.9953 10.9285 96.9228 11.5717L82.9798 86.6777L29.0048 86.6777L48.4628 7.97674C48.4628 7.97674 49.7028 4.63074 54.0368 5.62273L94.5678 9.09274Z" fill="#EAEAFF"/>
<path d="M90.9736 16.405C90.9736 16.405 91.2216 14.794 89.8586 14.67L51.6856 11.2L43.8776 48.258L79.8196 54.083C79.8196 54.083 83.6616 55.075 84.1576 52.224L90.9736 16.405Z" fill="white"/>
<path d="M106.961 86.8027H111.299L96.0548 30.6587L94.4438 39.4587L106.961 86.8027Z" fill="#DADAF7"/>
<path d="M19.4423 44.082C13.4423 44.082 11.1423 37.798 15.9223 34.911C16.7923 34.3953 17.8009 34.1624 18.8089 34.2447C19.8169 34.3269 20.7745 34.7201 21.5493 35.37C21.5493 35.37 21.5373 29.976 27.8823 30.076C34.2273 30.176 33.4823 36.93 33.4823 36.93C33.4823 36.93 36.7683 37.03 37.1653 39.967C37.6113 43.214 33.5463 44.082 31.4393 44.082H19.4423Z" fill="white"/>
<path d="M94.3323 51.9267L102.425 37.2027C102.281 35.7025 102.281 34.192 102.425 32.6917C102.741 31.3449 102.551 29.9291 101.892 28.7127C101.359 28.0557 99.7733 24.4737 100.826 23.1477C101.879 21.8217 104.011 22.6147 105.065 23.6807C106.119 24.7467 109.043 27.7957 109.043 27.7957C109.043 27.7957 116.603 28.1917 117.932 30.8447C119.261 33.4977 107.332 65.8447 103.89 69.6867C100.448 73.5287 90.3683 71.4097 85.7213 68.1007C81.0743 64.7917 88.3703 47.9527 88.3703 47.9527L94.3323 51.9267Z" fill="#F9D2DD"/>
<path d="M85.7311 68.0987C81.0961 64.7897 88.3871 47.9467 88.3871 47.9467L92.2871 50.5467L90.0931 70.3047C88.5485 69.7642 87.0819 69.0225 85.7311 68.0987Z" fill="#F9ACC0"/>
<path d="M101.384 27.7831L105.871 24.4621C106.809 25.4291 108.089 26.7671 108.709 27.3991L102.537 31.1621C102.578 30.3013 102.359 29.4481 101.909 28.7131C101.703 28.4214 101.527 28.1099 101.384 27.7831Z" fill="#F9ACC0"/>
<path d="M114.497 44.3652C114.497 43.5222 114.497 40.1262 113.171 39.3212C111.808 38.5032 107.871 39.1852 106.008 37.3382C104.801 35.9525 104.018 34.2488 103.752 32.4302L102.389 32.9632L102.426 32.7032C102.438 32.5792 102.463 32.4682 102.476 32.3442V32.2942C102.491 32.1915 102.5 32.088 102.501 31.9842V31.9592C102.513 31.7362 102.526 31.5252 102.526 31.3152L103.479 29.5052L113.332 29.8152C114.906 30.7202 117.372 29.7052 117.944 30.8432C118.452 31.8592 117.002 37.2632 114.833 43.7572C114.734 43.9668 114.622 44.1699 114.497 44.3652Z" fill="#F9ACC0"/>
<path d="M99.4123 35.3787L117.98 16.8127C118.129 16.6628 118.213 16.46 118.213 16.2487C118.213 16.0373 118.129 15.8346 117.98 15.6847C117.83 15.5357 117.628 15.4521 117.416 15.4521C117.205 15.4521 117.002 15.5357 116.852 15.6847L98.2863 34.2527C98.1373 34.4026 98.0536 34.6053 98.0536 34.8167C98.0536 35.028 98.1373 35.2308 98.2863 35.3807C98.4363 35.5288 98.6388 35.6117 98.8497 35.6113C99.0605 35.611 99.2627 35.5273 99.4123 35.3787Z" fill="white"/>
<path d="M99.3761 36.409C98.9761 37.599 97.5171 37.995 97.2571 38.801C97.177 39.0177 97.1476 39.2499 97.1712 39.4797C97.1948 39.7096 97.2707 39.931 97.3931 40.127C96.9058 39.8892 96.5039 39.5067 96.2422 39.0319C95.9805 38.557 95.8719 38.0129 95.9311 37.474C96.0671 35.479 97.2571 33.756 98.9791 34.686C99.2267 34.8887 99.4 35.1678 99.4719 35.4796C99.5437 35.7915 99.5101 36.1183 99.3761 36.409Z" fill="#E88524"/>
<path d="M114.497 36.9417C111.052 38.4037 109.056 38.4037 108.263 38.0077C107.47 37.6117 107.73 36.2847 107.73 36.2847C107.73 36.2847 106.404 36.1487 106.007 35.3547C105.891 35.1286 105.83 34.878 105.83 34.6237C105.83 34.3695 105.891 34.1189 106.007 33.8927C105.637 33.8181 105.29 33.6597 104.992 33.4298C104.693 33.2 104.451 32.9047 104.285 32.5667C104.156 32.3223 104.089 32.0501 104.089 31.7737C104.089 31.4974 104.156 31.2252 104.285 30.9807C103.88 30.95 103.495 30.7919 103.186 30.5291C102.876 30.2663 102.658 29.9123 102.562 29.5177C101.906 27.3987 108.796 21.9577 113.431 23.5567C116.108 24.4617 117.819 29.2667 118.079 30.1747C118.387 31.5445 118.196 32.9795 117.539 34.2205C116.882 35.4615 115.803 36.4267 114.497 36.9417Z" fill="#F9D2DD"/>
<path d="M109.738 28.0535L103.802 30.8535L109.738 28.0535Z" fill="#1F1F39"/>
<path d="M103.863 30.9668L109.799 28.1658C109.815 28.1586 109.829 28.1483 109.84 28.1355C109.852 28.1228 109.861 28.108 109.866 28.0918C109.872 28.0756 109.875 28.0584 109.874 28.0413C109.873 28.0241 109.869 28.0073 109.861 27.9918C109.854 27.976 109.844 27.9618 109.831 27.95C109.819 27.9382 109.804 27.9291 109.788 27.9233C109.771 27.9175 109.754 27.9151 109.737 27.9162C109.719 27.9173 109.703 27.922 109.687 27.9298L103.751 30.7298C103.736 30.7371 103.722 30.7474 103.71 30.7602C103.699 30.7729 103.69 30.7877 103.684 30.8039C103.678 30.8201 103.676 30.8373 103.677 30.8544C103.677 30.8716 103.682 30.8884 103.689 30.9038C103.697 30.927 103.712 30.9469 103.732 30.9604C103.753 30.9738 103.777 30.98 103.801 30.9778C103.822 30.9802 103.844 30.9764 103.863 30.9668Z" fill="#1F1F39"/>
<path d="M111.448 31.2406L106.007 33.8926L111.448 31.2406Z" fill="#1F1F39"/>
<path d="M106.068 34.0025L111.509 31.3525C111.525 31.3452 111.539 31.3349 111.55 31.3222C111.562 31.3095 111.571 31.2946 111.576 31.2784C111.582 31.2622 111.585 31.2451 111.584 31.2279C111.583 31.2108 111.579 31.194 111.571 31.1785C111.564 31.1629 111.554 31.149 111.541 31.1374C111.528 31.1259 111.513 31.117 111.497 31.1112C111.481 31.1054 111.464 31.1029 111.447 31.1038C111.429 31.1047 111.413 31.109 111.397 31.1165L105.957 33.7695C105.942 33.7768 105.928 33.7871 105.916 33.7998C105.905 33.8125 105.896 33.8274 105.89 33.8435C105.884 33.8597 105.882 33.8769 105.883 33.894C105.883 33.9112 105.888 33.928 105.895 33.9435C105.904 33.9656 105.92 33.9846 105.94 33.9978C105.96 34.011 105.983 34.0178 106.007 34.0175C106.029 34.0184 106.05 34.0132 106.068 34.0025Z" fill="#1F1F39"/>
<path d="M112.775 33.8934L107.731 36.2734L112.775 33.8934Z" fill="#1F1F39"/>
<path d="M107.791 36.3968L112.835 34.0048C112.851 33.9975 112.865 33.9872 112.876 33.9745C112.888 33.9618 112.897 33.9469 112.903 33.9307C112.908 33.9145 112.911 33.8974 112.91 33.8802C112.909 33.8631 112.905 33.8463 112.897 33.8308C112.89 33.8152 112.88 33.8013 112.867 33.7897C112.854 33.7782 112.839 33.7693 112.823 33.7635C112.807 33.7578 112.79 33.7553 112.773 33.7562C112.756 33.7571 112.739 33.7614 112.723 33.7688L107.679 36.1618C107.664 36.1691 107.65 36.1794 107.638 36.1921C107.627 36.2048 107.618 36.2197 107.612 36.2359C107.606 36.2521 107.604 36.2692 107.605 36.2864C107.606 36.3035 107.61 36.3203 107.617 36.3358C107.626 36.358 107.642 36.3769 107.662 36.3901C107.682 36.4033 107.705 36.4102 107.729 36.4098C107.751 36.4115 107.772 36.407 107.791 36.3968Z" fill="#1F1F39"/>
<path d="M91.6927 57.0918L94.3447 51.9118L91.6927 57.0918Z" fill="#1F1F39"/>
<path d="M91.8165 57.1428L94.4685 51.9748C94.4779 51.9597 94.4838 51.9427 94.4857 51.9251C94.4876 51.9074 94.4854 51.8896 94.4795 51.8728C94.4735 51.8561 94.4639 51.841 94.4512 51.8285C94.4386 51.816 94.4233 51.8065 94.4065 51.8008C94.3914 51.7914 94.3744 51.7856 94.3568 51.7837C94.3391 51.7818 94.3213 51.7839 94.3046 51.7898C94.2878 51.7958 94.2727 51.8054 94.2602 51.8181C94.2477 51.8307 94.2383 51.846 94.2325 51.8628L91.5855 57.0308C91.5761 57.0459 91.5703 57.0629 91.5684 57.0805C91.5665 57.0982 91.5686 57.116 91.5745 57.1328C91.5805 57.1495 91.5902 57.1646 91.6028 57.1771C91.6154 57.1896 91.6307 57.1991 91.6475 57.2048C91.6595 57.2168 91.6725 57.2168 91.6975 57.2168C91.7222 57.2164 91.7463 57.2093 91.7673 57.1963C91.7882 57.1833 91.8053 57.1648 91.8165 57.1428Z" fill="#1F1F39"/>
<path d="M27.6537 46.7583C19.1767 55.2483 17.8377 61.6683 15.9787 67.8653C14.1197 74.0623 13.5127 86.6543 13.5127 86.6543H39.0187L48.8467 36.5453C48.8467 36.5453 36.1307 38.2683 27.6537 46.7583Z" fill="#F9ACC0"/>
<path d="M85.6324 86.666L30.2814 86.666L30.9754 62.537L15.9914 62.537C15.9914 62.537 20.7584 47.687 31.9044 40.66C43.0504 33.633 55.3044 32.86 63.3354 34.96C78.0584 38.8 89.8584 47.823 89.8584 47.823L87.6024 70.095L81.6164 67.567L85.6324 86.666Z" fill="#F99A3D"/>
<path d="M41.4346 61.606L35.5976 43.573C35.5976 43.573 52.5646 46.882 63.5706 67.84C68.7016 77.594 68.7636 83.332 67.3626 86.666H30.2686L30.8636 65.919L41.4346 61.606Z" fill="#E88524"/>
<path d="M87.4531 70.0312L81.7771 67.6403L78.9631 58.5312L87.4531 70.0312Z" fill="#E88524"/>
<path d="M69.6592 44.7127C69.6541 44.9235 69.6038 45.1307 69.5119 45.3205C69.42 45.5102 69.2884 45.6781 69.1262 45.8127C68.8042 46.1127 68.4072 46.2957 68.0732 46.5687C67.8926 46.698 67.7463 46.8694 67.647 47.0681C67.5476 47.2668 67.4983 47.4867 67.5032 47.7087C67.5191 47.9446 67.599 48.1716 67.7343 48.3654C67.8696 48.5593 68.0553 48.7125 68.2712 48.8087C68.5062 48.9207 68.2962 49.2547 68.0712 49.1557C67.8725 49.0632 67.694 48.9324 67.5459 48.7708C67.3978 48.6091 67.283 48.4199 67.2082 48.2139C67.1333 48.0079 67.0998 47.7891 67.1096 47.5701C67.1194 47.3511 67.1722 47.1362 67.2652 46.9377C67.4871 46.5363 67.8177 46.2056 68.2192 45.9837C68.6051 45.785 68.9335 45.4906 69.1732 45.1287C69.4462 44.6287 69.0992 44.1617 68.7732 43.7907C68.6042 43.6097 68.8892 43.3247 69.0502 43.5227C69.374 43.8449 69.5873 44.2616 69.6592 44.7127Z" fill="white"/>
<path d="M70.7959 57.269C70.4369 57.542 70.0149 57.728 69.6809 58.037C69.5032 58.1944 69.3825 58.4061 69.3376 58.6393C69.2928 58.8724 69.3263 59.1139 69.4329 59.326C69.7602 59.8671 70.2448 60.2955 70.8219 60.554C70.8679 60.5805 70.9015 60.6242 70.9153 60.6755C70.9291 60.7268 70.922 60.7815 70.8954 60.8275C70.8689 60.8735 70.8252 60.9071 70.7739 60.9209C70.7226 60.9347 70.6679 60.9275 70.6219 60.901C70.0945 60.6456 69.6299 60.2772 69.2609 59.822C69.0953 59.609 68.9858 59.3579 68.9425 59.0916C68.8991 58.8253 68.9234 58.5525 69.0129 58.298C69.3969 57.398 70.5499 57.245 71.0329 56.427C71.1774 56.1864 71.2637 55.9154 71.2853 55.6356C71.3068 55.3558 71.2629 55.0748 71.1569 54.815C71.1342 54.7682 71.1291 54.7148 71.1427 54.6646C71.1563 54.6144 71.1877 54.5708 71.2309 54.542C71.2538 54.5267 71.2795 54.5163 71.3065 54.5114C71.3335 54.5065 71.3613 54.5072 71.388 54.5134C71.4148 54.5197 71.4399 54.5315 71.4619 54.5479C71.4839 54.5643 71.5023 54.5851 71.5159 54.609C71.7097 55.0692 71.7441 55.5809 71.6136 56.0629C71.4832 56.5448 71.1954 56.9694 70.7959 57.269Z" fill="white"/>
<path d="M85.0373 53.413C85.0956 53.0502 85.0789 52.6792 84.9883 52.323C84.7403 51.691 83.9353 51.654 83.3643 51.802C82.7443 51.976 82.0873 52.434 81.4313 52.161C81.1656 52.0217 80.9356 51.8228 80.7594 51.58C80.5832 51.3371 80.4654 51.0569 80.4153 50.761C80.339 50.4288 80.3292 50.0847 80.3865 49.7486C80.4438 49.4126 80.5671 49.0912 80.7493 48.803C80.8853 48.592 81.2323 48.791 81.0963 49.003C80.9385 49.2484 80.8308 49.5225 80.7793 49.8096C80.7278 50.0967 80.7336 50.3912 80.7963 50.676C80.9203 51.221 81.3043 51.903 81.9493 51.841C82.2854 51.7752 82.6113 51.6649 82.9183 51.513C83.2365 51.3854 83.5755 51.3176 83.9183 51.313C84.2209 51.3015 84.5199 51.3811 84.7767 51.5416C85.0335 51.7021 85.2361 51.936 85.3583 52.213C85.4641 52.5912 85.49 52.9873 85.4343 53.376C85.4003 53.8026 85.3297 54.2255 85.2233 54.64C85.2052 54.6852 85.1712 54.7222 85.1278 54.7442C85.0843 54.7661 85.0344 54.7714 84.9873 54.7592C84.9402 54.7469 84.8991 54.7179 84.8719 54.6775C84.8447 54.6372 84.8331 54.5883 84.8393 54.54C84.9363 54.1705 85.0025 53.7935 85.0373 53.413Z" fill="white"/>
<path d="M77.8871 74.1727C77.7509 74.1444 77.6097 74.1512 77.4768 74.1922C77.3439 74.2333 77.2236 74.3075 77.1271 74.4077C76.8791 74.6077 76.6561 74.8287 76.4081 75.0277C76.1509 75.2281 75.8773 75.4064 75.5901 75.5607C75.0243 75.8736 74.3802 76.0167 73.7351 75.9727C73.1628 75.9087 72.6301 75.649 72.2271 75.2377C72.0014 75.0169 71.8319 74.7452 71.7327 74.4454C71.6335 74.1457 71.6076 73.8265 71.6571 73.5147C71.7071 73.2667 72.0911 73.3657 72.0411 73.6267C72.0069 73.8969 72.042 74.1715 72.1431 74.4244C72.2442 74.6774 72.408 74.9005 72.6191 75.0727C72.8401 75.2692 73.1 75.4171 73.3818 75.5068C73.6636 75.5966 73.9611 75.6262 74.2551 75.5937C74.8989 75.5095 75.5097 75.259 76.0271 74.8667C76.5271 74.5077 76.9441 73.9127 77.5641 73.7887C77.7151 73.7585 77.8713 73.7664 78.0185 73.8118C78.1657 73.8572 78.2993 73.9386 78.4071 74.0487C78.5164 74.1486 78.5891 74.2822 78.6138 74.4283C78.6384 74.5743 78.6135 74.7244 78.5431 74.8547C78.5139 74.9017 78.4677 74.9356 78.4141 74.9493C78.3605 74.9629 78.3037 74.9553 78.2556 74.9281C78.2075 74.9008 78.1718 74.8559 78.1561 74.8029C78.1403 74.7499 78.1457 74.6928 78.1711 74.6437C78.2831 74.4447 78.0601 74.2467 77.8871 74.1727Z" fill="white"/>
<path d="M63.7576 60.8617C63.8068 61.1432 63.7874 61.4324 63.7011 61.7048C63.6148 61.9773 63.464 62.2249 63.2616 62.4267C62.8616 62.8357 62.3446 63.0837 61.9106 63.4557C61.5266 63.7907 61.0556 64.3557 61.3036 64.8937C61.5266 65.4017 62.2336 65.4887 62.7166 65.4267C62.7675 65.4148 62.8209 65.4222 62.8666 65.4472C62.9124 65.4723 62.9473 65.5134 62.9646 65.5627C62.9896 65.6497 62.9276 65.7977 62.8286 65.8107C62.5647 65.863 62.2929 65.8626 62.0291 65.8094C61.7653 65.7562 61.5147 65.6512 61.2916 65.5007C61.0746 65.3221 60.9262 65.0739 60.8715 64.7983C60.8168 64.5226 60.8592 64.2365 60.9916 63.9887C61.2926 63.4482 61.7406 63.004 62.2836 62.7077C62.5426 62.5771 62.7726 62.3956 62.9599 62.1742C63.1472 61.9527 63.2879 61.6957 63.3736 61.4187C63.398 61.0738 63.3449 60.7279 63.2182 60.4062C63.0916 60.0846 62.8946 59.7953 62.6416 59.5597C62.4676 59.3857 62.7416 59.1007 62.9146 59.2867C63.3437 59.7178 63.6368 60.2655 63.7576 60.8617Z" fill="white"/>
<path d="M66.8193 82.019C66.6703 82.626 66.1623 83.11 66.0633 83.742C66.024 84.0114 66.0627 84.2863 66.1746 84.5344C66.2866 84.7825 66.4673 84.9933 66.6953 85.142C66.9684 85.3084 67.2887 85.3802 67.6067 85.3466C67.9247 85.313 68.2229 85.1758 68.4553 84.956C68.6413 84.782 68.9263 85.056 68.7403 85.241C68.5216 85.4476 68.2569 85.5993 67.9682 85.6836C67.6794 85.7679 67.3747 85.7825 67.0793 85.726C66.788 85.6629 66.5172 85.5275 66.292 85.3323C66.0667 85.1371 65.8942 84.8884 65.7903 84.609C65.6858 84.3196 65.6504 84.0097 65.6868 83.7042C65.7233 83.3986 65.8306 83.1058 66.0003 82.849C66.1792 82.5739 66.3249 82.2785 66.4343 81.969C66.5065 81.7083 66.4978 81.4317 66.4093 81.176C66.3148 80.8885 66.1373 80.6353 65.8992 80.4485C65.6611 80.2616 65.373 80.1494 65.0713 80.126C64.8113 80.114 64.8113 79.717 65.0593 79.726C65.3325 79.7434 65.5989 79.819 65.8405 79.9478C66.0821 80.0766 66.2934 80.2556 66.4601 80.4728C66.6268 80.69 66.7451 80.9403 66.8071 81.207C66.869 81.4737 66.8732 81.7506 66.8193 82.019Z" fill="white"/>
<path d="M45.1043 40.8587C45.0192 41.4259 44.7852 41.9604 44.4263 42.4077C44.2455 42.6339 44.0511 42.849 43.8443 43.0517C43.6491 43.2277 43.5001 43.4488 43.4103 43.6957C43.3363 44.0057 43.5963 44.1667 43.8563 44.2657C44.1965 44.3985 44.562 44.4538 44.9263 44.4277C45.1863 44.4157 45.1863 44.8117 44.9263 44.8277C44.6001 44.8403 44.274 44.8025 43.9593 44.7157C43.6824 44.654 43.4261 44.5217 43.2153 44.3317C42.7943 43.8857 43.0913 43.3157 43.4263 42.9317C43.6123 42.7207 43.8263 42.5317 43.9963 42.3247C44.1918 42.1 44.3562 41.8501 44.4853 41.5817C44.7379 41.1004 44.8041 40.5428 44.6713 40.0157C44.6088 39.7524 44.48 39.5094 44.2971 39.3098C44.1142 39.1103 43.8833 38.9609 43.6263 38.8757C43.5982 38.8721 43.5711 38.8625 43.5469 38.8476C43.5228 38.8327 43.502 38.8128 43.4862 38.7893C43.4703 38.7658 43.4596 38.7391 43.4548 38.7111C43.45 38.6831 43.4512 38.6544 43.4584 38.627C43.4655 38.5995 43.4784 38.5739 43.4963 38.5518C43.5141 38.5297 43.5364 38.5116 43.5618 38.4988C43.5871 38.486 43.6149 38.4788 43.6433 38.4776C43.6717 38.4763 43.7 38.4812 43.7263 38.4917C44.1962 38.6634 44.5911 38.9941 44.8428 39.4264C45.0945 39.8587 45.187 40.3654 45.1043 40.8587Z" fill="white"/>
<path d="M57.4989 48.5424C56.8049 48.8154 56.5989 49.5424 56.3989 50.2034C56.3328 50.5755 56.1838 50.9281 55.9629 51.2348C55.742 51.5416 55.4549 51.7947 55.1229 51.9754C54.4132 52.2903 53.6088 52.3169 52.8799 52.0494C52.4732 51.876 52.1068 51.6202 51.8039 51.2982C51.501 50.9762 51.2681 50.5949 51.1199 50.1784C51.0329 49.9434 51.4199 49.8314 51.5039 50.0664C51.6356 50.4234 51.838 50.7501 52.099 51.0269C52.36 51.3037 52.6743 51.525 53.0229 51.6774C53.369 51.7994 53.7382 51.8417 54.1029 51.8014C54.4781 51.7862 54.844 51.6798 55.1689 51.4914C55.8129 51.0824 55.9369 50.2644 56.1599 49.5914C56.2465 49.2577 56.4124 48.9498 56.6434 48.6939C56.8744 48.438 57.1638 48.2416 57.4869 48.1214C57.8475 48.0013 58.2348 47.9864 58.6035 48.0785C58.9723 48.1706 59.3071 48.3658 59.5689 48.6414C59.7429 48.8274 59.4569 49.1124 59.2839 48.9264C59.0595 48.6902 58.7691 48.5272 58.4507 48.4587C58.1322 48.3902 57.8005 48.4194 57.4989 48.5424Z" fill="white"/>
<path d="M23.5524 48.2581C23.6959 48.4511 23.7956 48.673 23.8449 48.9083C23.8941 49.1436 23.8915 49.3869 23.8374 49.6211C23.7222 50.1175 23.6552 50.6239 23.6374 51.1331C23.6516 51.3538 23.7345 51.5645 23.8746 51.7357C24.0147 51.9068 24.2049 52.0297 24.4184 52.0871C24.6608 52.1432 24.9145 52.1233 25.1451 52.0301C25.3758 51.9368 25.5721 51.7749 25.7074 51.5661C25.8574 51.3561 26.1874 51.5551 26.0554 51.7651C25.9333 51.9606 25.7695 52.1266 25.5759 52.2516C25.3822 52.3765 25.1634 52.4572 24.9351 52.4879C24.7067 52.5187 24.4743 52.4987 24.2545 52.4294C24.0347 52.3602 23.8329 52.2433 23.6634 52.0871C23.501 51.9051 23.3802 51.6899 23.3095 51.4563C23.2389 51.2228 23.2201 50.9767 23.2544 50.7351C23.3711 50.2012 23.4457 49.6588 23.4774 49.1131C23.4524 48.6791 23.0934 48.0971 22.5774 48.2581C22.3294 48.3451 22.2184 47.9581 22.4654 47.8741C22.6643 47.8233 22.8737 47.8326 23.0673 47.901C23.2608 47.9694 23.4297 48.0937 23.5524 48.2581Z" fill="white"/>
<path d="M59.3832 38.0954C57.8766 38.7687 56.2591 39.1595 54.6112 39.2484C52.1928 39.569 49.7444 38.938 47.7822 37.4884C47.0526 36.8611 46.4617 36.0887 46.0472 35.2204C45.9352 34.9974 46.2822 34.7864 46.3942 35.0204C46.7457 35.7446 47.2193 36.4029 47.7942 36.9664C48.491 37.6148 49.3195 38.1053 50.2232 38.4044C51.4489 38.7875 52.7326 38.951 54.0152 38.8874C55.6174 38.8629 57.203 38.5583 58.7002 37.9874C60.3128 37.3298 61.739 36.2859 62.8532 34.9474C62.9892 34.7364 63.2742 35.0224 63.1132 35.2204C62.0986 36.4436 60.8244 37.4257 59.3832 38.0954Z" fill="white"/>
<path d="M87.5533 52.2106C87.3673 53.4995 87.1693 54.7756 86.9953 56.0646C86.8463 57.1556 86.7103 58.2456 86.5863 59.3486C86.4503 60.6006 86.3133 61.8396 86.2023 63.0916L85.7193 68.3336C85.6943 68.6066 85.6693 68.8666 85.6453 69.1396C85.6203 69.3876 85.2243 69.3996 85.2453 69.1396C85.4063 67.3056 85.5673 65.4716 85.7453 63.6496C85.8693 62.3496 85.9933 61.0496 86.1453 59.7496C86.2693 58.6496 86.4053 57.5436 86.5543 56.4496C86.7283 55.1856 86.9013 53.9335 87.0873 52.6695L87.8633 47.4636C87.9003 47.1916 87.9373 46.9305 87.9873 46.6586C87.9993 46.5466 88.1353 46.4966 88.2343 46.5216C88.2591 46.5274 88.2825 46.5383 88.303 46.5536C88.3235 46.5688 88.3407 46.588 88.3535 46.6101C88.3663 46.6322 88.3745 46.6566 88.3776 46.682C88.3806 46.7073 88.3785 46.7331 88.3713 46.7576C88.0983 48.5796 87.8253 50.4006 87.5533 52.2106Z" fill="white"/>
<path d="M80.5763 64.0727C80.3533 63.9607 80.5513 63.6137 80.7763 63.7257C82.4603 64.5927 84.1333 65.4607 85.8163 66.3277C86.0393 66.4517 85.8413 66.7867 85.6163 66.6747C83.9343 65.8037 82.2613 64.9397 80.5763 64.0727Z" fill="white"/>
<path d="M23.1799 59.9609H17.3669C17.3138 59.9609 17.2629 59.9399 17.2254 59.9024C17.1879 59.8649 17.1669 59.814 17.1669 59.7609C17.1669 59.7079 17.1879 59.657 17.2254 59.6195C17.2629 59.582 17.3138 59.5609 17.3669 59.5609H27.4309C27.4839 59.5609 27.5348 59.582 27.5723 59.6195C27.6098 59.657 27.6309 59.7079 27.6309 59.7609C27.6309 59.814 27.6098 59.8649 27.5723 59.9024C27.5348 59.9399 27.4839 59.9609 27.4309 59.9609H23.1799Z" fill="white"/>
<path d="M16.2995 78.8209L21.7405 76.3049C21.7564 76.298 21.7706 76.2879 21.7824 76.2752C21.7942 76.2625 21.8032 76.2476 21.809 76.2313C21.8148 76.215 21.8173 76.1977 21.8161 76.1804C21.815 76.1632 21.8104 76.1463 21.8025 76.1309C21.7956 76.1151 21.7854 76.1009 21.7728 76.0891C21.7601 76.0773 21.7452 76.0682 21.7289 76.0624C21.7126 76.0566 21.6953 76.0542 21.678 76.0553C21.6608 76.0564 21.6439 76.0611 21.6285 76.0689L16.1885 78.5859C16.1733 78.5929 16.1597 78.6029 16.1483 78.6152C16.137 78.6274 16.1282 78.6419 16.1224 78.6576C16.1166 78.6733 16.114 78.6899 16.1147 78.7067C16.1155 78.7234 16.1195 78.7398 16.1265 78.7549C16.1382 78.7777 16.156 78.7967 16.1779 78.8098C16.1998 78.8228 16.225 78.8295 16.2505 78.8289C16.2755 78.8339 16.2875 78.8339 16.2995 78.8209Z" fill="#1F1F39"/>
<path d="M47.6086 86.6165C46.5896 86.615 45.5712 86.5612 44.5576 86.4555C41.0933 85.9734 37.73 84.9329 34.5986 83.3745C30.6956 81.5991 27.2889 78.8913 24.6786 75.4895C22.3217 72.3826 20.95 68.6406 20.7406 64.7465C20.6478 62.7685 21.0499 60.7987 21.9106 59.0155C23.1106 56.7705 25.1906 56.1155 27.0286 55.5345C28.1212 55.3212 29.1338 54.8104 29.9546 54.0585C30.6476 53.2265 30.2666 52.0455 29.8246 50.6785C29.2746 48.9785 28.6506 47.0445 29.8556 45.1605C30.6836 43.8525 32.5306 43.1895 35.3496 43.1895C37.0066 43.1895 39.4856 44.1165 42.5196 45.8695C45.085 47.3746 47.5324 49.0725 49.8406 50.9485C53.5996 54.0085 61.9406 64.1485 62.2586 74.3485C62.3778 75.8497 62.1847 77.3594 61.6916 78.7824C61.1985 80.2053 60.4161 81.5108 59.3936 82.6165C57.9509 84.0467 56.1764 85.0973 54.2286 85.6745C52.0838 86.3283 49.8507 86.6461 47.6086 86.6165ZM35.5966 54.3815C35.0132 54.3815 34.4428 54.5545 33.9577 54.8786C33.4726 55.2028 33.0945 55.6635 32.8712 56.2025C32.6479 56.7416 32.5895 57.3347 32.7033 57.907C32.8171 58.4792 33.0981 59.0049 33.5107 59.4174C33.9232 59.83 34.4489 60.1109 35.0211 60.2248C35.5934 60.3386 36.1865 60.2802 36.7256 60.0569C37.2646 59.8336 37.7253 59.4555 38.0495 58.9704C38.3736 58.4853 38.5466 57.9149 38.5466 57.3315C38.5458 56.5493 38.2348 55.7994 37.6817 55.2464C37.1287 54.6933 36.3788 54.3822 35.5966 54.3815Z" fill="white"/>
<path d="M51.7118 61.2079C51.1908 59.5469 49.4318 58.9279 48.5018 60.2779C48.1649 60.7844 48.0373 61.4017 48.1458 62.0002C48.2544 62.5988 48.5905 63.132 49.0838 63.4879C49.5528 63.7958 50.1105 63.9396 50.6698 63.8969C51.0974 63.6088 51.4264 63.1966 51.6127 62.7159C51.799 62.2352 51.8336 61.7089 51.7118 61.2079Z" fill="#F99A3D"/>
<path d="M53.1513 69.7974C52.0113 69.6974 51.7013 69.7974 51.3913 70.6274C51.0813 71.4574 52.1063 72.2884 53.3583 72.3874C53.9118 72.4304 54.463 72.278 54.9158 71.9566C55.3685 71.6352 55.6943 71.1652 55.8363 70.6284C56.1513 69.5864 55.8363 68.7694 54.8083 68.9674C54.6356 69.2452 54.3894 69.4698 54.0969 69.6163C53.8045 69.7628 53.4772 69.8255 53.1513 69.7974Z" fill="#3C82F5"/>
<path d="M46.1085 76.4168C43.9395 76.8258 40.5195 75.8958 40.3085 74.4458C40.0975 72.9958 40.9285 73.0948 42.0685 72.8968C43.2787 72.6722 44.3953 72.0943 45.2775 71.2358C45.5344 70.9855 45.8524 70.8068 46.1999 70.7174C46.5473 70.628 46.9121 70.6311 47.2579 70.7263C47.6038 70.8215 47.9188 71.0056 48.1715 71.2603C48.4242 71.5149 48.6059 71.8312 48.6985 72.1778C48.8804 72.6255 48.9548 73.1095 48.9156 73.5911C48.8764 74.0727 48.7248 74.5384 48.4729 74.9507C48.2209 75.363 47.8758 75.7105 47.4651 75.9651C47.0545 76.2198 46.5898 76.3745 46.1085 76.4168Z" fill="#BEE3C5"/>
<path d="M33.5904 69.2777C30.3804 68.7567 30.4794 67.3067 31.1114 66.8977C31.7434 66.4887 33.3914 66.8977 33.8004 66.3767C34.2094 65.8557 36.7884 64.6177 37.4204 66.7997C38.0524 68.9817 36.8004 69.7987 33.5904 69.2777Z" fill="#DA5742"/>
<path d="M46.8025 0.863688C42.8615 2.53669 41.8325 5.06369 40.3825 9.65069C38.9325 14.2377 39.2295 16.7397 37.3955 20.2967C36.4823 22.2816 34.8663 23.8579 32.8595 24.7217C32.8595 24.7217 36.3915 29.6417 53.7925 28.8737C70.8335 28.1297 76.5225 17.9797 76.5225 17.9797C76.5225 17.9797 70.6355 16.8147 68.6895 12.7867C66.7435 8.75869 64.4015 1.55769 59.4685 0.541687C54.5355 -0.474314 53.1475 2.49969 53.1475 2.49969C52.4274 1.55387 51.4098 0.878086 50.2587 0.581289C49.1076 0.284492 47.8901 0.38397 46.8025 0.863688Z" fill="#1F1F39"/>
<path d="M64.4262 22.9107C63.996 24.1239 63.2811 25.2163 62.3415 26.0962C61.4019 26.9761 60.2651 27.6179 59.0262 27.9677C59.0262 27.9677 59.2262 30.7437 59.6462 33.0987L60.0672 35.4537C59.4394 36.3285 58.6022 37.0319 57.6323 37.4996C56.6624 37.9672 55.5907 38.1842 54.5152 38.1307C50.6362 38.0687 48.8512 36.5447 48.8512 36.5447C48.8512 36.5447 48.8632 33.3347 48.5662 29.7657C48.2692 26.1967 47.7982 23.4447 47.7982 23.4447C47.7982 23.4447 42.0232 23.2097 41.4902 18.7347C41.0192 14.8807 44.8982 14.8557 45.8772 15.2647C46.8562 15.6737 46.8772 15.8097 46.8772 15.8097C47.1346 16.7313 47.466 17.6305 47.8682 18.4987C48.0661 18.9875 48.3952 19.4122 48.8192 19.7257C48.3519 18.2859 48.0827 16.7892 48.0192 15.2767C48.0167 14.2643 48.1671 13.2572 48.4652 12.2897L49.5412 14.5577L56.3582 13.4667L56.5062 10.2447L57.9692 13.5447L64.5252 12.6147C64.5252 12.6147 65.9252 18.7217 64.4262 22.9107Z" fill="#F9D2DD"/>
<path d="M47.7947 23.4451C47.395 23.4165 46.9976 23.3627 46.6047 23.2841C46.5123 22.6099 46.3787 21.942 46.2047 21.2841C45.8028 20.0146 45.3153 18.7737 44.7457 17.5701C45.7099 18.1362 46.4923 18.9661 47.0007 19.9621C47.4131 21.0713 47.68 22.2293 47.7947 23.4071C47.8559 23.6978 47.9013 23.9915 47.9307 24.2871C47.8567 23.7541 47.7947 23.4451 47.7947 23.4451Z" fill="#F9ACC0"/>
<path d="M47.5707 21.2018C47.5874 21.1959 47.6028 21.1866 47.6158 21.1744C47.6288 21.1623 47.6391 21.1475 47.646 21.1311C47.653 21.1148 47.6565 21.0971 47.6562 21.0793C47.656 21.0615 47.6521 21.044 47.6447 21.0278C47.3167 20.1078 46.8441 19.2459 46.2447 18.4748C45.8703 18.0196 45.401 17.6517 44.8697 17.3968C44.8367 17.3847 44.8003 17.3856 44.768 17.3993C44.7357 17.4131 44.7098 17.4386 44.6957 17.4708C44.6835 17.5038 44.6844 17.5401 44.6982 17.5725C44.7119 17.6048 44.7375 17.6307 44.7697 17.6448C45.2601 17.886 45.695 18.2265 46.0467 18.6448C46.6214 19.3916 47.0731 20.2255 47.3847 21.1148C47.3941 21.1436 47.4122 21.1687 47.4366 21.1866C47.461 21.2046 47.4904 21.2144 47.5207 21.2148C47.5382 21.2152 47.5555 21.2107 47.5707 21.2018Z" fill="#1F1F39"/>
<path d="M62.4913 14.8683C62.2791 14.721 62.0192 14.6589 61.7633 14.6943C61.5083 14.7133 61.2637 14.8034 61.0573 14.9543C60.9562 15.0305 60.8752 15.1301 60.8212 15.2446C60.7672 15.359 60.7419 15.4849 60.7473 15.6113C60.8268 15.4076 60.9736 15.2372 61.1633 15.1283C61.3531 15.0332 61.5589 14.9742 61.7703 14.9543C61.9777 14.9321 62.1874 14.962 62.3803 15.0413C62.5801 15.1415 62.7476 15.2961 62.8633 15.4873C62.8479 15.3639 62.8069 15.2451 62.7428 15.1384C62.6787 15.0318 62.5931 14.9398 62.4913 14.8683Z" fill="#1F1F39"/>
<path d="M54.3122 15.5261C54.0901 15.4038 53.8318 15.3641 53.5832 15.4141C53.4564 15.431 53.3344 15.4732 53.2242 15.5381C53.113 15.6001 53.016 15.6845 52.9392 15.7861C52.7821 15.974 52.6946 16.2102 52.6912 16.4551C52.7894 16.2571 52.9253 16.0801 53.0912 15.9341C53.1628 15.865 53.247 15.8103 53.3392 15.7731C53.3892 15.7611 53.4262 15.7361 53.4752 15.7231L53.6242 15.6861C53.8247 15.6502 54.0308 15.6632 54.2252 15.7241C54.4388 15.7815 54.6321 15.8976 54.7832 16.0591C54.7017 15.8268 54.5327 15.6355 54.3122 15.5261Z" fill="#1F1F39"/>
<path d="M58.6009 17.6057C58.7325 17.8918 58.8244 18.1946 58.8739 18.5057C58.8843 18.5812 58.8884 18.6575 58.8859 18.7337C58.8797 18.8052 58.8663 18.8759 58.8459 18.9447C58.8137 19.0758 58.7343 19.1904 58.6229 19.2667C58.4951 19.3446 58.3524 19.3947 58.2039 19.4137C58.0444 19.4405 57.8823 19.4489 57.7209 19.4387C57.8794 19.5044 58.0493 19.5384 58.2209 19.5387C58.401 19.5434 58.5797 19.505 58.7419 19.4267C58.9122 19.3345 59.0394 19.1789 59.0959 18.9937C59.1244 18.9056 59.1413 18.8141 59.1459 18.7217C59.1481 18.6305 59.1441 18.5393 59.1339 18.4487C59.0764 18.1124 58.9588 17.7893 58.7869 17.4947C58.6262 17.2109 58.4303 16.9485 58.2039 16.7137C58.3399 17.0137 58.4769 17.3087 58.6009 17.6057Z" fill="#1F1F39"/>
<path d="M62.4725 17.882C62.5266 17.6309 62.4802 17.3686 62.3432 17.1513C62.2062 16.9341 61.9895 16.7791 61.7396 16.7197C61.4826 16.7176 61.235 16.8163 61.05 16.9947C60.865 17.1731 60.7573 17.417 60.75 17.6739C60.6959 17.9251 60.7424 18.1876 60.8796 18.4049C61.0168 18.6222 61.2337 18.7771 61.4838 18.8363C61.7407 18.8381 61.988 18.7393 62.1729 18.5609C62.3577 18.3825 62.4652 18.1388 62.4725 17.882Z" fill="#1F1F39"/>
<path d="M54.6541 18.4191C54.7082 18.168 54.6618 17.9057 54.5248 17.6884C54.3878 17.4712 54.1712 17.3162 53.9213 17.2568C53.6643 17.2547 53.4167 17.3535 53.2316 17.5319C53.0466 17.7102 52.9389 17.9541 52.9316 18.211C52.8775 18.4622 52.924 18.7247 53.0612 18.942C53.1984 19.1593 53.4154 19.3142 53.6655 19.3734C53.9223 19.3752 54.1697 19.2764 54.3545 19.098C54.5393 18.9196 54.6469 18.6759 54.6541 18.4191Z" fill="#1F1F39"/>
<path d="M59.0472 28.1047C59.0472 28.1047 59.2172 30.5837 59.6172 32.8757C58.4378 32.9826 57.2529 32.7413 56.2092 32.1817C52.5032 30.6047 52.1442 28.4047 52.1442 28.4047C54.4034 29.16 56.8621 29.0531 59.0472 28.1047Z" fill="#F9ACC0"/>
<path d="M57.2122 21.56C56.9898 21.5285 56.773 21.4659 56.5682 21.374C56.3596 21.2783 56.1604 21.1635 55.9732 21.031C55.7732 20.882 55.5642 20.721 55.3292 20.531C55.3288 20.8361 55.4208 21.1342 55.5932 21.386C55.7695 21.6503 56.0195 21.8572 56.3122 21.981C56.4636 22.0411 56.6218 22.0827 56.7832 22.105C56.9451 22.1235 57.109 22.111 57.2662 22.068C57.4164 22.0352 57.5584 21.972 57.6834 21.8825C57.8084 21.7929 57.9138 21.6787 57.9932 21.547C57.7342 21.5819 57.4721 21.5863 57.2122 21.56Z" fill="#DA5742"/>
<path d="M56.0728 28.8614C57.1484 28.7682 58.2091 28.5476 59.2328 28.2044C59.2496 28.1985 59.2649 28.1892 59.2779 28.177C59.2909 28.1649 59.3012 28.1501 59.3081 28.1337C59.3151 28.1174 59.3186 28.0997 59.3183 28.0819C59.3181 28.0641 59.3142 28.0466 59.3068 28.0304C59.3009 28.0136 59.2915 27.9983 59.2794 27.9853C59.2672 27.9723 59.2525 27.962 59.2361 27.955C59.2197 27.9481 59.2021 27.9446 59.1843 27.9448C59.1665 27.9451 59.1489 27.949 59.1328 27.9564C58.1244 28.2751 57.0854 28.4869 56.0328 28.5884C54.7843 28.7337 53.5193 28.62 52.3168 28.2544C52.2838 28.2423 52.2474 28.2432 52.2151 28.2569C52.1828 28.2707 52.1569 28.2963 52.1428 28.3284C52.1306 28.3614 52.1315 28.3978 52.1453 28.4301C52.159 28.4624 52.1846 28.4883 52.2168 28.5024C53.1098 28.7903 54.0435 28.9325 54.9818 28.9234C55.3288 28.9234 55.6888 28.8984 56.0728 28.8614Z" fill="#1F1F39"/>
<path d="M53.9672 21.9789C54.0722 21.1092 53.0066 20.2654 51.5859 20.094C50.1652 19.9226 48.9295 20.4886 48.8245 21.3583C48.7196 22.228 49.786 23.0728 51.2057 23.2441C52.6254 23.4155 53.8621 22.8496 53.9672 21.9789Z" fill="#F9ACC0"/>
<path d="M62.9397 18.8226C63.684 18.706 64.4458 18.8505 65.0957 19.2316C65.0613 19.985 64.97 20.7348 64.8227 21.4746C64.3592 21.7465 63.8444 21.9195 63.3107 21.9826C61.8957 22.1436 60.6587 21.5736 60.5597 20.7066C60.4607 19.8396 61.5137 18.9836 62.9397 18.8226Z" fill="#F9ACC0"/>
<path d="M31.8914 73.3313C33.7514 73.4653 33.8744 75.6493 33.8744 75.6493C34.6766 75.4221 35.536 75.5202 36.2664 75.9223C37.3324 76.6043 37.0594 78.6493 37.0594 78.6493C37.4963 78.7568 37.8975 78.9768 38.2229 79.2875C38.5484 79.5983 38.7868 79.9888 38.9144 80.4203C39.5714 82.0563 36.8074 85.2533 31.4904 86.4563C26.1734 87.6593 22.4724 85.4773 21.0144 82.4653C19.5564 79.4533 20.0844 77.4083 19.0314 74.5333C18.4376 73.1519 17.583 71.898 16.5144 70.8403C16.3327 70.5462 16.2354 70.2078 16.2329 69.8621C16.2305 69.5164 16.3231 69.1767 16.5006 68.8801C16.678 68.5834 16.9336 68.3412 17.2394 68.1799C17.5451 68.0186 17.8893 67.9443 18.2344 67.9653C20.4904 67.9653 22.8694 69.7373 24.3344 71.5223C25.2097 72.5983 25.801 73.8766 26.0544 75.2403C26.0544 75.2403 30.0324 73.1953 31.8914 73.3313Z" fill="#F9D2DD"/>
<path d="M31.5565 81.5112L37.1215 78.9082C37.137 78.9009 37.151 78.8906 37.1625 78.8779C37.1741 78.8652 37.183 78.8503 37.1887 78.8341C37.1945 78.818 37.197 78.8008 37.1961 78.7836C37.1952 78.7665 37.1909 78.7497 37.1835 78.7342C37.1762 78.7187 37.1659 78.7047 37.1532 78.6932C37.1405 78.6816 37.1256 78.6727 37.1094 78.6669C37.0932 78.6612 37.0761 78.6587 37.0589 78.6596C37.0418 78.6605 37.025 78.6648 37.0095 78.6722L31.4445 81.2722C31.4289 81.2795 31.415 81.2898 31.4034 81.3025C31.3919 81.3152 31.383 81.3301 31.3772 81.3463C31.3714 81.3625 31.3689 81.3796 31.3698 81.3968C31.3707 81.4139 31.375 81.4307 31.3825 81.4462C31.3921 81.469 31.4082 81.4885 31.4289 81.5022C31.4495 81.5159 31.4737 81.5232 31.4985 81.5232C31.5185 81.5245 31.5386 81.5203 31.5565 81.5112Z" fill="#1F1F39"/>
<path d="M28.2362 78.2256L33.8002 75.6226C33.8157 75.6153 33.8297 75.605 33.8412 75.5923C33.8528 75.5796 33.8617 75.5647 33.8675 75.5485C33.8732 75.5323 33.8757 75.5152 33.8748 75.498C33.8739 75.4809 33.8696 75.4641 33.8622 75.4486C33.8549 75.433 33.8446 75.4191 33.8319 75.4075C33.8192 75.396 33.8043 75.3871 33.7881 75.3813C33.7719 75.3755 33.7548 75.373 33.7376 75.3739C33.7205 75.3748 33.7037 75.3791 33.6882 75.3866L28.1232 77.9866C28.1076 77.9939 28.0937 78.0042 28.0821 78.0169C28.0706 78.0296 28.0617 78.0445 28.0559 78.0606C28.0501 78.0768 28.0476 78.094 28.0485 78.1111C28.0494 78.1283 28.0537 78.1451 28.0612 78.1606C28.0683 78.185 28.0839 78.2062 28.1051 78.2203C28.1263 78.2344 28.1519 78.2405 28.1772 78.2376C28.1976 78.239 28.218 78.2349 28.2362 78.2256Z" fill="#1F1F39"/>
<path d="M24.9885 70.1836C25.5549 71.7411 25.9982 73.3407 26.3145 74.9676L22.5965 77.4336L20.7375 68.6466C20.7625 68.6466 20.7745 68.6466 20.7875 68.6586L24.9885 70.1836Z" fill="#F9ACC0"/>
<path d="M78.6912 57.6264L81.6162 67.5664L78.6912 57.6264Z" fill="#1F1F39"/>
<path d="M81.6538 67.7089C81.6703 67.7044 81.6858 67.6967 81.6992 67.686C81.7126 67.6754 81.7238 67.6622 81.7319 67.6471C81.7401 67.632 81.745 67.6155 81.7466 67.5984C81.7481 67.5813 81.7461 67.5642 81.7408 67.5479L78.8278 57.6029C78.8233 57.5863 78.8156 57.5709 78.8049 57.5574C78.7943 57.544 78.7811 57.5329 78.766 57.5247C78.7509 57.5166 78.7344 57.5116 78.7173 57.5101C78.7002 57.5086 78.6831 57.5105 78.6668 57.5159C78.6502 57.5203 78.6348 57.5281 78.6213 57.5387C78.6079 57.5493 78.5968 57.5626 78.5886 57.5777C78.5805 57.5927 78.5755 57.6093 78.574 57.6264C78.5725 57.6434 78.5744 57.6606 78.5798 57.6769L81.4918 67.6169C81.4988 67.6441 81.515 67.668 81.5375 67.6848C81.5601 67.7015 81.5877 67.71 81.6158 67.7089H81.6538Z" fill="#1F1F39"/>
<path d="M83.2434 39.619C83.2361 39.5938 83.2337 39.5674 83.2366 39.5413C83.2394 39.5152 83.2474 39.4899 83.26 39.4668C83.2727 39.4438 83.2897 39.4235 83.3102 39.407C83.3307 39.3906 83.3542 39.3784 83.3794 39.371C83.4298 39.3603 83.4823 39.3683 83.5272 39.3935C83.5721 39.4187 83.6063 39.4594 83.6234 39.508C83.7234 39.793 83.8344 40.078 83.9334 40.351C83.9408 40.3762 83.9431 40.4026 83.9402 40.4287C83.9374 40.4548 83.9294 40.4801 83.9168 40.5032C83.9041 40.5262 83.8871 40.5465 83.8666 40.563C83.8461 40.5794 83.8226 40.5916 83.7974 40.599C83.7724 40.6076 83.7459 40.6109 83.7196 40.6087C83.6933 40.6066 83.6677 40.5991 83.6444 40.5866C83.6211 40.5741 83.6007 40.5569 83.5843 40.5362C83.568 40.5154 83.5561 40.4916 83.5494 40.466C83.4504 40.177 83.3434 39.892 83.2434 39.619Z" fill="white"/>
<path d="M47.6086 86.9875C46.5896 86.9861 45.5712 86.9323 44.5576 86.8265C41.0933 86.3445 37.73 85.304 34.5986 83.7455C30.6956 81.9702 27.2889 79.2624 24.6786 75.8605C22.3217 72.7537 20.95 69.0117 20.7406 65.1175C20.6478 63.1396 21.0499 61.1698 21.9106 59.3865C23.1106 57.1415 25.1906 56.4865 27.0286 55.9055C28.1212 55.6923 29.1338 55.1815 29.9546 54.4295C30.6476 53.5975 30.2666 52.4165 29.8246 51.0495C29.2746 49.3495 28.6506 47.4155 29.8556 45.5315C30.6836 44.2235 32.5306 43.5605 35.3496 43.5605C37.0066 43.5605 39.4856 44.4875 42.5196 46.2405C45.085 47.7457 47.5324 49.4436 49.8406 51.3195C53.5996 54.3795 61.9406 64.5195 62.2586 74.7195C62.3778 76.2208 62.1847 77.7305 61.6916 79.1535C61.1985 80.5764 60.4161 81.8819 59.3936 82.9875C57.9509 84.4178 56.1764 85.4684 54.2286 86.0455C52.0838 86.6994 49.8507 87.0172 47.6086 86.9875ZM35.5966 54.7525C35.0132 54.7525 34.4428 54.9256 33.9577 55.2497C33.4726 55.5739 33.0945 56.0346 32.8712 56.5736C32.6479 57.1127 32.5895 57.7058 32.7033 58.2781C32.8171 58.8503 33.0981 59.3759 33.5107 59.7885C33.9232 60.2011 34.4489 60.482 35.0211 60.5959C35.5934 60.7097 36.1865 60.6513 36.7256 60.428C37.2646 60.2047 37.7253 59.8266 38.0495 59.3415C38.3736 58.8564 38.5466 58.286 38.5466 57.7025C38.5458 56.9204 38.2348 56.1705 37.6817 55.6175C37.1287 55.0644 36.3788 54.7533 35.5966 54.7525Z" fill="white"/>
<path d="M47.6086 86.9875C46.5896 86.9861 45.5712 86.9323 44.5576 86.8265C41.0933 86.3445 37.73 85.304 34.5986 83.7455C30.6956 81.9702 27.2889 79.2624 24.6786 75.8605C22.3217 72.7537 20.95 69.0117 20.7406 65.1175C20.6478 63.1396 21.0499 61.1698 21.9106 59.3865C23.1106 57.1415 25.1906 56.4865 27.0286 55.9055C28.1212 55.6923 29.1338 55.1815 29.9546 54.4295C30.6476 53.5975 30.2666 52.4165 29.8246 51.0495C29.2746 49.3495 28.6506 47.4155 29.8556 45.5315C30.6836 44.2235 32.5306 43.5605 35.3496 43.5605C37.0066 43.5605 39.4856 44.4875 42.5196 46.2405C45.085 47.7457 47.5324 49.4436 49.8406 51.3195C53.5996 54.3795 61.9406 64.5195 62.2586 74.7195C62.3778 76.2208 62.1847 77.7305 61.6916 79.1535C61.1985 80.5764 60.4161 81.8819 59.3936 82.9875C57.9509 84.4178 56.1764 85.4684 54.2286 86.0455C52.0838 86.6994 49.8507 87.0172 47.6086 86.9875ZM35.5966 54.7525C35.0132 54.7525 34.4428 54.9256 33.9577 55.2497C33.4726 55.5739 33.0945 56.0346 32.8712 56.5736C32.6479 57.1127 32.5895 57.7058 32.7033 58.2781C32.8171 58.8503 33.0981 59.3759 33.5107 59.7885C33.9232 60.2011 34.4489 60.482 35.0211 60.5959C35.5934 60.7097 36.1865 60.6513 36.7256 60.428C37.2646 60.2047 37.7253 59.8266 38.0495 59.3415C38.3736 58.8564 38.5466 58.286 38.5466 57.7025C38.5458 56.9204 38.2348 56.1705 37.6817 55.6175C37.1287 55.0644 36.3788 54.7533 35.5966 54.7525Z" fill="white"/>
<path d="M51.7118 61.581C51.1908 59.92 49.4318 59.301 48.5018 60.651C48.1649 61.1574 48.0373 61.7748 48.1458 62.3733C48.2544 62.9718 48.5905 63.505 49.0838 63.861C49.5528 64.1688 50.1105 64.3127 50.6698 64.27C51.0974 63.9818 51.4264 63.5697 51.6127 63.089C51.799 62.6082 51.8336 62.082 51.7118 61.581Z" fill="white"/>
<path d="M53.1503 70.1704C52.0103 70.0704 51.7003 70.1704 51.3903 71.0004C51.0803 71.8304 52.1053 72.6614 53.3573 72.7604C53.9109 72.8035 54.462 72.651 54.9148 72.3296C55.3676 72.0082 55.6933 71.5382 55.8353 71.0014C56.1503 69.9594 55.8353 69.1424 54.8073 69.3404C54.6346 69.6182 54.3884 69.8428 54.0959 69.9893C53.8035 70.1358 53.4762 70.1985 53.1503 70.1704Z" fill="white"/>
<path d="M46.1075 76.7879C43.9385 77.1969 40.5185 76.2669 40.3075 74.8169C40.0965 73.3669 40.9275 73.4659 42.0675 73.2679C43.2777 73.0433 44.3943 72.4653 45.2765 71.6069C45.5334 71.3566 45.8514 71.1779 46.1989 71.0885C46.5463 70.9991 46.9111 71.0022 47.257 71.0974C47.6028 71.1926 47.9178 71.3767 48.1705 71.6314C48.4232 71.886 48.6049 72.2023 48.6975 72.5489C48.8794 72.9965 48.9538 73.4806 48.9146 73.9622C48.8755 74.4438 48.7238 74.9095 48.4719 75.3218C48.22 75.7341 47.8748 76.0816 47.4641 76.3362C47.0535 76.5909 46.5888 76.7456 46.1075 76.7879Z" fill="white"/>
<path d="M33.5895 69.6488C30.3795 69.1278 30.4785 67.6778 31.1105 67.2688C31.7425 66.8598 33.3905 67.2688 33.7995 66.7478C34.2085 66.2268 36.7875 64.9888 37.4195 67.1708C38.0515 69.3528 36.7995 70.1698 33.5895 69.6488Z" fill="white"/>
</svg>
