<svg width="375" height="225" viewBox="0 0 375 225" fill="none" xmlns="http://www.w3.org/2000/svg">
<path d="M298.938 33.6959C297.015 35.3799 297.497 39.0959 300.013 41.9909C302.529 44.8859 306.126 45.8689 308.047 44.1839L332.805 30.3449L315.936 10.9219L298.938 33.6959Z" fill="#F4F3FD"/>
<path d="M333.249 29.9719C329.832 32.9676 323.265 31.0661 318.582 25.7245C313.898 20.383 312.872 13.624 316.288 10.6283C319.705 7.63258 326.272 9.53408 330.955 14.8756C335.639 20.2172 336.666 26.9755 333.249 29.9719Z" fill="#DADAF7"/>
<path d="M303.159 28.041C303.835 30.8941 305.213 33.5331 307.168 35.718C309.053 37.9559 311.47 39.6853 314.196 40.748L316.554 39.429C313.573 38.4192 310.927 36.6068 308.909 34.191C306.796 31.8496 305.366 28.9721 304.778 25.873L303.159 28.041Z" fill="#DADAF7"/>
<path d="M318.576 25.7221C319.195 26.4348 319.863 27.1031 320.576 27.7221L327.125 23.0221L322.398 17.5801L316.876 23.4611C317.388 24.2542 317.956 25.0097 318.576 25.7221Z" fill="#EAE9FF"/>
<path d="M279.903 66.9389C289.114 68.0959 288.653 78.7389 288.653 78.7389C288.653 78.7389 298.094 80.3589 302.469 85.2169C306.844 90.0749 302.469 99.0989 302.469 99.0989C302.469 99.0989 309.607 97.9419 313.291 101.644C316.975 105.346 314.673 111.13 305.691 113.212C296.709 115.294 225.791 125.937 225.791 125.937C225.791 125.937 220.955 126.633 221.416 121.774C221.877 116.915 229.936 112.751 229.936 112.751C229.936 112.751 224.179 109.743 225.331 103.728C226.483 97.7129 234.311 91.9279 237.531 89.6139C239.974 87.9289 242.512 86.3841 245.131 84.9869C245.131 84.9869 244.698 73.0529 252.039 69.7169C261.71 65.3169 266.546 72.2619 266.546 72.2619C266.546 72.2619 270.692 65.7829 279.903 66.9389Z" fill="#F99A3D"/>
<path d="M305.46 74.5744C308.684 59.0744 308.453 53.2884 308.453 53.2884C307.882 50.8617 307.573 48.3809 307.532 45.8884C307.457 44.9577 307.583 44.0218 307.901 43.1438C308.219 42.2658 308.721 41.4661 309.374 40.7984C312.731 37.4254 318.585 34.0884 325.032 39.1784C331.479 44.2684 328.025 58.3784 328.025 58.3784C328.025 58.3784 328.486 82.9034 325.492 100.719C322.498 118.535 318.814 121.542 318.814 121.542L295.56 104.883C299.815 95.118 303.13 84.969 305.46 74.5744Z" fill="#DA5742"/>
<path d="M327.346 22.8508C326.385 23.6934 324.538 23.1583 323.221 21.656C321.904 20.1536 321.615 18.2525 322.576 17.41C323.537 16.5675 325.385 17.1019 326.702 18.6042C328.019 20.1065 328.308 22.0076 327.346 22.8508Z" fill="#F4F3FD"/>
<path d="M207.372 193.499C203.685 206.46 208.751 214.831 211.399 217.237C214.047 219.643 237.764 166.66 237.764 166.66L215.428 168.742C215.428 168.742 211.053 180.542 207.372 193.499Z" fill="#C43D28"/>
<path d="M297.76 99.5879C296.46 102.888 295.56 104.888 295.56 104.888L318.153 121.068L318.945 121.417C319.551 120.774 322.183 117.4 324.637 105.348L297.76 99.5879Z" fill="#C43D28"/>
<path d="M230.856 141.44C239.145 134.04 249.277 129.872 263.323 128.483C277.369 127.094 283.356 119.229 286.349 115.989C289.342 112.749 295.79 100.719 295.79 100.719L323.422 112.056C322.217 119.4 320.288 126.608 317.665 133.573C315.055 140.155 311.486 146.314 307.073 151.852C307.073 151.852 310.987 168.511 313.751 188.177C316.515 207.843 316.915 216.867 316.915 216.867H235.774L238.454 182.162L208.981 170.819C208.981 170.819 222.567 148.844 230.856 141.44Z" fill="#3D5CFF"/>
<path d="M312.16 144.577L298.323 134.73L307.144 151.763C308.974 149.482 310.649 147.081 312.16 144.577Z" fill="#224BF4"/>
<path d="M256.645 150.463L240.527 138.895L217.001 173.908L238.455 182.161L235.775 216.866H250.201L256.645 150.463Z" fill="#224BF4"/>
<path d="M209.672 165.271L243.29 176.377" stroke="#EAEAFF" stroke-width="1.158" stroke-miterlimit="10"/>
<path d="M290.034 103.496L326.416 119.923" stroke="#EAEAFF" stroke-width="1.158" stroke-miterlimit="10"/>
<path opacity="0.55" d="M230.396 138.896C230.396 138.896 228.324 158.796 249.968 161.569C271.612 164.343 281.974 153.937 276.678 149.537C267.334 141.782 250.198 161.105 258.487 169.897C266.776 178.689 293.356 171.352 296.942 182.161C299.475 189.796 288.192 193.729 275.988 188.177C260.572 181.162 273.224 165.738 293.257 172.214C313.29 178.69 311.909 194.424 302.242 199.051C285.691 206.971 262.061 191.271 254.117 208.075C249.742 217.33 263.024 227.267 273.229 219.643C282.209 212.933 285.663 208.075 309.15 206.918C332.637 205.761 333.097 174.526 320.663 165.965C308.229 157.405 291.415 155.554 289.113 141.438C286.811 127.321 300.626 124.547 302.699 133.57C304.772 142.593 282.899 153.931 281.515 138.892C279.88 121.092 295.561 119.225 308.226 121.307C320.891 123.389 330.56 118.767 323.422 110.438" stroke="#EAEAFF" stroke-width="1.158" stroke-miterlimit="10"/>
<path d="M251.58 97.0175C248.356 98.6375 248.126 103.496 249.506 106.041C250.886 108.586 252.962 109.512 255.494 109.979C256.856 110.258 258.253 110.336 259.639 110.21C259.639 110.21 259.869 116.457 259.639 122.704C259.409 128.951 258.488 130.104 258.488 130.104C262.285 131.907 266.507 132.627 270.688 132.186C277.826 131.492 278.977 129.641 278.977 129.641C278.977 129.641 278.286 125.014 278.056 121.541C277.826 118.068 277.595 116.22 277.595 116.22C277.595 116.22 285.654 113.906 286.115 105.577C286.576 97.2475 286.115 95.1645 286.115 95.1645C286.115 95.1645 283.122 94.2395 281.279 88.4545C279.436 82.6695 278.06 81.9785 275.758 81.9785C273.456 81.9785 272.995 84.7545 272.995 84.7545C272.995 84.7545 271.143 81.2585 266.777 82.9035C263.093 84.2915 264.477 89.8445 262.863 93.3155C262.44 94.2998 261.809 95.1813 261.015 95.8997C260.22 96.6182 259.279 97.1567 258.258 97.4785C258.258 97.4785 254.806 95.3975 251.58 97.0175Z" fill="#DA5742"/>
<path d="M262.172 118.535C261.436 118.102 260.592 117.889 259.738 117.919C259.729 119.439 259.699 121.068 259.638 122.699C259.409 128.947 258.488 130.104 258.488 130.104C260.268 130.979 262.167 131.588 264.123 131.913C264.3 131.161 264.535 130.004 264.788 128.313C265.331 124.669 264.475 119.919 262.172 118.535Z" fill="#C43D28"/>
<path d="M265.626 93.3158C265.626 93.3158 265.165 91.6958 266.547 91.2328C266.713 91.1561 266.892 91.1131 267.075 91.1064C267.258 91.0997 267.441 91.1293 267.612 91.1936C267.783 91.2579 267.94 91.3555 268.073 91.4808C268.207 91.6062 268.314 91.7567 268.389 91.9238" fill="white"/>
<path d="M276.679 89.6139C276.701 89.2542 276.854 88.9151 277.108 88.6597C277.363 88.4043 277.701 88.2501 278.061 88.2259C278.427 88.145 278.811 88.1928 279.146 88.3613C279.481 88.5297 279.749 88.8086 279.903 89.1509" fill="white"/>
<path d="M274.291 93.3242C274.562 93.5586 274.814 93.8129 275.046 94.0852C275.28 94.3705 275.478 94.684 275.634 95.0182L275.734 95.2882C275.751 95.3358 275.763 95.3846 275.771 95.4342C275.782 95.4853 275.79 95.5371 275.794 95.5892C275.813 95.8031 275.773 96.0182 275.679 96.2112C275.486 96.5533 275.191 96.8262 274.834 96.9912C274.19 97.3 273.486 97.4651 272.771 97.4752C273.431 97.2881 274.064 97.0193 274.657 96.6752C274.925 96.5216 275.143 96.2956 275.288 96.0232C275.345 95.898 275.366 95.7597 275.35 95.6232C275.348 95.5894 275.343 95.556 275.334 95.5232C275.328 95.4869 275.318 95.4514 275.304 95.4172L275.221 95.1952C274.924 94.5952 274.528 94.0496 274.049 93.5812C273.572 93.0902 273.061 92.6232 272.534 92.1582C273.168 92.4683 273.759 92.8603 274.291 93.3242Z" fill="#1F1F39"/>
<path d="M268.252 98.3914C267.868 98.3873 267.5 98.2338 267.228 97.9634C266.955 97.693 266.799 97.327 266.791 96.9431C266.703 96.5696 266.764 96.1764 266.961 95.8468C267.157 95.5173 267.475 95.2774 267.845 95.178C268.229 95.1823 268.596 95.3359 268.868 95.6061C269.141 95.8763 269.297 96.2419 269.304 96.6255C269.393 96.9989 269.333 97.3922 269.136 97.7219C268.94 98.0516 268.622 98.2917 268.252 98.3914Z" fill="#1F1F39"/>
<path d="M279.993 97.0053C279.609 97.0011 279.241 96.8474 278.969 96.5769C278.696 96.3064 278.54 95.9403 278.533 95.5564C278.445 95.1829 278.506 94.7897 278.703 94.4603C278.9 94.1308 279.217 93.891 279.588 93.7917C279.971 93.7962 280.338 93.9499 280.61 94.2202C280.883 94.4905 281.039 94.8562 281.046 95.2397C281.135 95.6132 281.074 96.0065 280.877 96.3361C280.681 96.6657 280.363 96.9058 279.993 97.0053Z" fill="#1F1F39"/>
<path d="M274.836 101.413C275.865 101.215 276.869 100.905 277.83 100.488C277.83 100.488 279.212 104.188 277.83 107.198C277.588 107.78 277.184 108.28 276.667 108.64C276.15 109 275.54 109.204 274.91 109.228C274.281 109.253 273.657 109.096 273.114 108.777C272.57 108.458 272.129 107.991 271.843 107.429C271.226 105.564 270.915 103.61 270.922 101.645C272.231 101.77 273.551 101.692 274.836 101.413Z" fill="white"/>
<path d="M259.639 110.201C259.639 110.201 259.639 110.314 259.651 110.523C260.141 108.685 260.293 106.773 260.1 104.88C259.849 102.339 259.273 99.8407 258.387 97.4459L258.258 97.4809C258.258 97.4809 254.806 95.4009 251.58 97.0179C248.354 98.6349 248.126 103.501 249.506 106.041C250.886 108.581 252.96 109.512 255.493 109.974C256.856 110.253 258.253 110.329 259.639 110.201Z" fill="#C43D28"/>
<path d="M252.501 101.182C254.244 101.956 255.872 102.968 257.337 104.19C259.869 106.272 260.101 107.66 260.101 107.66" stroke="#1F1F39" stroke-width="0.579" stroke-miterlimit="10" stroke-linecap="round"/>
<path d="M325.034 39.176C321.592 36.462 318.32 36.143 315.506 36.952C317.286 42.031 321.461 53.606 323.422 56.297C323.958 57.0381 324.647 57.6551 325.443 58.1061C326.239 58.5572 327.123 58.8317 328.034 58.911C328.034 58.566 328.027 58.379 328.027 58.379C328.027 58.379 331.482 44.262 325.034 39.176Z" fill="#C43D28"/>
<path d="M271.843 119.229C273.717 120.591 275.844 121.565 278.099 122.091C278.085 121.906 278.071 121.723 278.06 121.543C277.86 118.575 277.666 116.795 277.613 116.343C277.288 116.373 276.931 116.408 276.538 116.454C274.558 116.683 268.389 115.758 268.389 115.758C268.389 115.758 267.468 116.221 271.843 119.229Z" fill="#C43D28"/>
<path d="M328.534 55.6764C327.899 56.042 327.144 56.1404 326.436 55.9499C325.729 55.7594 325.126 55.2955 324.76 54.6604L316.471 40.2354C316.107 39.5974 316.009 38.8416 316.198 38.1318C316.387 37.422 316.848 36.8154 317.482 36.4434L318.082 36.0964C318.717 35.7313 319.471 35.6332 320.178 35.8235C320.885 36.0138 321.488 36.477 321.854 37.1114L330.143 51.5374C330.506 52.175 330.604 52.9299 330.415 53.639C330.226 54.348 329.765 54.9541 329.133 55.3264L328.534 55.6764Z" fill="#DADAF7"/>
<path d="M268.159 115.527C269.859 116.139 271.652 116.452 273.459 116.452C274.844 116.493 276.229 116.416 277.6 116.221" stroke="#1F1F39" stroke-width="0.579" stroke-miterlimit="10" stroke-linecap="round"/>
<path d="M320.429 39.1751C320.202 40.0351 320.285 40.9475 320.664 41.7522C321.043 42.5569 321.693 43.2023 322.501 43.5751C322.275 44.7489 322.436 45.9645 322.962 47.0381C323.149 47.5961 323.532 48.0675 324.04 48.3652C324.548 48.663 325.146 48.767 325.725 48.6581C325.725 48.6581 325.034 51.4381 328.488 52.3631C331.942 53.2881 334.705 50.2811 334.245 47.7361C333.568 44.4209 332.405 41.2242 330.791 38.2501C330.474 37.63 330.036 37.0797 329.503 36.6319C328.97 36.184 328.352 35.8476 327.686 35.6427C327.021 35.4378 326.321 35.3684 325.628 35.4387C324.935 35.5091 324.264 35.7176 323.653 36.0521C322.294 36.6761 320.735 37.7451 320.429 39.1751Z" fill="#DA5742"/>
<path d="M322.635 43.6178L327.797 41.2578L322.635 43.6178Z" fill="#1F1F39"/>
<path d="M322.635 43.6178L327.797 41.2578" stroke="#1F1F39" stroke-width="0.579" stroke-miterlimit="10" stroke-linecap="round"/>
<path d="M325.725 48.6601L331.025 46.5781L325.725 48.6601Z" fill="#1F1F39"/>
<path d="M325.725 48.6601L331.025 46.5781" stroke="#1F1F39" stroke-width="0.579" stroke-miterlimit="10" stroke-linecap="round"/>
<path d="M327.106 5.39547L328.948 1.23047L327.106 5.39547Z" fill="#1F1F39"/>
<path d="M327.106 5.39547L328.948 1.23047" stroke="#1F1F39" stroke-width="0.579" stroke-miterlimit="10" stroke-linecap="round"/>
<path d="M336.388 13.6411L340.388 11.4941L336.388 13.6411Z" fill="#1F1F39"/>
<path d="M336.388 13.6411L340.388 11.4941" stroke="#1F1F39" stroke-width="0.579" stroke-miterlimit="10" stroke-linecap="round"/>
<path d="M338.424 25.9258L342.96 26.0458L338.424 25.9258Z" fill="#1F1F39"/>
<path d="M338.424 25.9258L342.96 26.0458" stroke="#1F1F39" stroke-width="0.579" stroke-miterlimit="10" stroke-linecap="round"/>
<path d="M298.323 134.73L299.979 137.969L307.073 151.851" stroke="#1F1F39" stroke-width="0.579" stroke-miterlimit="10" stroke-linecap="round"/>
<path d="M308.137 42.2307C308.137 42.2307 312.261 37.3797 314.964 37.0047C317.667 36.6297 319.047 37.5547 318.817 40.5627C318.587 43.5707 314.211 46.5787 314.211 46.5787" fill="#DA5742"/>
<path d="M308.137 42.2307C308.137 42.2307 312.261 37.3797 314.964 37.0047C317.667 36.6297 319.047 37.5547 318.817 40.5627C318.587 43.5707 314.211 46.5787 314.211 46.5787" stroke="#1F1F39" stroke-width="0.579" stroke-miterlimit="10" stroke-linecap="round"/>
<path d="M278.391 105.097C277.467 104.802 276.486 104.729 275.527 104.884C274.08 105.056 272.693 105.569 271.481 106.381C271.574 106.739 271.696 107.089 271.843 107.429C272.13 107.99 272.571 108.457 273.114 108.776C273.658 109.094 274.281 109.251 274.91 109.226C275.54 109.202 276.149 108.998 276.666 108.639C277.184 108.279 277.587 107.779 277.829 107.198C278.128 106.532 278.317 105.822 278.391 105.097Z" fill="#F9D2DD"/>
<path d="M284.983 102.919C282.257 103.14 279.936 101.952 279.799 100.266C279.662 98.5794 281.763 97.0337 284.489 96.8128C287.215 96.5919 289.536 97.7793 289.673 99.4657C289.809 101.152 287.71 102.698 284.983 102.919Z" fill="#C43D28"/>
<path d="M265.567 105.403C262.841 105.624 260.52 104.437 260.383 102.75C260.246 101.064 262.346 99.5181 265.073 99.2972C267.799 99.0763 270.12 100.264 270.257 101.95C270.393 103.637 268.294 105.182 265.567 105.403Z" fill="#C43D28"/>
<path d="M200.001 216.867H339.771H200.001Z" fill="#1F1F39"/>
<path d="M200.001 216.867H339.771" stroke="#1F1F39" stroke-width="0.579" stroke-miterlimit="10"/>
<path d="M225.099 169.204C230.165 160.643 236.864 140.158 239.158 136.171C239.722 135.061 240.591 134.135 241.663 133.502C242.734 132.869 243.965 132.554 245.209 132.596C245.209 132.596 244.445 122.696 244.445 119.227C244.445 115.758 246.745 113.443 248.82 115.062C250.895 116.681 252.504 128.713 252.504 128.713C252.504 128.713 257.288 118.506 259.731 118.752C262.174 118.998 262.863 121.08 261.711 125.476C260.83 128.625 259.753 131.716 258.487 134.731C258.487 134.731 262.401 132.417 264.244 134.5C266.087 136.583 262.858 141.671 260.33 145.141C259.048 146.826 257.893 148.605 256.876 150.462C256.876 150.462 248.358 194.654 243.751 206.686C239.144 218.718 229.935 223.345 222.337 222.65C214.739 221.955 205.297 216.172 208.981 201.136C208.981 201.136 220.034 177.765 225.099 169.204Z" fill="#DA5742"/>
<path d="M240.988 141.439C240.988 141.439 241.218 145.139 243.288 146.066C245.358 146.993 246.742 145.141 247.202 143.29C247.448 141.37 247.449 139.426 247.205 137.506" stroke="#1F1F39" stroke-width="0.579" stroke-miterlimit="10" stroke-linecap="round"/>
<path d="M247.205 144.45C247.205 144.45 247.896 146.995 249.968 146.301C252.04 145.607 252.505 143.522 252.731 141.209C252.85 139.586 252.774 137.954 252.505 136.35" stroke="#1F1F39" stroke-width="0.579" stroke-miterlimit="10" stroke-linecap="round"/>
<path d="M254.573 137.969C254.573 137.969 256.185 136.581 257.106 135.887C257.591 135.532 258.052 135.145 258.487 134.73" stroke="#1F1F39" stroke-width="0.579" stroke-miterlimit="10" stroke-linecap="round"/>
<path d="M240.53 134.731C240.53 134.731 240.988 133.111 245.13 132.649C247.518 132.356 249.939 132.513 252.268 133.112" stroke="#1F1F39" stroke-width="0.579" stroke-miterlimit="10" stroke-linecap="round"/>
<path d="M133.378 142.624C133.378 142.624 147.748 128.498 152.378 112.91C157.008 97.322 160.901 80.76 137.762 72.236C114.623 63.712 82.4745 79.056 54.4615 88.554C26.4485 98.052 -3.7445 92.207 -13.9745 74.915C-24.2045 57.623 -22.2555 29.613 -1.5525 15" stroke="white" stroke-width="0.974" stroke-miterlimit="10" stroke-linecap="round" stroke-dasharray="2.92 2.92"/>
<path d="M128.75 142.623L102.689 174.042L131.429 159.428L128.75 142.623Z" fill="#DADAF7"/>
<path d="M139.71 142.623L158.71 145.789L102.689 174.042L139.71 142.623Z" fill="#F4F3FD"/>
<path d="M102.689 174.042L115.841 140.188L128.75 142.624L102.689 174.042Z" fill="#F4F3FD"/>
</svg>
