<?xml version="1.0" encoding="UTF-8"?>
<!DOCTYPE svg PUBLIC "-//W3C//DTD SVG 1.1//EN" "http://www.w3.org/Graphics/SVG/1.1/DTD/svg11.dtd">
<svg xmlns="http://www.w3.org/2000/svg" version="1.1" width="360px" height="360px" style="shape-rendering:geometricPrecision; text-rendering:geometricPrecision; image-rendering:optimizeQuality; fill-rule:evenodd; clip-rule:evenodd" xmlns:xlink="http://www.w3.org/1999/xlink">
<g><path style="opacity:1" fill="#fefefe" d="M -0.5,-0.5 C 119.5,-0.5 239.5,-0.5 359.5,-0.5C 359.5,119.5 359.5,239.5 359.5,359.5C 239.5,359.5 119.5,359.5 -0.5,359.5C -0.5,239.5 -0.5,119.5 -0.5,-0.5 Z"/></g>
<g><path style="opacity:1" fill="#020202" d="M 169.5,95.5 C 198.854,93.0754 218.021,105.742 227,133.5C 230.151,161.971 218.318,180.804 191.5,190C 164.203,194.937 145.036,184.77 134,159.5C 126.852,127.45 138.686,106.117 169.5,95.5 Z"/></g>
<g><path style="opacity:1" fill="#010101" d="M 142.5,185.5 C 148.412,187.79 154.079,190.623 159.5,194C 170.284,197.831 181.284,198.497 192.5,196C 200.71,193.56 208.377,190.06 215.5,185.5C 232.735,191.865 245.568,203.198 254,219.5C 261.25,232.762 264.25,246.762 263,261.5C 262.5,262 262,262.5 261.5,263C 206.833,263.667 152.167,263.667 97.5,263C 96.2986,262.097 95.4652,260.931 95,259.5C 93.7471,235.504 102.247,215.671 120.5,200C 127.468,194.518 134.801,189.684 142.5,185.5 Z"/></g>
</svg>
